<svg xmlns="http://www.w3.org/2000/svg" xmlns:xlink="http://www.w3.org/1999/xlink" width="512" height="512" viewBox="0 0 512 512">
  <defs>
    <clipPath id="clip-Icon_-_Delete">
      <rect width="512" height="512"/>
    </clipPath>
  </defs>
  <g id="Icon_-_Delete" data-name="Icon - Delete" clip-path="url(#clip-Icon_-_Delete)">
    <path id="trash-regular" d="M431.611,79.928H349.285L315.316,23.279A47.957,47.957,0,0,0,274.153,0H173.444a47.957,47.957,0,0,0-41.163,23.279L98.311,79.928H15.986A15.986,15.986,0,0,0,0,95.913V111.9a15.986,15.986,0,0,0,15.986,15.986H31.971L53.152,466.579a47.957,47.957,0,0,0,47.857,44.959H346.587a47.955,47.955,0,0,0,47.856-44.953l21.181-338.7h15.986A15.986,15.986,0,0,0,447.6,111.9V95.913A15.986,15.986,0,0,0,431.611,79.928ZM173.444,47.957H274.153l19.183,31.971H154.261ZM346.587,463.582H101.019l-20.981-335.7H367.578Z" transform="translate(32.292 0.462)" fill="#858585"/>
  </g>
</svg>
