<svg xmlns="http://www.w3.org/2000/svg" xmlns:xlink="http://www.w3.org/1999/xlink" width="512" height="512" viewBox="0 0 512 512">
  <defs>
    <clipPath id="clip-Icon_-_Instagram">
      <rect width="512" height="512"/>
    </clipPath>
  </defs>
  <g id="Icon_-_Instagram" data-name="Icon - Instagram" clip-path="url(#clip-Icon_-_Instagram)">
    <g id="Group_18" data-name="Group 18" transform="translate(0.001)">
      <path id="Path_8" data-name="Path 8" d="M767.449,817.165a30.089,30.089,0,1,0,30.1,30.087A30.09,30.09,0,0,0,767.449,817.165ZM633.66,855.753c-69.695,0-126.417,56.708-126.417,126.4a126.417,126.417,0,1,0,126.417-126.4Zm0,207.384a80.974,80.974,0,1,1,80.982-80.982A81.07,81.07,0,0,1,633.66,1063.137ZM888.736,877.1A154.188,154.188,0,0,0,734.545,722.907h-203.5A154.2,154.2,0,0,0,376.84,877.1v203.529A154.187,154.187,0,0,0,531.045,1234.8h203.5a154.175,154.175,0,0,0,154.191-154.176Zm-48.292,203.529a105.888,105.888,0,0,1-105.9,105.885h-203.5a105.9,105.9,0,0,1-105.914-105.885V877.1A105.914,105.914,0,0,1,531.045,771.2h203.5a105.9,105.9,0,0,1,105.9,105.9Z" transform="translate(-376.84 -722.907)" fill="#858585"/>
    </g>
  </g>
</svg>
