<svg xmlns="http://www.w3.org/2000/svg" xmlns:xlink="http://www.w3.org/1999/xlink" width="512" height="512" viewBox="0 0 512 512">
  <defs>
    <clipPath id="clip-Icon_-_Add">
      <rect width="512" height="512"/>
    </clipPath>
  </defs>
  <g id="Icon_-_Add" data-name="Icon - Add" clip-path="url(#clip-Icon_-_Add)">
    <path id="plus-circle-regular" d="M396.479,247.7v33.062a12.435,12.435,0,0,1-12.4,12.4H293.16V384.08a12.435,12.435,0,0,1-12.4,12.4H247.7a12.435,12.435,0,0,1-12.4-12.4V293.16H144.381a12.435,12.435,0,0,1-12.4-12.4V247.7a12.435,12.435,0,0,1,12.4-12.4H235.3V144.381a12.435,12.435,0,0,1,12.4-12.4h33.062a12.435,12.435,0,0,1,12.4,12.4V235.3H384.08A12.435,12.435,0,0,1,396.479,247.7Zm123.982,16.531c0,141.547-114.684,256.231-256.231,256.231S8,405.777,8,264.231,122.684,8,264.231,8,520.461,122.684,520.461,264.231Zm-49.593,0c0-114.167-92.47-206.638-206.638-206.638S57.593,150.063,57.593,264.231s92.47,206.638,206.638,206.638S470.868,378.4,470.868,264.231Z" transform="translate(-8.417 -8.461)" fill="#858585"/>
  </g>
</svg>
