<svg xmlns="http://www.w3.org/2000/svg" xmlns:xlink="http://www.w3.org/1999/xlink" width="512" height="512" viewBox="0 0 512 512">
  <defs>
    <clipPath id="clip-Icon_-_Edit">
      <rect width="512" height="512"/>
    </clipPath>
  </defs>
  <g id="Icon_-_Edit" data-name="Icon - Edit" clip-path="url(#clip-Icon_-_Edit)">
    <path id="edit-regular" d="M356.918,305.985l28.39-28.39a7.132,7.132,0,0,1,12.155,5.057v129a42.6,42.6,0,0,1-42.585,42.585H42.585A42.6,42.6,0,0,1,0,411.65V99.357A42.6,42.6,0,0,1,42.585,56.772H285.233a7.143,7.143,0,0,1,5.057,12.155L261.9,97.317a7.033,7.033,0,0,1-5.057,2.041H42.585V411.65H354.878v-100.7A6.978,6.978,0,0,1,356.918,305.985ZM495.853,126.949,262.876,359.926l-80.2,8.872a36.652,36.652,0,0,1-40.456-40.456l8.872-80.2L384.066,15.163a51.78,51.78,0,0,1,73.371,0l38.327,38.327a51.967,51.967,0,0,1,.089,73.46ZM408.2,154.363l-51.546-51.546L191.811,267.747l-6.477,57.934,57.934-6.477Zm57.49-70.709L427.362,45.327a9.264,9.264,0,0,0-13.13,0L386.817,72.741l51.546,51.546,27.414-27.414A9.453,9.453,0,0,0,465.688,83.654Z" transform="translate(0 29.15)" fill="#858585"/>
  </g>
</svg>
