<svg xmlns="http://www.w3.org/2000/svg" xmlns:xlink="http://www.w3.org/1999/xlink" width="512" height="512" viewBox="0 0 512 512">
  <defs>
    <clipPath id="clip-Icon_-_Mise_à_jour">
      <rect width="512" height="512"/>
    </clipPath>
  </defs>
  <g id="Icon_-_Mise_à_jour" data-name="Icon - Mise à jour" clip-path="url(#clip-Icon_-_Mise_à_jour)">
    <g id="Group_64" data-name="Group 64" transform="translate(-1423.785 -2999)">
      <circle id="Ellipse_13" data-name="Ellipse 13" cx="211.157" cy="211.157" r="211.157" transform="translate(1496.056 3000)" fill="#69d1a9" opacity="0.3"/>
      <g id="update" transform="translate(1442 3190.042)">
        <path id="Path_254" data-name="Path 254" d="M216,64h42.794V74.7H216Z" transform="translate(-114.363 -31.904)" fill="#52ca9c"/>
        <path id="Path_255" data-name="Path 255" d="M168,64h16.048V74.7H168Z" transform="translate(-98.459 -31.904)" fill="#52ca9c"/>
        <path id="Path_256" data-name="Path 256" d="M256,112h16.048v10.7H256Z" transform="translate(-127.617 -47.808)" fill="#52ca9c"/>
        <path id="Path_257" data-name="Path 257" d="M120,112h74.89v10.7H120Z" transform="translate(-82.555 -47.808)" fill="#52ca9c"/>
        <path id="Path_258" data-name="Path 258" d="M312,376h53.493v10.7H312Z" transform="translate(-146.171 -135.281)" fill="#52ca9c"/>
        <path id="Path_259" data-name="Path 259" d="M208,376h53.493v10.7H208Z" transform="translate(-111.712 -135.281)" fill="#52ca9c"/>
        <path id="Path_260" data-name="Path 260" d="M120,376h42.794v10.7H120Z" transform="translate(-82.555 -135.281)" fill="#52ca9c"/>
        <path id="Path_261" data-name="Path 261" d="M368,424h16.048v10.7H368Z" transform="translate(-164.726 -151.185)" fill="#52ca9c"/>
        <path id="Path_262" data-name="Path 262" d="M280,424h42.795v10.7H280Z" transform="translate(-135.569 -151.185)" fill="#52ca9c"/>
        <path id="Path_263" data-name="Path 263" d="M120,424h90.938v10.7H120Z" transform="translate(-82.555 -151.185)" fill="#52ca9c"/>
        <path id="Path_264" data-name="Path 264" d="M160,224.192A64.192,64.192,0,1,0,224.192,160,64.192,64.192,0,0,0,160,224.192Zm117.685,0A53.493,53.493,0,1,1,224.192,170.7,53.493,53.493,0,0,1,277.685,224.192Z" transform="translate(-95.808 -63.712)" fill="#52ca9c"/>
        <path id="Path_265" data-name="Path 265" d="M64,310.212a26.777,26.777,0,0,0,26.747,26.747H294.02a26.777,26.777,0,0,0,26.747-26.747V110.452a26.575,26.575,0,0,0-7.834-18.913l-67.7-67.7A26.569,26.569,0,0,0,226.315,16H90.747A26.777,26.777,0,0,0,64,42.747ZM90.747,26.7H226.315a16.183,16.183,0,0,1,3.514.388v53.1a26.777,26.777,0,0,0,26.747,26.747h32.1V96.24h-32.1a16.066,16.066,0,0,1-16.048-16.048V34.264l64.84,64.84a15.946,15.946,0,0,1,4.7,11.348V171.13H267.274v10.7h42.794V310.212A16.066,16.066,0,0,1,294.02,326.26H90.746A16.066,16.066,0,0,1,74.7,310.212V181.829h42.794v-10.7H74.7V42.747A16.066,16.066,0,0,1,90.746,26.7Z" transform="translate(-64 -16)" fill="#52ca9c"/>
        <path id="Path_266" data-name="Path 266" d="M221.076,202.245l5.7,3.8a32.1,32.1,0,0,0-16.11,42.033l9.8-4.284a21.409,21.409,0,0,1,11.687-28.423l-2.492,7.476,10.149,3.384,5.349-16.048a5.349,5.349,0,0,0-2.108-6.143l-16.048-10.7Z" transform="translate(-111.709 -74.76)" fill="#52ca9c"/>
        <path id="Path_267" data-name="Path 267" d="M253.624,258.644l-5.349,16.048a5.349,5.349,0,0,0,2.108,6.143l16.048,10.7,5.934-8.9-5.7-3.8A32.1,32.1,0,0,0,282.772,236.8l-9.8,4.284A21.409,21.409,0,0,1,261.282,269.5l2.492-7.476Z" transform="translate(-124.966 -89.158)" fill="#52ca9c"/>
      </g>
    </g>
  </g>
</svg>
