<svg xmlns="http://www.w3.org/2000/svg" xmlns:xlink="http://www.w3.org/1999/xlink" width="512" height="512" viewBox="0 0 512 512">
  <defs>
    <clipPath id="clip-Icon_-_Un_compte_personnalisé">
      <rect width="512" height="512"/>
    </clipPath>
  </defs>
  <g id="Icon_-_Un_compte_personnalisé" data-name="Icon - Un compte personnalisé" clip-path="url(#clip-Icon_-_Un_compte_personnalisé)">
    <g id="Group_60" data-name="Group 60" transform="translate(-251.088 -3000)">
      <circle id="Ellipse_6" data-name="Ellipse 6" cx="211.116" cy="211.116" r="211.116" transform="translate(330.065 3000)" fill="#fee8eb"/>
      <g id="user" transform="translate(262 3189.873)">
        <path id="Path_251" data-name="Path 251" d="M152.328,146.257A73.128,73.128,0,1,0,79.2,73.129,73.127,73.127,0,0,0,152.328,146.257Zm0-132.42A59.291,59.291,0,1,1,93.039,73.128,59.292,59.292,0,0,1,152.328,13.837Zm0,0" transform="translate(-35.198 -0.001)" fill="#f22244"/>
        <path id="Path_252" data-name="Path 252" d="M306.915,311.721l-59.637-31.755a6.739,6.739,0,0,0-6.573.067l-54.587,29.888a115.1,115.1,0,0,0-69.39-22.623,114.827,114.827,0,0,0-82.885,34.8C11.771,344.721-.337,375.648-.266,409.2a6.938,6.938,0,0,0,6.917,6.919l192.472-.346a89.415,89.415,0,0,0,33.9,25.876l8.027,3.528a6.392,6.392,0,0,0,2.769.554,7.869,7.869,0,0,0,2.766-.554l9.063-3.943a89.594,89.594,0,0,0,54.933-82.678V317.877a6.992,6.992,0,0,0-3.666-6.156ZM13.778,402.216c1.451-27.191,12.037-52.026,30.026-70.5a100.883,100.883,0,0,1,72.989-30.58H117a101.091,101.091,0,0,1,62.129,20.825v37.428a89.513,89.513,0,0,0,10.791,42.548Zm282.967-43.658a75.771,75.771,0,0,1-46.562,69.948h-.069l-6.294,2.7-5.26-2.284a76.032,76.032,0,0,1-45.591-69.6v-37.43l51.126-28.019,52.651,28.089Zm0,0" transform="translate(0.266 -124.577)" fill="#f22244"/>
        <path id="Path_253" data-name="Path 253" d="M396.992,404.862a6.918,6.918,0,0,0-10.514,8.994l15.7,18.333a6.965,6.965,0,0,0,5.258,2.422,6.828,6.828,0,0,0,4.358-1.523l36.531-29.678a6.932,6.932,0,0,0-8.786-10.724l-31.272,25.46Zm0,0" transform="translate(-171.588 -174.547)" fill="#f22244"/>
      </g>
    </g>
  </g>
</svg>
