<svg xmlns="http://www.w3.org/2000/svg" xmlns:xlink="http://www.w3.org/1999/xlink" width="512" height="512" viewBox="0 0 512 512">
  <defs>
    <clipPath id="clip-Icon_-_Logout">
      <rect width="512" height="512"/>
    </clipPath>
  </defs>
  <g id="Icon_-_Logout" data-name="Icon - Logout" clip-path="url(#clip-Icon_-_Logout)">
    <path id="sign-out-alt-regular" d="M269.163,111.5v51.062h-95a47.512,47.512,0,0,0-47.5,47.5v87.676a47.512,47.512,0,0,0,47.5,47.5h95V396.3c0,42.156,51.161,63.53,81.046,33.546l142.5-142.4a47.6,47.6,0,0,0,0-67.192l-142.5-142.5C320.423,48.166,269.163,69.244,269.163,111.5Zm190,142.5-142.5,142.5v-98.66h-142.5V210.159h142.5V111.5ZM95,64h83.124A11.91,11.91,0,0,1,190,75.874v23.75A11.91,11.91,0,0,1,178.123,111.5H95A47.512,47.512,0,0,0,47.5,159V349A47.512,47.512,0,0,0,95,396.5h83.124A11.91,11.91,0,0,1,190,408.37v23.75a11.91,11.91,0,0,1-11.875,11.875H95A95.023,95.023,0,0,1,0,349V159A95.023,95.023,0,0,1,95,64Z" transform="translate(1.692 508.793) rotate(-90)" fill="#0095d9"/>
  </g>
</svg>
