<svg xmlns="http://www.w3.org/2000/svg" xmlns:xlink="http://www.w3.org/1999/xlink" width="1180" height="1080" viewBox="0 0 1180 1080">
  <defs>
    <style>
      .cls-1 {
        clip-path: url(#clip-Doctofiche_-_Illustration_04);
      }

      .cls-2 {
        fill: #f8f8f8;
      }

      .cls-3 {
        fill: #e0e0e0;
      }

      .cls-4 {
        fill: #f5f5f5;
      }

      .cls-5, .cls-7 {
        fill: #ebebeb;
      }

      .cls-6 {
        fill: #858585;
      }

      .cls-16, .cls-17, .cls-7 {
        fill-rule: evenodd;
      }

      .cls-17, .cls-8 {
        fill: #fff;
      }

      .cls-9 {
        fill: #0171bb;
      }

      .cls-10 {
        fill: #0095d9;
      }

      .cls-11, .cls-16 {
        fill: #e8505b;
      }

      .cls-12 {
        fill: #5a5a5a;
      }

      .cls-13 {
        fill: #bebebe;
      }

      .cls-14 {
        fill: #263238;
      }

      .cls-15 {
        fill: #fafafa;
      }

      .cls-18 {
        fill: #ffbe9d;
      }

      .cls-19 {
        fill: #eb996e;
      }

      .cls-20 {
        fill: #455a64;
      }

      .cls-21 {
        opacity: 0.4;
      }
    </style>
    <clipPath id="clip-Doctofiche_-_Illustration_04">
      <rect width="1180" height="1080"/>
    </clipPath>
  </defs>
  <g id="Doctofiche_-_Illustration_04" data-name="Doctofiche - Illustration 04" class="cls-1">
    <g id="Group_1839" data-name="Group 1839" transform="translate(-88.807 -66.952)">
      <path id="Path_13" data-name="Path 13" class="cls-2" d="M138.438,121.538c-31.614,45.038-54.6,97.677-73.936,148.513C21.311,383.6.654,505.336.015,626.66c-.467,88.446,9.946,178.913,48.6,258.464,46.008,94.678,138,171.789,247.167,171.275,254.808-1.183,514.886-149.395,674.755-341.6q14.522-17.457,28.157-35.622c46.212-61.556,85.255-132.062,85.07-211.222-.326-135.125-105.558-230.492-211.19-296.364A1243.311,1243.311,0,0,0,495.145,15.4c-73.3-16.915-152.817-24.276-225.133,1.057C213.2,36.354,171.188,74.866,138.438,121.538Z" transform="translate(1142.305 1182.474) rotate(-172)"/>
      <g id="Group_1740" data-name="Group 1740" transform="translate(354.997 226.626)">
        <path id="Path_920" data-name="Path 920" class="cls-3" d="M425.044,132.3a8.31,8.31,0,0,0-2.5.74,10.263,10.263,0,0,0-4.975,4.766,9.636,9.636,0,0,0-1.015,4.605,10.062,10.062,0,0,0,3.7,7.4,10.246,10.246,0,0,0,2.744,1.649,11.429,11.429,0,0,0,6.723.63,10.992,10.992,0,0,0,5.8-3.288,9.574,9.574,0,0,0,1.738-2.6,9.221,9.221,0,0,0,.828-2.845,9.753,9.753,0,0,0-.816-5.344,10.143,10.143,0,0,0-3-3.753,10.874,10.874,0,0,0-6.648-2.3,8.364,8.364,0,0,0-2.589.341c.012.069.923-.174,2.584-.118a10.877,10.877,0,0,1,6.378,2.387,9.819,9.819,0,0,1,2.809,3.629,9.362,9.362,0,0,1,.725,5.091,8.828,8.828,0,0,1-.8,2.69,9.076,9.076,0,0,1-1.658,2.453,10.438,10.438,0,0,1-5.481,3.1,10.855,10.855,0,0,1-6.353-.584,9.722,9.722,0,0,1-2.6-1.549,9.259,9.259,0,0,1-1.939-2.106,9.462,9.462,0,0,1-1.641-4.9,9.3,9.3,0,0,1,.9-4.418,10.231,10.231,0,0,1,4.69-4.738C424.13,132.514,425.066,132.366,425.044,132.3Z" transform="translate(-358.089 42.279)"/>
        <path id="Path_921" data-name="Path 921" class="cls-3" d="M423.485,128.261a1.9,1.9,0,0,0,.023-.35c.007-.262.015-.612.027-1.067.013-.977.035-2.386.062-4.214l-.077.09c2.462-.51,5.7-1.179,9.615-1.986l-.173-.08,2.529,5.1.045.091.108,0a25.266,25.266,0,0,1,6.268,1.052l.115.035.087-.08c1.318-1.235,2.744-2.572,4.227-3.963l-.268.028,8.3,5-.1-.267c-.621,1.642-1.306,3.451-2.006,5.3l-.052.136.1.106a22.681,22.681,0,0,1,3.647,4.919l.073.134h.158l5.945.021-.262-.2c.671,2.857,1.4,5.939,2.141,9.1l.155-.3-5.373,2.411-.157.071-.008.166a21.635,21.635,0,0,1-1.091,5.912l-.053.159.125.12,4.2,3.993-.04-.349-5.271,7.871.357-.117-5.6-1.89-.173-.058-.133.118a23.922,23.922,0,0,1-5.175,3.452l0,0h0c-.073.114.162-.252-.165.254v.35l0,.353,0,.708,0,1.412c0,.939,0,1.876-.007,2.807l.237-.279q-4.868,1.037-9.6,2.042l.337.156-2.552-5.085-.077-.155-.18-.006a25,25,0,0,1-6.244-1.026l-.17-.05-.125.118L423,174.308l.358-.036-8.317-4.979.113.311q1.012-2.7,1.988-5.309l.055-.147-.112-.114a22.6,22.6,0,0,1-3.662-4.907l-.075-.134H413.2c-2.038,0-4.014,0-5.945,0l.245.188c-.765-3.2-1.486-6.216-2.174-9.089l-.127.246,5.365-2.428.12-.054.005-.125a21.632,21.632,0,0,1,1.073-5.937l.037-.109-.085-.08-4.212-3.977.025.21c2.026-3.058,3.752-5.664,5.23-7.893l-.16.052c2.243.74,4.084,1.349,5.616,1.854l.057.019.042-.038a24.815,24.815,0,0,1,3.819-2.785l1.023-.584a2.62,2.62,0,0,0,.337-.2,3.241,3.241,0,0,0-.362.155c-.235.114-.59.287-1.05.544a23.359,23.359,0,0,0-3.9,2.731l.1-.019c-1.526-.524-3.357-1.155-5.59-1.923l-.1-.035-.06.087-5.3,7.851-.077.114.1.1c1.293,1.239,2.662,2.548,4.182,4l-.048-.189a21.986,21.986,0,0,0-1.128,6.033l.123-.178-5.376,2.4-.168.074.042.172c.675,2.876,1.383,5.9,2.134,9.1l.043.185.2,0,5.945.022-.232-.134a23.088,23.088,0,0,0,3.729,5.027l-.057-.26q-.985,2.606-2,5.3l-.075.2.188.112q4.051,2.438,8.307,5l.195.117.163-.153,4.218-3.971-.295.068a25.62,25.62,0,0,0,6.4,1.057l-.257-.159q1.262,2.518,2.548,5.087l.1.205.233-.049q4.733-1.006,9.6-2.037l.237-.05v-.229l.007-2.807,0-1.412,0-.708v-.355l0-.177v-.172c-.327.508-.09.14-.162.254l0,0,0,0a24.456,24.456,0,0,0,5.3-3.54l-.307.06,5.6,1.887.227.077.13-.192c1.809-2.709,3.6-5.382,5.263-7.875l.127-.189-.168-.159-4.2-3.989.072.279a22.135,22.135,0,0,0,1.11-6.059l-.165.235c1.861-.838,3.7-1.666,5.368-2.42l.2-.092-.05-.208-2.164-9.091-.048-.2-.215,0c-2.069,0-4.1,0-5.945,0l.23.134a23.088,23.088,0,0,0-3.744-5.014l.053.24c.693-1.855,1.37-3.667,1.983-5.311l.065-.17-.162-.1-8.324-4.968-.147-.088-.122.117-4.2,3.985.2-.046a25.572,25.572,0,0,0-6.373-1.032l.153.1-2.572-5.076-.053-.106-.118.027-9.59,2.092-.077.016,0,.073c.017,1.813.03,3.208.04,4.176.008.461.017.816.022,1.081A2.821,2.821,0,0,0,423.485,128.261Z" transform="translate(-364.996 35.615)"/>
        <path id="Path_922" data-name="Path 922" class="cls-3" d="M360.384,448.377s.02-.592.03-1.718.017-2.8.03-4.979c.017-4.373.04-10.79.068-19.028.035-16.465.085-40.2.147-69.332l-.275.259,173.488.077h.013l-.355-.336c.008,33.642.017,65.787.025,95.057l.33-.312-124.787.151-35.838.085-9.555.038c-1.078.009-1.9.016-2.471.019-.556.006-.851.019-.851.019s.268.013.811.019l2.434.019,9.488.038,35.761.085,125.007.151.33,0v-.314c.007-29.27.017-61.415.025-95.057v-.336h-.368l-173.488.077h-.273v.259c.062,29.2.112,52.988.145,69.493.03,8.211.053,14.608.07,18.969.013,2.155.023,3.8.03,4.93C360.366,447.822,360.384,448.377,360.384,448.377Z" transform="translate(-360.111 169.975)"/>
        <path id="Path_923" data-name="Path 923" class="cls-3" d="M360.457,360.615c0,.186,38.808.336,86.668.336,47.877,0,86.676-.15,86.676-.336s-38.8-.336-86.676-.336C399.265,360.279,360.457,360.429,360.457,360.615Z" transform="translate(-360.248 174.19)"/>
        <rect id="Rectangle_154" data-name="Rectangle 154" class="cls-4" width="53.593" height="50.752" transform="translate(105.152 550.479)"/>
        <path id="Path_924" data-name="Path 924" class="cls-3" d="M410.348,375.855a3.474,3.474,0,0,0,.788.068l2.261.063,8.312.107,27.425.1,27.429-.1,8.312-.107,2.259-.063a3.474,3.474,0,0,0,.788-.068,3.483,3.483,0,0,0-.788-.068c-.595-.016-1.341-.036-2.259-.063l-8.312-.106c-7.108-.027-16.761-.062-27.429-.1-10.666.038-20.318.073-27.425.1l-8.312.106c-.918.027-1.666.047-2.261.063A3.483,3.483,0,0,0,410.348,375.855Z" transform="translate(-397.493 182.995)"/>
        <path id="Path_925" data-name="Path 925" class="cls-3" d="M410.348,383.04a3.641,3.641,0,0,0,.806.068l2.309.063,8.5.107,28.034.1,28.04-.1,8.5-.107,2.311-.063a3.615,3.615,0,0,0,.8-.068,3.748,3.748,0,0,0-.8-.068l-2.311-.062-8.5-.107L450,382.7l-28.034.1-8.5.107-2.309.062A3.775,3.775,0,0,0,410.348,383.04Z" transform="translate(-399.218 187.146)"/>
        <path id="Path_926" data-name="Path 926" class="cls-3" d="M410.348,390.226a3.766,3.766,0,0,0,.806.068c.6.016,1.369.036,2.309.063l8.5.106,28.034.1,28.04-.1,8.5-.106c.94-.027,1.7-.047,2.311-.063a3.739,3.739,0,0,0,.8-.068,3.622,3.622,0,0,0-.8-.068l-2.311-.063-8.5-.107-28.04-.1-28.034.1-8.5.107-2.309.063A3.647,3.647,0,0,0,410.348,390.226Z" transform="translate(-399.218 191.298)"/>
        <path id="Path_927" data-name="Path 927" class="cls-3" d="M410.348,397.411a3.776,3.776,0,0,0,.806.068l2.309.063,8.5.106c7.261.027,17.129.062,28.034.1,10.91-.038,20.78-.073,28.04-.1l8.5-.106,2.311-.063a3.749,3.749,0,0,0,.8-.068,3.615,3.615,0,0,0-.8-.068l-2.311-.063-8.5-.107-28.04-.1-28.034.1-8.5.107-2.309.063A3.64,3.64,0,0,0,410.348,397.411Z" transform="translate(-399.218 195.449)"/>
        <path id="Path_1129" data-name="Path 1129" class="cls-5" d="M68.308,140.414c38.767-1.056,71.05-33.338,72.105-72.105S110.9-1.029,72.132.027,1.082,33.365.027,72.132,29.542,141.47,68.308,140.414Z" transform="translate(501.972 198.613) rotate(-135)"/>
        <path id="Path_928" data-name="Path 928" class="cls-6" d="M162.817,100.533a15.306,15.306,0,0,0,2.547.159l7.008.134c5.948.077,14.233.131,23.585.145h.463v-.439c0-1.417,0-2.911,0-4.429,0-9.891-.052-18.845-.137-25.326-.06-3.124-.11-5.71-.148-7.674a16.125,16.125,0,0,0-.182-2.815,16.332,16.332,0,0,0-.182,2.815c-.038,1.964-.088,4.55-.148,7.674-.085,6.481-.137,15.435-.137,25.326,0,1.518,0,3.012,0,4.429l.463-.439c-9.352.014-17.637.066-23.585.145l-7.008.134A15.09,15.09,0,0,0,162.817,100.533Z" transform="translate(306.415 0.874)"/>
        <path id="Path_929" data-name="Path 929" class="cls-6" d="M163.416,48.3c-.257,0-.466,2.569-.466,5.735s.21,5.737.466,5.737.467-2.569.467-5.737S163.675,48.3,163.416,48.3Z" transform="translate(338.734 -6.056)"/>
        <path id="Path_930" data-name="Path 930" class="cls-6" d="M177.887,54.14c-.183.172,1.559,2.1,3.89,4.309s4.37,3.859,4.552,3.686-1.559-2.1-3.892-4.31S178.069,53.966,177.887,54.14Z" transform="translate(291.41 -2.687)"/>
        <path id="Path_931" data-name="Path 931" class="cls-6" d="M188.356,66.741c-.118.222,2.169,1.526,4.968,3.141s5.078,2.931,5.233,2.729-1.906-1.854-4.748-3.485S188.467,66.528,188.356,66.741Z" transform="translate(261.731 4.584)"/>
        <path id="Path_932" data-name="Path 932" class="cls-6" d="M191.322,85.583c0,.245,3.7.442,8.259.442s8.259-.2,8.259-.442-3.7-.442-8.259-.442S191.322,85.34,191.322,85.583Z" transform="translate(247.507 15.231)"/>
        <path id="Path_933" data-name="Path 933" class="cls-6" d="M123.13,84.922c0,.245,3.492.442,7.8.442s7.8-.2,7.8-.442-3.492-.442-7.8-.442S123.13,84.679,123.13,84.922Z" transform="translate(430.229 14.849)"/>
        <path id="Path_934" data-name="Path 934" class="cls-6" d="M129.933,98.68c-.168.185,2.471,2.452,5.895,5.063s6.326,4.571,6.479,4.375-2.484-2.463-5.895-5.063S130.1,98.5,129.933,98.68Z" transform="translate(415.327 23.047)"/>
        <path id="Path_935" data-name="Path 935" class="cls-6" d="M144.388,109.439c-.215.15,1.743,3,4.012,6.586s4.019,6.556,4.259,6.447c.225-.1-1.153-3.28-3.459-6.9S144.588,109.3,144.388,109.439Z" transform="translate(380.888 29.266)"/>
        <path id="Path_936" data-name="Path 936" class="cls-6" d="M163.416,129.046c.258,0,.467-3.5.467-7.821s-.208-7.822-.467-7.822-.466,3.5-.466,7.822S163.16,129.046,163.416,129.046Z" transform="translate(338.734 31.559)"/>
        <path id="Path_937" data-name="Path 937" class="cls-6" d="M177.179,120.451c.132.2,3.364-1.562,6.811-4.418s5.738-5.636,5.55-5.786c-.2-.169-2.759,2.321-6.163,5.12S177.031,120.24,177.179,120.451Z" transform="translate(289.37 29.732)"/>
        <path id="Path_938" data-name="Path 938" class="cls-6" d="M188.461,109.48c.183.172,2.632-1.866,5.47-4.555s4.992-5.006,4.81-5.178-2.631,1.865-5.47,4.553S188.28,109.306,188.461,109.48Z" transform="translate(261.38 23.664)"/>
        <path id="Path_939" data-name="Path 939" class="cls-6" d="M131.508,74.553c.183.174,2.344-1.594,4.827-3.944s4.35-4.4,4.167-4.572-2.343,1.6-4.827,3.946S131.326,74.381,131.508,74.553Z" transform="translate(414.509 4.187)"/>
        <path id="Path_940" data-name="Path 940" class="cls-6" d="M143.982,61.446c.182.172,2.306-1.551,4.743-3.85s4.268-4.3,4.087-4.474-2.306,1.549-4.745,3.848S143.8,61.272,143.982,61.446Z" transform="translate(381.416 -3.275)"/>
        <path id="Path_941" data-name="Path 941" class="cls-7" d="M386.659,67.849a47.918,47.918,0,0,0-10.373,6.92L365.2,71.033,354.785,86.6l8.3,7.9a43.038,43.038,0,0,0-2.178,11.839l-10.623,4.779,4.262,17.985,11.759.025a45.14,45.14,0,0,0,7.309,9.823l-3.945,10.5,16.441,9.866,8.339-7.86a50.12,50.12,0,0,0,12.5,2.059L412,163.572l18.995-4.034.025-11.137a47.705,47.705,0,0,0,10.375-6.922l11.085,3.738,10.418-15.571-8.3-7.9a43.142,43.142,0,0,0,2.178-11.838l10.621-4.777-4.26-17.988-11.759-.022a45.151,45.151,0,0,0-7.309-9.825L448,66.8l-16.439-9.864L423.226,64.8a50.062,50.062,0,0,0-12.5-2.061l-5.043-10.06-18.992,4.034-.028,11.136ZM403.4,89.014c11.251-2.39,22.421,4.309,24.945,14.966s-4.553,21.232-15.8,23.622-22.421-4.31-24.945-14.966S392.151,91.4,403.4,89.014Z" transform="translate(-276.887 -3.523)"/>
        <path id="Path_942" data-name="Path 942" class="cls-4" d="M186.946,172.424H63.7s10.9-18.781,42.623-16.047c30.3,2.61,31.837-9.241,47.244-10.7S181.812,155.4,186.946,172.424Z" transform="translate(481.028 50.132)"/>
        <path id="Path_943" data-name="Path 943" class="cls-4" d="M323.556,305.041H223.8s8.822-15.2,34.5-12.99c24.525,2.113,25.771-7.479,38.242-8.66S319.4,291.264,323.556,305.041Z" transform="translate(77.685 129.709)"/>
        <rect id="Rectangle_155" data-name="Rectangle 155" class="cls-8" width="242.053" height="153.476" transform="translate(15.717 195.012)"/>
        <path id="Path_945" data-name="Path 945" class="cls-9" d="M310,298.752s.023-.959.037-2.793l.038-8.1c.022-7.1.05-17.524.088-30.867.043-26.664.107-64.992.183-111.72L310,145.6l242.034.084h.018l-.433-.412c.013,54.677.025,106.67.037,153.476l.4-.377-174.384.186-49.821.1c-5.78.019-10.228.035-13.252.046l-3.42.022c-.771.008-1.175.022-1.175.022s.372.014,1.128.022l3.376.022,13.174.046,49.731.1,174.644.185.4,0v-.377c.01-46.807.023-98.8.037-153.476v-.41h-.453L310,144.947h-.348l0,.328c.075,46.813.138,85.211.182,111.925.038,13.31.068,23.706.088,30.793.017,3.515.03,6.205.038,8.035C309.971,297.838,310,298.752,310,298.752Z" transform="translate(-294.278 49.736)"/>
        <path id="Path_946" data-name="Path 946" class="cls-9" d="M551.762,153.956c0-.227-54.144-.41-120.921-.41-66.8,0-120.931.183-120.931.41s54.133.41,120.931.41C497.617,154.366,551.762,154.183,551.762,153.956Z" transform="translate(-293.991 54.752)"/>
        <path id="Path_947" data-name="Path 947" class="cls-9" d="M313.312,150.1a1.943,1.943,0,1,0,1.941-1.838A1.891,1.891,0,0,0,313.312,150.1Z" transform="translate(-65.092 51.699)"/>
        <path id="Path_948" data-name="Path 948" class="cls-9" d="M317.3,150.1a1.942,1.942,0,1,0,1.939-1.838A1.89,1.89,0,0,0,317.3,150.1Z" transform="translate(-75.728 51.699)"/>
        <path id="Path_949" data-name="Path 949" class="cls-9" d="M321.234,150.1a1.943,1.943,0,1,0,1.939-1.838A1.89,1.89,0,0,0,321.234,150.1Z" transform="translate(-86.211 51.699)"/>
        <rect id="Rectangle_156" data-name="Rectangle 156" class="cls-10" width="64.567" height="61.144" transform="translate(172.395 224.713)"/>
        <path id="Path_950" data-name="Path 950" class="cls-9" d="M367.755,175.054c0,.227,25.181.412,56.239.412s56.244-.185,56.244-.412-25.176-.41-56.244-.41S367.755,174.829,367.755,175.054Z" transform="translate(-318.843 66.941)"/>
        <path id="Path_951" data-name="Path 951" class="cls-9" d="M367.755,182.256c0,.227,25.181.41,56.239.41s56.244-.183,56.244-.41-25.176-.41-56.244-.41S367.755,182.029,367.755,182.256Z" transform="translate(-318.843 71.102)"/>
        <path id="Path_952" data-name="Path 952" class="cls-9" d="M367.755,189.459c0,.226,25.181.41,56.239.41s56.244-.185,56.244-.41-25.176-.412-56.244-.412S367.755,189.232,367.755,189.459Z" transform="translate(-318.843 75.262)"/>
        <path id="Path_953" data-name="Path 953" class="cls-9" d="M367.755,196.659a15.8,15.8,0,0,0,2.612.161l7.123.129c6.016.074,14.325.122,23.5.122s17.492-.047,23.507-.122l7.124-.129a15.783,15.783,0,0,0,2.611-.161,15.921,15.921,0,0,0-2.611-.159l-7.124-.131c-6.015-.074-14.325-.12-23.507-.12s-17.486.046-23.5.12l-7.123.131A15.935,15.935,0,0,0,367.755,196.659Z" transform="translate(-272.839 79.423)"/>
        <rect id="Rectangle_157" data-name="Rectangle 157" class="cls-11" width="30.344" height="28.735" transform="translate(202.577 306.472)"/>
        <rect id="Rectangle_158" data-name="Rectangle 158" class="cls-12" width="30.344" height="28.735" transform="translate(147.55 306.472)"/>
        <rect id="Rectangle_159" data-name="Rectangle 159" class="cls-6" width="30.344" height="28.735" transform="translate(92.519 306.472)"/>
        <rect id="Rectangle_160" data-name="Rectangle 160" class="cls-13" width="30.344" height="28.735" transform="translate(37.489 306.472)"/>
        <rect id="Rectangle_161" data-name="Rectangle 161" class="cls-8" width="215.629" height="82.941" transform="translate(484.819 250.302)"/>
        <path id="Path_954" data-name="Path 954" class="cls-9" d="M44.247,263.228s.015-.51.023-1.482.015-2.42.027-4.3c.013-3.785.033-9.345.06-16.506.03-14.315.075-35.021.13-60.65l-.24.227,215.613.1h.015l-.342-.323c.005,29.045.01,57.081.015,82.94l.327-.309-154.6.147-44.849.085-12,.039-3.107.019c-.7.006-1.068.019-1.068.019s.34.013,1.026.02q1.055,0,3.069.019c2.727.008,6.738.022,11.936.039l44.774.085,154.823.147h.327v-.311c0-25.859.01-53.9.015-82.94v-.323h-.357l-215.613.1h-.242l0,.227c.055,25.686.1,46.441.13,60.787.025,7.141.045,12.683.058,16.456.012,1.865.02,3.29.027,4.261S44.247,263.228,44.247,263.228Z" transform="translate(440.573 70.015)"/>
        <path id="Path_955" data-name="Path 955" class="cls-9" d="M259.627,187.377c0-.18-48.2-.323-107.638-.323-59.461,0-107.649.144-107.649.323s48.188.322,107.649.322C211.43,187.7,259.627,187.556,259.627,187.377Z" transform="translate(440.605 74.111)"/>
        <path id="Path_956" data-name="Path 956" class="cls-9" d="M47.879,184.631a1.568,1.568,0,1,0,1.564-1.483A1.526,1.526,0,0,0,47.879,184.631Z" transform="translate(643.326 71.854)"/>
        <path id="Path_957" data-name="Path 957" class="cls-9" d="M51.1,184.631a1.567,1.567,0,1,0,1.564-1.483A1.525,1.525,0,0,0,51.1,184.631Z" transform="translate(634.745 71.854)"/>
        <path id="Path_958" data-name="Path 958" class="cls-9" d="M54.27,184.631a1.568,1.568,0,1,0,1.566-1.483A1.526,1.526,0,0,0,54.27,184.631Z" transform="translate(626.287 71.854)"/>
        <path id="Path_1128" data-name="Path 1128" class="cls-10" d="M52.083,0H0V49.321H52.083Z" transform="translate(630.04 274.968)"/>
        <path id="Path_959" data-name="Path 959" class="cls-9" d="M92.824,204.3c0,.178,26.8.323,59.856.323s59.859-.145,59.859-.323-26.8-.323-59.859-.323S92.824,204.12,92.824,204.3Z" transform="translate(406.914 83.887)"/>
        <path id="Path_960" data-name="Path 960" class="cls-9" d="M92.824,210.667c0,.178,26.8.323,59.856.323s59.859-.145,59.859-.323-26.8-.323-59.859-.323S92.824,210.488,92.824,210.667Z" transform="translate(406.914 87.566)"/>
        <path id="Path_961" data-name="Path 961" class="cls-9" d="M92.824,217.035a3.593,3.593,0,0,0,.783.065l2.244.062,8.259.1,27.244.095,27.251-.095,8.257-.1,2.244-.062a3.594,3.594,0,0,0,.783-.065,3.591,3.591,0,0,0-.783-.065c-.586-.017-1.33-.036-2.244-.062l-8.257-.1-27.251-.095-27.244.095-8.259.1c-.913.025-1.658.044-2.244.062A3.591,3.591,0,0,0,92.824,217.035Z" transform="translate(449.564 91.245)"/>
        <path id="Path_962" data-name="Path 962" class="cls-4" d="M229.373,114.538c3.615-2.281,8.577-.9,12.191,1.382s6.7,5.412,10.753,6.9c7.6,2.8,17.572-.518,23.484,4.809,3.75,3.381,4.134,8.93,7,13.013,4.828,6.879,16.413,9.463,17.406,17.669.58,4.787-3.419,9.377-8.305,10.719s-10.261-.074-14.5-2.742c-4.948-3.114-8.835-7.917-14.475-9.69-5.763-1.811-12.876-.3-17.422-4.105s-3.867-10.819-7.128-15.683c-1.734-2.589-4.472-4.4-6.923-6.4s-4.785-4.484-5.195-7.526.906-8.231,3.114-8.348" transform="translate(97.002 31.54)"/>
        <path id="Path_963" data-name="Path 963" class="cls-14" d="M214.7,326.565c-.2-.117-.88.521-1.508,1.425s-.98,1.745-.785,1.878.871-.508,1.509-1.426S214.9,326.683,214.7,326.565Z" transform="translate(205.561 154.704)"/>
        <path id="Path_964" data-name="Path 964" class="cls-14" d="M211.278,317.541c-.227-.073-1.115,1.493-1.983,3.495s-1.4,3.709-1.181,3.809,1.1-1.466,1.983-3.5S211.5,317.613,211.278,317.541Z" transform="translate(216.118 149.497)"/>
        <path id="Path_965" data-name="Path 965" class="cls-14" d="M207.343,307.818c-.238-.028-.77,1.676-1.188,3.806s-.566,3.9-.333,3.957.765-1.649,1.186-3.806S207.579,307.847,207.343,307.818Z" transform="translate(223.918 143.881)"/>
        <path id="Path_966" data-name="Path 966" class="cls-14" d="M205.51,297.83c-.238.016-.408,1.786-.375,3.952s.252,3.93.492,3.941.408-1.759.375-3.954S205.748,297.813,205.51,297.83Z" transform="translate(226.336 138.111)"/>
        <path id="Path_967" data-name="Path 967" class="cls-14" d="M206.024,287.967c-.23.06-.027,1.827.455,3.946s1.068,3.807,1.3,3.772.033-1.8-.456-3.946S206.256,287.905,206.024,287.967Z" transform="translate(223.127 132.411)"/>
        <path id="Path_968" data-name="Path 968" class="cls-14" d="M208.609,278.649c-.212.106.373,1.794,1.31,3.769s1.876,3.512,2.1,3.433-.362-1.767-1.31-3.769S208.82,278.542,208.609,278.649Z" transform="translate(214.551 127.026)"/>
        <path id="Path_969" data-name="Path 969" class="cls-14" d="M213.18,270.317c-.185.144.771,1.672,2.136,3.413s2.644,3.043,2.819,2.935c.225-.14-.745-1.66-2.121-3.422S213.365,270.173,213.18,270.317Z" transform="translate(200.799 122.209)"/>
        <path id="Path_970" data-name="Path 970" class="cls-14" d="M219.429,262.91c-.17.159.976,1.567,2.561,3.141s3.012,2.728,3.189,2.575-.968-1.559-2.559-3.141S219.6,262.751,219.429,262.91Z" transform="translate(183.35 117.928)"/>
        <path id="Path_971" data-name="Path 971" class="cls-14" d="M226.409,255.8c-.173.158,1,1.545,2.616,3.1s3.067,2.684,3.236,2.524-1-1.549-2.616-3.1S226.582,255.642,226.409,255.8Z" transform="translate(164.64 113.819)"/>
        <path id="Path_972" data-name="Path 972" class="cls-14" d="M233.324,248.258c-.192.136.841,1.619,2.308,3.31s2.8,2.944,2.981,2.793-.855-1.633-2.309-3.312S233.516,248.122,233.324,248.258Z" transform="translate(146.775 109.465)"/>
        <path id="Path_973" data-name="Path 973" class="cls-14" d="M239.326,239.671c-.218.085.33,1.8,1.4,3.757s2.219,3.375,2.421,3.256-.6-1.712-1.649-3.635S239.549,239.583,239.326,239.671Z" transform="translate(132.268 104.508)"/>
        <path id="Path_974" data-name="Path 974" class="cls-14" d="M243.34,230.006c-.235.016-.293,1.811.09,3.984s1.05,3.856,1.278,3.8-.052-1.8-.422-3.932S243.583,229.99,243.34,230.006Z" transform="translate(124.2 98.926)"/>
        <path id="Path_975" data-name="Path 975" class="cls-14" d="M244.708,220.067c-.227-.055-.88,1.633-1.233,3.809s-.28,3.973-.047,3.985.551-1.724.9-3.859S244.944,220.124,244.708,220.067Z" transform="translate(124.068 93.183)"/>
        <path id="Path_976" data-name="Path 976" class="cls-14" d="M243.319,210.923c-.193-.128-1.419,1.248-2.516,3.19s-1.638,3.665-1.419,3.749,1.106-1.461,2.184-3.361S243.52,211.052,243.319,210.923Z" transform="translate(132.004 87.896)"/>
        <path id="Path_977" data-name="Path 977" class="cls-14" d="M238.775,203.832c-.128-.186-1.813.652-3.6,2.07s-2.959,2.835-2.789,2.988,1.594-.978,3.346-2.359S238.911,204.025,238.775,203.832Z" transform="translate(148.173 83.789)"/>
        <path id="Path_978" data-name="Path 978" class="cls-14" d="M231.17,199.794c-.05-.218-1.938,0-4.142.715s-3.839,1.633-3.739,1.835,1.863-.361,4.02-1.057S231.225,200.018,231.17,199.794Z" transform="translate(170.922 81.424)"/>
        <path id="Path_979" data-name="Path 979" class="cls-14" d="M221.663,199.622c.042-.218-1.793-.708-4.124-.82s-4.207.181-4.19.4,1.873.3,4.145.418S221.622,199.851,221.663,199.622Z" transform="translate(196.983 80.883)"/>
        <path id="Path_980" data-name="Path 980" class="cls-14" d="M211.457,204.37c.137-.18-1.293-1.374-3.352-2.419s-3.9-1.515-3.982-1.308,1.569,1.008,3.57,2.032S211.315,204.56,211.457,204.37Z" transform="translate(222.559 81.934)"/>
        <path id="Path_981" data-name="Path 981" class="cls-14" d="M202.365,212.462c.2-.112-.61-1.745-2.044-3.487s-2.9-2.9-3.062-2.739.985,1.538,2.378,3.242S202.156,212.582,202.365,212.462Z" transform="translate(243.09 85.185)"/>
        <path id="Path_982" data-name="Path 982" class="cls-14" d="M195.813,222.328c.233-.021.232-1.83-.323-3.981s-1.413-3.761-1.629-3.681.253,1.781.786,3.875S195.57,222.351,195.813,222.328Z" transform="translate(255.256 90.062)"/>
        <path id="Path_983" data-name="Path 983" class="cls-14" d="M193.871,232.17c.218.081,1.078-1.529,1.629-3.679s.568-3.955.335-3.977-.635,1.693-1.178,3.783S193.641,232.088,193.871,232.17Z" transform="translate(255.219 95.752)"/>
        <path id="Path_984" data-name="Path 984" class="cls-14" d="M197.236,240.284c.178.145,1.558-1.084,2.916-2.873s2.144-3.425,1.939-3.536-1.308,1.3-2.644,3.056S197.051,240.133,197.236,240.284Z" transform="translate(243.407 101.158)"/>
        <path id="Path_985" data-name="Path 985" class="cls-14" d="M203.622,246.5c.137.183,1.786-.693,3.59-2.073s3.054-2.725,2.892-2.889-1.656.891-3.439,2.25S203.482,246.313,203.622,246.5Z" transform="translate(224.751 105.579)"/>
        <path id="Path_986" data-name="Path 986" class="cls-14" d="M211.72,250.97c.095.208,1.848-.428,3.912-1.422s3.64-1.96,3.519-2.155-1.873.44-3.912,1.422S211.625,250.763,211.72,250.97Z" transform="translate(202.211 108.951)"/>
        <path id="Path_987" data-name="Path 987" class="cls-14" d="M220.85,253.416c.042.221,1.928.082,4.175-.465s3.972-1.281,3.9-1.493-1.9.159-4.114.7S220.807,253.191,220.85,253.416Z" transform="translate(177.226 111.283)"/>
        <path id="Path_988" data-name="Path 988" class="cls-14" d="M230.659,253.265c-.027.221,1.828.6,4.152.637s4.19-.259,4.174-.481-1.876-.3-4.157-.341S230.686,253.035,230.659,253.265Z" transform="translate(150.823 112.245)"/>
        <path id="Path_989" data-name="Path 989" class="cls-14" d="M240.581,250.632c-.1.2,1.523,1.13,3.714,1.874s4.067,1.008,4.124.792-1.686-.831-3.83-1.567S240.684,250.422,240.581,250.632Z" transform="translate(124.866 110.817)"/>
        <path id="Path_990" data-name="Path 990" class="cls-14" d="M249.665,245.161c-.16.164,1.1,1.5,2.949,2.838s3.534,2.15,3.66,1.963-1.323-1.3-3.132-2.614S249.828,244.989,249.665,245.161Z" transform="translate(101.883 107.671)"/>
        <path id="Path_991" data-name="Path 991" class="cls-14" d="M257.146,237.591c-.2.12.65,1.721,2.046,3.479s2.782,2.98,2.959,2.832-.895-1.592-2.264-3.324S257.351,237.466,257.146,237.591Z" transform="translate(83.556 103.303)"/>
        <path id="Path_992" data-name="Path 992" class="cls-14" d="M262.631,228.6c-.225.066.157,1.822,1.03,3.861s1.878,3.558,2.088,3.458-.43-1.758-1.285-3.766S262.862,228.525,262.631,228.6Z" transform="translate(70.856 98.11)"/>
        <path id="Path_993" data-name="Path 993" class="cls-14" d="M265.855,218.8c-.237.016-.3,1.8.017,3.979s.883,3.884,1.115,3.839.053-1.8-.255-3.949S266.1,218.782,265.855,218.8Z" transform="translate(64.406 92.451)"/>
        <path id="Path_994" data-name="Path 994" class="cls-14" d="M266.874,208.808c-.237-.03-.575,1.718-.753,3.9s-.13,3.962.11,3.966.578-1.743.755-3.9S267.112,208.84,266.874,208.808Z" transform="translate(63.815 86.679)"/>
        <path id="Path_995" data-name="Path 995" class="cls-14" d="M266.183,199.049c-.228-.071-.9,1.587-1.508,3.7s-.9,3.872-.671,3.919.91-1.611,1.508-3.7S266.412,199.118,266.183,199.049Z" transform="translate(68.123 81.039)"/>
        <path id="Path_996" data-name="Path 996" class="cls-14" d="M263.674,189.809c-.208-.1-1.216,1.4-2.218,3.376-.935,2.005-1.513,3.7-1.291,3.785s1.153-1.453,2.078-3.438C263.236,191.576,263.891,189.915,263.674,189.809Z" transform="translate(77.011 75.699)"/>
        <path id="Path_997" data-name="Path 997" class="cls-14" d="M259.454,181.1c-.2-.117-1.316,1.316-2.482,3.2s-1.943,3.5-1.734,3.611,1.321-1.319,2.484-3.2S259.66,181.214,259.454,181.1Z" transform="translate(89.429 70.665)"/>
        <path id="Path_998" data-name="Path 998" class="cls-14" d="M254.306,172.41c-.213-.1-1.286,1.354-2.4,3.255s-1.846,3.537-1.638,3.652,1.28-1.343,2.4-3.256S254.52,172.514,254.306,172.41Z" transform="translate(102.848 65.647)"/>
        <path id="Path_999" data-name="Path 999" class="cls-14" d="M249.277,163.214c-.23-.066-1.063,1.524-1.859,3.552s-1.266,3.746-1.046,3.837,1.051-1.5,1.859-3.553S249.507,163.278,249.277,163.214Z" transform="translate(114.385 60.336)"/>
        <path id="Path_1000" data-name="Path 1000" class="cls-14" d="M245.5,153.378c-.243-.006-.5,1.742-.74,3.892s-.382,3.911-.143,3.952.763-1.679,1.006-3.865S245.738,153.384,245.5,153.378Z" transform="translate(120.995 54.655)"/>
        <path id="Path_1001" data-name="Path 1001" class="cls-14" d="M244.74,143.428c-.238.049-.028,1.8.3,3.946s.661,3.881.9,3.864.292-1.807-.045-3.982S244.97,143.38,244.74,143.428Z" transform="translate(120.381 48.906)"/>
        <path id="Path_1002" data-name="Path 1002" class="cls-14" d="M246.813,133.994c-.217.1.45,1.753,1.328,3.749s1.653,3.6,1.884,3.531-.187-1.819-1.083-3.847S247.023,133.893,246.813,133.994Z" transform="translate(112.877 43.453)"/>
        <path id="Path_1003" data-name="Path 1003" class="cls-14" d="M251.251,125.718c-.18.153.92,1.579,2.316,3.29s2.584,3.075,2.787,2.947-.676-1.713-2.1-3.449S251.426,125.566,251.251,125.718Z" transform="translate(99.152 38.667)"/>
        <path id="Path_1004" data-name="Path 1004" class="cls-14" d="M257.857,119.142c-.133.191,1.306,1.314,3.114,2.638s3.324,2.352,3.486,2.182-1.116-1.493-2.956-2.834S257.986,118.954,257.857,119.142Z" transform="translate(80.04 34.86)"/>
        <path id="Path_1005" data-name="Path 1005" class="cls-14" d="M266.126,114.626c-.08.216,1.608.967,3.7,1.827s3.834,1.507,3.945,1.3-1.468-1.186-3.6-2.057S266.2,114.415,266.126,114.626Z" transform="translate(56.939 32.234)"/>
        <path id="Path_1006" data-name="Path 1006" class="cls-14" d="M275.51,112.839c-.035.224.848.565,1.969.762s2.076.174,2.129-.047-.83-.562-1.971-.762S275.543,112.614,275.51,112.839Z" transform="translate(35.474 31.128)"/>
        <path id="Path_1007" data-name="Path 1007" class="cls-9" d="M345.092,86.093s-19.57-13.218-46.65-4.681c0,0-2.226,21.23,19.492,38.114" transform="translate(-68.108 11.418)"/>
        <path id="Path_1008" data-name="Path 1008" class="cls-10" d="M357.8,123.869c-.833,1.183-22.069,33.514-22.069,33.514l-63.768-37.2c-11.133-6.5-14.012-20.623-6.228-30.574h0c7.1-9.075,20.476-11.262,30.376-4.967Z" transform="translate(-19.13 12.869)"/>
        <path id="Path_1009" data-name="Path 1009" class="cls-14" d="M304.973,135.751,306.4,158.5s-41.324-18.952-31.011-40.005Z" transform="translate(11.63 34.501)"/>
        <path id="Path_1010" data-name="Path 1010" class="cls-14" d="M248.415,97.712s28.015-11.707,51.091,5.462l-21.553,13.321Z" transform="translate(60.72 20.243)"/>
        <path id="Path_1011" data-name="Path 1011" class="cls-14" d="M259.641,108.359l39.878,23.624s-1.37,4.061-2.441,3.723c-.9-.284-30.864-17.04-40.581-22.48a2.757,2.757,0,0,1-.785-4.257h0A3.131,3.131,0,0,1,259.641,108.359Z" transform="translate(49.691 28.394)"/>
        <path id="Path_1130" data-name="Path 1130" class="cls-15" d="M11.976,25.465c6.7-.083,12.194-5.851,12.277-12.883S18.975-.082,12.278,0,.084,5.852,0,12.884,5.279,25.549,11.976,25.465Z" transform="matrix(-0.229, -0.973, 0.973, -0.229, 262.984, 133.572)"/>
        <path id="Path_1012" data-name="Path 1012" class="cls-14" d="M293.13,101.4c.1.006.047-1.078.563-2.912a12.038,12.038,0,0,1,4.667-6.466,12.767,12.767,0,0,1,5.248-2.163,13.156,13.156,0,0,1,6.5.543,12.185,12.185,0,0,1,5.726,4.091,11.158,11.158,0,0,1,0,13.815,12.2,12.2,0,0,1-5.728,4.093,13.156,13.156,0,0,1-6.5.543,12.8,12.8,0,0,1-5.25-2.163,12.033,12.033,0,0,1-4.665-6.466c-.516-1.836-.463-2.919-.563-2.914a2.6,2.6,0,0,0-.045.776,9.071,9.071,0,0,0,.282,2.215,11.951,11.951,0,0,0,4.62,6.851,13.258,13.258,0,0,0,5.488,2.37,13.823,13.823,0,0,0,6.909-.5,12.942,12.942,0,0,0,6.14-4.326,11.871,11.871,0,0,0,0-14.769,12.926,12.926,0,0,0-6.138-4.326,13.817,13.817,0,0,0-6.908-.5,13.228,13.228,0,0,0-5.488,2.37,11.955,11.955,0,0,0-4.622,6.851,9.071,9.071,0,0,0-.282,2.215A2.574,2.574,0,0,0,293.13,101.4Z" transform="translate(-33.297 17.446)"/>
        <path id="Path_1013" data-name="Path 1013" class="cls-14" d="M304.1,114.43c.165.016.358-2.348,1.336-6.022a44.144,44.144,0,0,1,2.219-6.3,49.265,49.265,0,0,1,3.989-7.187,50.408,50.408,0,0,1,5.276-6.4,47.86,47.86,0,0,1,5.148-4.509c3.136-2.356,5.33-3.493,5.247-3.629a6.942,6.942,0,0,0-1.589.712,17.279,17.279,0,0,0-1.776.994c-.67.42-1.461.865-2.254,1.464A42.2,42.2,0,0,0,316.344,88a46.7,46.7,0,0,0-5.425,6.478,45.275,45.275,0,0,0-4,7.344,39.024,39.024,0,0,0-2.078,6.453c-.248.931-.353,1.8-.482,2.548a15.6,15.6,0,0,0-.227,1.941A6.1,6.1,0,0,0,304.1,114.43Z" transform="translate(-59.814 12.48)"/>
        <path id="Path_1014" data-name="Path 1014" class="cls-14" d="M301.855,115.783c.165.016.365-2.387,1.36-6.125a45.37,45.37,0,0,1,2.254-6.41,50.584,50.584,0,0,1,4.04-7.321,51.738,51.738,0,0,1,5.342-6.533,49.078,49.078,0,0,1,5.211-4.613c3.174-2.416,5.395-3.589,5.311-3.725a7.138,7.138,0,0,0-1.609.738,17.816,17.816,0,0,0-1.8,1.024c-.678.432-1.478.891-2.281,1.505a43.212,43.212,0,0,0-5.418,4.553,47.911,47.911,0,0,0-5.488,6.608,46.615,46.615,0,0,0-4.052,7.479,40.162,40.162,0,0,0-2.109,6.562c-.253.947-.362,1.827-.493,2.592a16.271,16.271,0,0,0-.233,1.974A6.344,6.344,0,0,0,301.855,115.783Z" transform="translate(-54.126 12.867)"/>
        <path id="Path_1015" data-name="Path 1015" class="cls-11" d="M134.421,460.277c1.428-5.364-2.313-10.722-6.494-14.586s-9.172-7.319-11.366-12.445c-3.554-8.307,1.093-19.111-4.928-26.025-3.542-4.066-9.858-5.4-13.007-9.749-1.651-2.28-2.2-5.091-2.857-7.785a78.072,78.072,0,0,0-21.029-36.761,65.754,65.754,0,0,0,8.377,35.493c2.448,4.355,5.446,8.6,6.278,13.464,1.351,7.908-3.264,16.085-1.165,23.844,2.4,8.875,12.979,14.766,13.534,23.912.468,7.731-6.609,14.558-6.033,22.284.247,3.29,1.878,6.336,3.689,9.152,6.374,9.907,15.693,16.705,29.753,16.407l17.226.478Z" transform="translate(503.332 169.942)"/>
        <path id="Path_1016" data-name="Path 1016" d="M134.421,460.277c1.428-5.364-2.313-10.722-6.494-14.586s-9.172-7.319-11.366-12.445c-3.554-8.307,1.093-19.111-4.928-26.025-3.542-4.066-9.858-5.4-13.007-9.749-1.651-2.28-2.2-5.091-2.857-7.785a78.072,78.072,0,0,0-21.029-36.761,65.754,65.754,0,0,0,8.377,35.493c2.448,4.355,5.446,8.6,6.278,13.464,1.351,7.908-3.264,16.085-1.165,23.844,2.4,8.875,12.979,14.766,13.534,23.912.468,7.731-6.609,14.558-6.033,22.284.247,3.29,1.878,6.336,3.689,9.152,6.374,9.907,15.693,16.705,29.753,16.407l17.226.478Z" transform="translate(503.332 169.942)"/>
        <path id="Path_1017" data-name="Path 1017" class="cls-14" d="M45.941,519.145a14.5,14.5,0,0,0,4.742-.122,30.184,30.184,0,0,0,5.588-1.365,24.121,24.121,0,0,0,6.891-3.622,9.183,9.183,0,0,0,2.821-3.6,16.027,16.027,0,0,0,.781-4.878,44.882,44.882,0,0,1,.37-5.278,14.079,14.079,0,0,1,2.074-5.255c2.009-3.389,5.361-6.6,6.424-11.2,1.151-4.519.277-9.4-.555-14.294s-1.634-10.216.31-15.323c1.818-5.11,5.566-9.736,7.421-15.5,1.846-5.817.931-12.059,1.291-18.221a23.11,23.11,0,0,1,2.191-9.069c1.376-2.894,3.292-5.628,4.783-8.674,3.021-6.161,3.517-13.127,4.313-19.955q.58-5.161,1.173-10.429a48.479,48.479,0,0,1,1.851-10.44,89.313,89.313,0,0,1,4.059-10.116,32.365,32.365,0,0,0,1.968-5.282,50.271,50.271,0,0,0,.521-5.612,62.576,62.576,0,0,0-.525-11.287c-.491-3.761-1.231-7.488-1.681-11.257-.027-.222-.055-.446-.08-.65l-.095-.751-.7.338a26.273,26.273,0,0,0-9.227,7.46,39.347,39.347,0,0,0-5.636,9.971c-2.836,7.023-3.827,14.372-5.235,21.386-1.373,7.015-3.2,13.919-6.958,19.763-1.871,2.916-4.139,5.579-6.12,8.424a22.424,22.424,0,0,0-4.217,9.318c-.978,6.9,3.072,12.942,2.273,19.056a20.4,20.4,0,0,1-3.091,8.48c-1.548,2.614-3.372,5.041-5.1,7.48a47.348,47.348,0,0,0-4.578,7.548,22.817,22.817,0,0,0-2.066,8.188c-.388,5.5.468,10.714.073,15.643a34.608,34.608,0,0,1-4.17,13.427c-2.059,4.023-4.355,7.665-6.274,11.194a55.658,55.658,0,0,0-2.581,5.211,24.468,24.468,0,0,0-1.481,5.164,30.9,30.9,0,0,0-.072,9.31,22.811,22.811,0,0,0,5,11.844,11.473,11.473,0,0,0,1.4,1.422,6.755,6.755,0,0,0,1.136.9c.645.445.99.648.99.648a21.245,21.245,0,0,1-3.354-3.105,22.923,22.923,0,0,1-4.747-11.765,30.7,30.7,0,0,1,.165-9.176,24.211,24.211,0,0,1,1.493-5.043,56,56,0,0,1,2.6-5.142c1.936-3.5,4.257-7.125,6.359-11.174a35.183,35.183,0,0,0,4.317-13.665c.423-5.033-.408-10.265,0-15.637a22.026,22.026,0,0,1,2.029-7.912,46.543,46.543,0,0,1,4.525-7.4c1.729-2.422,3.574-4.856,5.167-7.526a21.3,21.3,0,0,0,3.234-8.829c.79-6.511-3.231-12.589-2.233-19.009a21.544,21.544,0,0,1,4.075-8.913c1.949-2.791,4.229-5.459,6.155-8.446,3.879-6.014,5.733-13.05,7.121-20.093,1.421-7.059,2.416-14.331,5.2-21.208a38.343,38.343,0,0,1,5.49-9.709,25.159,25.159,0,0,1,8.837-7.152l-.8-.412.082.656c.456,3.815,1.2,7.55,1.683,11.267a61.64,61.64,0,0,1,.523,11.115,50.247,50.247,0,0,1-.5,5.443,31.559,31.559,0,0,1-1.9,5.095,90.08,90.08,0,0,0-4.09,10.229A49.358,49.358,0,0,0,95.5,372.25q-.587,5.268-1.16,10.435c-.781,6.858-1.28,13.712-4.189,19.659-1.436,2.962-3.351,5.7-4.767,8.69a24,24,0,0,0-2.253,9.4c-.337,6.3.565,12.444-1.2,18.029-1.753,5.558-5.481,10.208-7.349,15.481-2,5.33-1.125,10.831-.273,15.7.861,4.905,1.724,9.681.641,14.023-.97,4.386-4.225,7.572-6.276,11.058a14.579,14.579,0,0,0-2.1,5.465,44.917,44.917,0,0,0-.33,5.341,15.764,15.764,0,0,1-.706,4.744,8.783,8.783,0,0,1-2.651,3.447,24.029,24.029,0,0,1-6.724,3.638,30.954,30.954,0,0,1-5.51,1.447,23.317,23.317,0,0,1-3.5.341C46.353,519.131,45.941,519.145,45.941,519.145Z" transform="translate(607.278 149.167)"/>
        <path id="Path_1018" data-name="Path 1018" class="cls-14" d="M93.853,323.147a1.863,1.863,0,0,0-.163.494c-.1.391-.222.874-.372,1.47-.33,1.286-.723,3.228-1.36,5.653-.661,2.419-2.208,5.162-3.522,8.539a117.574,117.574,0,0,0-4.025,11.59c-1.288,4.355-2.422,9.192-3.609,14.373-1.225,5.17-2.444,10.718-5.418,15.957-1.4,2.657-2.969,5.347-4.214,8.286a36.88,36.88,0,0,0-2.424,9.372,180.131,180.131,0,0,1-3.594,19.752c-3.374,13.384-6.586,26.131-9.512,37.738-3,11.568-5.7,21.992-7.977,30.78-2.216,8.708-4.015,15.782-5.285,20.773-.585,2.393-1.046,4.285-1.383,5.661-.135.6-.243,1.085-.332,1.478a1.773,1.773,0,0,0-.077.511,1.867,1.867,0,0,0,.185-.486c.118-.387.262-.865.44-1.453.385-1.363.915-3.239,1.584-5.614l5.625-20.691c2.344-8.772,5.123-19.179,8.209-30.727,2.954-11.611,6.2-24.36,9.6-37.747a177.82,177.82,0,0,0,3.587-19.832,35.931,35.931,0,0,1,2.333-9.146c1.2-2.865,2.747-5.541,4.144-8.226,3-5.339,4.227-11.054,5.4-16.2,1.148-5.194,2.234-10.016,3.467-14.362,1.216-4.35,2.541-8.225,3.849-11.579,1.246-3.364,2.742-6.139,3.361-8.638.583-2.486.9-4.408,1.161-5.718.107-.6.193-1.093.263-1.491A1.843,1.843,0,0,0,93.853,323.147Z" transform="translate(612.63 152.737)"/>
        <path id="Path_1019" data-name="Path 1019" class="cls-9" d="M127.276,537.877c11.211-6.393,14.325-25.63,9.563-37.173s-13.039-22.069-14.38-34.4c-1.03-9.478,2.191-19.226-.2-28.48-3.222-12.491-16.174-22.109-16.1-34.966.04-7.213,4.333-14.023,3.945-21.229-.476-8.835-7.684-15.811-12.167-23.573-6.863-11.882-7.394-25.971-9.8-39.322S80.274,291.1,67.728,284.6c-1.779,11.355-4.887,19.143-3.8,34.508.39,5.517,7.224,16.049,8.217,28.141.595,7.228,1.02,14.466,1.529,21.7.5,7.038,1.021,14.206,3.725,20.779,2.073,5.038,5.381,9.607,6.929,14.81,2.912,9.79-.773,20.43,1.591,30.351,2,8.406,8.2,15.617,9.505,24.144,1.838,11.981-6.283,24.485-2.019,35.9,2.116,5.664,7.073,10.2,8.507,16.047,1.113,4.542-.042,9.362.968,13.925,1.628,7.351,16.486,12.986,24.4,12.489" transform="translate(528.983 130.469)"/>
        <path id="Path_1020" data-name="Path 1020" class="cls-14" d="M70.736,291.732a2.851,2.851,0,0,0,.053.641c.068.476.155,1.09.265,1.863.268,1.636.573,4.041,1.176,7.149.646,3.125,2.369,6.639,3.755,10.878,1.461,4.225,2.919,9.1,4.214,14.564,1.316,5.459,2.427,11.5,3.594,18.008,1.2,6.456,2.437,13.591,5.888,20.351,1.6,3.4,3.39,6.8,4.74,10.419a44.8,44.8,0,0,1,2.442,11.5,220.544,220.544,0,0,0,3.447,24.8c3.547,16.792,6.924,32.787,10,47.345,3.236,14.5,6.151,27.563,8.605,38.56,2.476,10.916,4.487,19.774,5.893,25.978.708,3.009,1.263,5.371,1.658,7.052.19.757.342,1.36.458,1.827a2.9,2.9,0,0,0,.193.617,2.617,2.617,0,0,0-.082-.638c-.09-.473-.2-1.084-.352-1.851-.347-1.69-.833-4.066-1.453-7.092-1.326-6.219-3.219-15.1-5.551-26.045-2.388-11.009-5.223-24.089-8.372-38.606-3.046-14.555-6.393-30.543-9.907-47.331A223.219,223.219,0,0,1,97.942,387a45.49,45.49,0,0,0-2.524-11.729c-1.391-3.7-3.207-7.114-4.8-10.483-3.43-6.66-4.663-13.627-5.916-20.107-1.2-6.492-2.363-12.553-3.734-18.023a146.773,146.773,0,0,0-4.388-14.585c-1.454-4.254-3.231-7.736-3.924-10.781-.66-3.051-1.04-5.479-1.376-7.1-.155-.765-.278-1.374-.373-1.846A2.686,2.686,0,0,0,70.736,291.732Z" transform="translate(529.142 134.588)"/>
        <rect id="Rectangle_163" data-name="Rectangle 163" class="cls-9" width="11.612" height="35.526" transform="translate(91.947 420.051)"/>
        <rect id="Rectangle_164" data-name="Rectangle 164" class="cls-9" width="11.612" height="50.147" transform="translate(70.571 405.43)"/>
        <rect id="Rectangle_165" data-name="Rectangle 165" class="cls-9" width="11.612" height="56.975" transform="translate(47.822 398.602)"/>
        <rect id="Rectangle_166" data-name="Rectangle 166" class="cls-9" width="11.612" height="64.178" transform="translate(25.073 391.399)"/>
        <path id="Path_1021" data-name="Path 1021" class="cls-14" d="M168.124,317.1a8.323,8.323,0,0,0-2.5.74,10.265,10.265,0,0,0-4.973,4.768,9.633,9.633,0,0,0-1.016,4.605,10.062,10.062,0,0,0,3.7,7.4,10.322,10.322,0,0,0,2.746,1.649,11.416,11.416,0,0,0,6.723.628,10.986,10.986,0,0,0,5.8-3.286,9.629,9.629,0,0,0,1.739-2.6,9.292,9.292,0,0,0,.828-2.845,9.758,9.758,0,0,0-.816-5.345,10.173,10.173,0,0,0-3-3.753,10.9,10.9,0,0,0-6.648-2.3,8.445,8.445,0,0,0-2.591.341c.012.071.923-.174,2.584-.117a10.873,10.873,0,0,1,6.378,2.386A9.826,9.826,0,0,1,179.9,323a9.343,9.343,0,0,1,.723,5.09,8.77,8.77,0,0,1-.8,2.69,9.12,9.12,0,0,1-1.656,2.455,10.458,10.458,0,0,1-5.483,3.1,10.851,10.851,0,0,1-6.351-.584,9.7,9.7,0,0,1-2.6-1.549,9.3,9.3,0,0,1-1.939-2.108,9.438,9.438,0,0,1-1.641-4.894,9.319,9.319,0,0,1,.9-4.419,10.236,10.236,0,0,1,4.692-4.736C167.211,317.313,168.146,317.166,168.124,317.1Z" transform="translate(326.88 149.045)"/>
        <path id="Path_1022" data-name="Path 1022" class="cls-14" d="M166.565,313.061a2.166,2.166,0,0,0,.023-.352c.005-.262.015-.612.025-1.065.015-.978.035-2.386.062-4.214l-.075.088,9.615-1.986-.173-.079,2.529,5.095.045.092.108,0a25.3,25.3,0,0,1,6.268,1.054l.115.035.085-.08c1.318-1.235,2.744-2.573,4.229-3.963l-.268.027,8.3,5.006-.1-.267c-.62,1.641-1.3,3.449-2.006,5.3l-.05.136.1.1a22.8,22.8,0,0,1,3.647,4.921l.072.133.16,0c1.843,0,3.875.013,5.945.019l-.263-.2c.673,2.856,1.4,5.937,2.143,9.1l.153-.3-5.371,2.411-.158.069-.007.166a21.628,21.628,0,0,1-1.093,5.912l-.053.161.127.12,4.194,3.993-.04-.349-5.27,7.87.355-.115-5.6-1.892-.173-.057-.135.117a23.857,23.857,0,0,1-5.173,3.452l0,0v0c-.073.114.162-.254-.165.254v.172l0,.177v.355l0,.708,0,1.41q0,1.41-.005,2.808l.237-.279-9.6,2.042.337.155-2.553-5.085-.078-.153-.178-.006a25.066,25.066,0,0,1-6.245-1.026l-.17-.05-.127.118q-2.137,2.019-4.212,3.978l.358-.038-8.317-4.979.113.312q1.012-2.7,1.988-5.309l.057-.148-.113-.114a22.694,22.694,0,0,1-3.662-4.905l-.073-.134h-.158l-5.945,0,.245.186c-.765-3.2-1.488-6.215-2.174-9.089l-.127.248,5.365-2.428.118-.054.005-.125a21.634,21.634,0,0,1,1.075-5.937l.035-.109-.085-.08c-1.529-1.447-2.907-2.748-4.21-3.979l.025.211,5.23-7.9-.16.052,5.615,1.855.057.019.043-.038a24.961,24.961,0,0,1,3.819-2.786l1.023-.584a2.782,2.782,0,0,0,.337-.2,2.621,2.621,0,0,0-.362.155c-.235.114-.59.287-1.05.544a23.351,23.351,0,0,0-3.9,2.731l.1-.019-5.591-1.923-.1-.035-.058.087-5.3,7.851-.077.114.1.1,4.182,4-.048-.189a21.926,21.926,0,0,0-1.13,6.035l.125-.178-5.378,2.4-.167.076.04.17c.675,2.876,1.385,5.9,2.136,9.1l.043.186h.2c1.931.008,3.907.016,5.945.022l-.232-.133a23.181,23.181,0,0,0,3.729,5.027l-.057-.26q-.982,2.6-2,5.3l-.075.2.188.114,8.307,5,.193.117.165-.155,4.219-3.97-.295.068a25.694,25.694,0,0,0,6.4,1.057l-.257-.161q1.26,2.52,2.547,5.088l.1.205.235-.05,9.6-2.037.237-.049v-.23l.007-2.807,0-1.412,0-.707v-.622l0-.044v-.038c-.327.507-.09.14-.163.253h0l0,0a24.5,24.5,0,0,0,5.3-3.54l-.307.06,5.6,1.887.227.077.128-.192,5.263-7.875.127-.191-.167-.158-4.2-3.99.072.279a22.121,22.121,0,0,0,1.108-6.057l-.163.235c1.859-.839,3.7-1.668,5.368-2.42l.2-.093-.05-.207c-.751-3.157-1.484-6.235-2.166-9.091l-.047-.2h-.215l-5.946,0,.232.133a23.184,23.184,0,0,0-3.744-5.014l.052.241c.693-1.857,1.371-3.667,1.984-5.311l.063-.17-.16-.1-8.324-4.97-.147-.087-.122.115c-1.476,1.4-2.894,2.744-4.2,3.985l.2-.046a25.566,25.566,0,0,0-6.374-1.03l.153.1-2.571-5.076-.053-.106-.12.025-9.588,2.092-.077.017v.073c.018,1.811.032,3.208.042,4.176.008.459.015.814.02,1.079A2.656,2.656,0,0,0,166.565,313.061Z" transform="translate(319.974 142.382)"/>
        <path id="Path_1023" data-name="Path 1023" class="cls-16" d="M154.966,268.436a26.76,26.76,0,0,0-5.8,3.867l-6.195-2.089-5.821,8.7,4.638,4.413a24.042,24.042,0,0,0-1.216,6.619l-5.938,2.669,2.381,10.052,6.573.014a25.224,25.224,0,0,0,4.087,5.491l-2.206,5.868,9.188,5.513,4.66-4.392a28.009,28.009,0,0,0,6.989,1.15l2.819,5.623,10.616-2.255.013-6.224a26.627,26.627,0,0,0,5.8-3.869l6.2,2.089,5.823-8.7-4.642-4.413a24.094,24.094,0,0,0,1.218-6.617l5.936-2.67-2.381-10.053-6.573-.014a25.254,25.254,0,0,0-4.085-5.491l2.206-5.866-9.19-5.514-4.66,4.394a28,28,0,0,0-6.988-1.152l-2.819-5.623-10.616,2.255-.015,6.226Zm9.36,11.828c6.288-1.336,12.531,2.409,13.942,8.365s-2.544,11.868-8.834,13.2-12.531-2.409-13.942-8.364S158.036,281.6,164.326,280.265Z" transform="translate(349.704 116.229)"/>
        <path id="Path_1024" data-name="Path 1024" class="cls-17" d="M154.966,268.436a26.76,26.76,0,0,0-5.8,3.867l-6.195-2.089-5.821,8.7,4.638,4.413a24.042,24.042,0,0,0-1.216,6.619l-5.938,2.669,2.381,10.052,6.573.014a25.224,25.224,0,0,0,4.087,5.491l-2.206,5.868,9.188,5.513,4.66-4.392a28.009,28.009,0,0,0,6.989,1.15l2.819,5.623,10.616-2.255.013-6.224a26.627,26.627,0,0,0,5.8-3.869l6.2,2.089,5.823-8.7-4.642-4.413a24.094,24.094,0,0,0,1.218-6.617l5.936-2.67-2.381-10.053-6.573-.014a25.254,25.254,0,0,0-4.085-5.491l2.206-5.866-9.19-5.514-4.66,4.394a28,28,0,0,0-6.988-1.152l-2.819-5.623-10.616,2.255-.015,6.226Zm9.36,11.828c6.288-1.336,12.531,2.409,13.942,8.365s-2.544,11.868-8.834,13.2-12.531-2.409-13.942-8.364S158.036,281.6,164.326,280.265Z" transform="translate(349.704 116.229)"/>
        <path id="Path_1025" data-name="Path 1025" class="cls-16" d="M134.747,304.672a15.606,15.606,0,0,0-3.375,2.251l-3.605-1.215-3.389,5.066,2.7,2.569a14,14,0,0,0-.71,3.851l-3.455,1.556L124.3,324.6l3.827.008a14.686,14.686,0,0,0,2.378,3.2l-1.285,3.414,5.35,3.211,2.712-2.557a16.337,16.337,0,0,0,4.069.671l1.641,3.272,6.181-1.313.007-3.623a15.514,15.514,0,0,0,3.376-2.253l3.607,1.216,3.389-5.066-2.7-2.569a14.01,14.01,0,0,0,.708-3.853l3.455-1.554-1.385-5.852-3.827-.008a14.685,14.685,0,0,0-2.378-3.2l1.283-3.416-5.348-3.209-2.714,2.558a16.315,16.315,0,0,0-4.067-.671l-1.643-3.272-6.178,1.313-.01,3.623Zm5.448,6.887a6.81,6.81,0,0,1,8.117,4.869,6.437,6.437,0,0,1-5.143,7.687,6.808,6.808,0,0,1-8.116-4.87A6.437,6.437,0,0,1,140.2,311.559Z" transform="translate(408.309 139.212)"/>
        <path id="Path_1026" data-name="Path 1026" class="cls-17" d="M134.747,304.672a15.606,15.606,0,0,0-3.375,2.251l-3.605-1.215-3.389,5.066,2.7,2.569a14,14,0,0,0-.71,3.851l-3.455,1.556L124.3,324.6l3.827.008a14.686,14.686,0,0,0,2.378,3.2l-1.285,3.414,5.35,3.211,2.712-2.557a16.337,16.337,0,0,0,4.069.671l1.641,3.272,6.181-1.313.007-3.623a15.514,15.514,0,0,0,3.376-2.253l3.607,1.216,3.389-5.066-2.7-2.569a14.01,14.01,0,0,0,.708-3.853l3.455-1.554-1.385-5.852-3.827-.008a14.685,14.685,0,0,0-2.378-3.2l1.283-3.416-5.348-3.209-2.714,2.558a16.315,16.315,0,0,0-4.067-.671l-1.643-3.272-6.178,1.313-.01,3.623Zm5.448,6.887a6.81,6.81,0,0,1,8.117,4.869,6.437,6.437,0,0,1-5.143,7.687,6.808,6.808,0,0,1-8.116-4.87A6.437,6.437,0,0,1,140.2,311.559Z" transform="translate(408.309 139.212)"/>
        <path id="Path_1027" data-name="Path 1027" class="cls-14" d="M374.111,292.807c-7.013-1.725-12.221-8.528-11.769-15.375.2-3.088,1.416-6.092,1.276-9.182-.217-4.8-3.579-8.853-6.108-13.013s-4.227-9.649-1.278-13.556c1.913-2.534,5.29-3.676,7.606-5.887,2.268-2.165,3.344-5.164,4.558-7.987s2.789-5.737,5.586-7.245,7.087-.838,8.224,2.015" transform="translate(-199.018 93.017)"/>
        <path id="Path_1028" data-name="Path 1028" class="cls-14" d="M302.039,225.575c-4.99-3-6.2-9.96-3.49-14.938s8.444-8,14.28-8.892a28.162,28.162,0,0,1,23.442,7.355c3.221,3.141,5.83,7.239,10.2,8.678,3.84,1.265,8.087.123,12.117.618,5.4.663,10.035,4.3,12.806,8.744s3.914,9.623,4.553,14.747c.588,4.7.976,9.864,4.422,13.3,3.359,3.348,8.667,4.056,12.846,6.437,7.861,4.481,10.408,15.577,5.222,22.743-1.654,2.285-4.029,4.38-4.22,7.144-.175,2.524,1.548,4.771,2.354,7.182,2.078,6.207-3.289,13.583-10.153,13.955-3.465.189-7.179-1.09-10.286.377-3.086,1.458-4.234,4.981-6.208,7.658-3.882,5.268-12,7.254-18.094,4.426-2.549-1.183-4.957-3.138-7.789-2.957s-5.053,2.466-7.834,2.976c-3.642.667-7.1-1.873-9.265-4.725s-3.675-6.212-6.446-8.545c-3.629-3.056-8.727-3.812-13.319-5.309a37.3,37.3,0,0,1-22.612-20.337,34.347,34.347,0,0,1,1.4-29.5" transform="translate(-96.68 82.42)"/>
        <g id="Group_1698" data-name="Group 1698" transform="translate(187.274 303.893)">
          <g id="Group_1697" data-name="Group 1697" transform="translate(0 0)">
            <g id="Group_1696" data-name="Group 1696">
              <g id="Group_1695" data-name="Group 1695">
                <g id="Group_1694" data-name="Group 1694">
                  <g id="Group_1693" data-name="Group 1693">
                    <path id="Path_1029" data-name="Path 1029" class="cls-18" d="M315,224.445a7.71,7.71,0,0,0-7.121,7.677h0l4.76,102.036c.2,12.051,18.8,18.823,32.425,18.523h0c13.759-.3,14.2-6.693,14.375-18.158.287-19.154.263-26.344.27-26.235,0,0,17.381-2.771,20.933-24.259,1.766-10.686,1.158-28.2.172-42.515-.886-12.885-9.94-28.679-23.5-27.292Z" transform="translate(-307.873 -214.136)"/>
                  </g>
                </g>
              </g>
            </g>
          </g>
        </g>
        <g id="Group_1739" data-name="Group 1739" transform="translate(208.71 390.434)">
          <g id="Group_1738" data-name="Group 1738" transform="translate(0)">
            <g id="Group_1737" data-name="Group 1737">
              <g id="Group_1736" data-name="Group 1736">
                <g id="Group_1735" data-name="Group 1735">
                  <g id="Group_1734" data-name="Group 1734">
                    <path id="Path_1035" data-name="Path 1035" class="cls-19" d="M351.508,276.6a60.357,60.357,0,0,1-30.4-7.611s7.7,15.145,30.4,13.087Z" transform="translate(-321.112 -268.987)"/>
                  </g>
                </g>
              </g>
            </g>
          </g>
        </g>
        <path id="Path_1040" data-name="Path 1040" class="cls-14" d="M379.1,217.654c-5.2-3.312-11.928-4.836-17.98-3.189s-11.066,6.81-11.271,12.647c-.132,3.794,1.6,7.829-.18,11.251-1.693,3.256-5.863,4.582-8.82,6.94a12.35,12.35,0,0,0-3.134,15.5c2.476,4.306,7.684,7.463,8.121,12.324.411,4.574-3.66,8.433-4.65,12.931-1.095,4.96,1.806,10.093,5.963,13.384s9.407,5.1,14.54,6.854c4,1.365,8.292,2.75,12.449,1.857a12.307,12.307,0,0,0,9.33-10.075c.68-4.664-1.35-9.448-4.723-12.967-2.914-3.037-7-5.62-7.7-9.631-1.091-6.246,6.769-11.38,6.285-17.691-.25-3.255-2.674-5.95-4.692-8.625s-3.777-6.043-2.539-9.1c1.609-3.971,7.121-5.006,10.451-7.919a9.307,9.307,0,0,0,2.782-9.769,10.357,10.357,0,0,0-8.224-6.639" transform="translate(-169.815 89.561)"/>
        <path id="Path_1041" data-name="Path 1041" class="cls-14" d="M300.289,215.463a14.6,14.6,0,0,0,5.558,11.325,16.391,16.391,0,0,0,12.752,3.187c3.465-.6,7.262-2.259,10.263-.51,3.156,1.838,3.285,6.343,6.085,8.643,4,3.286,10.356.2,15.433,1.628,3.92,1.1,6.369,4.65,8.973,7.635s6.506,5.824,10.426,4.722a41.423,41.423,0,0,0-1.556-9.905,14.67,14.67,0,0,0-5.94-8.07c-1.621-1-3.507-1.611-5.013-2.763-3.254-2.488-4.009-6.817-6.018-10.292a17.07,17.07,0,0,0-12.957-8.14c-4.462-.432-9.06.836-13.41-.2-3.216-.767-6.023-2.744-9.282-3.329-6.343-1.142-12.241,3.168-16.839,7.461" transform="translate(-93.442 86.909)"/>
        <path id="Path_1042" data-name="Path 1042" class="cls-20" d="M343.006,262.789a4.463,4.463,0,0,1-.5-2.477,6.335,6.335,0,0,1,4.567-4.942,35.225,35.225,0,0,1,4.987-1.272,15.058,15.058,0,0,0,5.648-2.2,7.4,7.4,0,0,0,2.939-5.746,57.441,57.441,0,0,0-.35-6.764,14.65,14.65,0,0,1,.178-3.305,6.885,6.885,0,0,1,1.338-2.819c1.363-1.609,3.5-2.326,5.461-2.968a25.328,25.328,0,0,0,5.561-2.27,19.066,19.066,0,0,0,4.1-3.171,17.974,17.974,0,0,0,4.005-6.12,12.031,12.031,0,0,0,.581-1.881,2.018,2.018,0,0,0,.1-.677c-.078-.02-.3.9-1,2.439a19.067,19.067,0,0,1-4.137,5.836,20.76,20.76,0,0,1-9.472,5.126c-1.969.634-4.279,1.344-5.868,3.179a7.631,7.631,0,0,0-1.523,3.168,15.225,15.225,0,0,0-.2,3.5,60.522,60.522,0,0,1,.368,6.671,6.649,6.649,0,0,1-2.582,5.2,14.547,14.547,0,0,1-5.323,2.138,33.936,33.936,0,0,0-5.055,1.4,7.938,7.938,0,0,0-3.515,2.5,5.531,5.531,0,0,0-1.153,2.952,3.584,3.584,0,0,0,.41,1.947A1.527,1.527,0,0,0,343.006,262.789Z" transform="translate(-177.592 90.934)"/>
        <path id="Path_1043" data-name="Path 1043" class="cls-20" d="M376.457,283.071a1.476,1.476,0,0,0,.372-.166,2.457,2.457,0,0,0,.851-.812,4.143,4.143,0,0,0-.463-4.243,5.833,5.833,0,0,0-2.429-2.2,32.244,32.244,0,0,0-3.647-1.458,11.433,11.433,0,0,1-3.815-2.048,7.591,7.591,0,0,1-2.179-4.074c-.383-1.614-.495-3.375-.8-5.208a11.091,11.091,0,0,0-2.251-5.415c-2.642-3.3-6.971-5.049-10.2-8.14a14.737,14.737,0,0,1-3.544-5.689,37.39,37.39,0,0,1-1.6-6.879c-.7-4.719-1.408-10.008-4.763-14.326a11.124,11.124,0,0,0-6.844-4.187,25.334,25.334,0,0,0-7.9.188,30.262,30.262,0,0,1-7.381.409,9.8,9.8,0,0,1-6.031-2.949c-3.1-3.162-4.875-7.42-8.68-9.6a15.2,15.2,0,0,0-11.459-1.5,12.613,12.613,0,0,0-7.544,5.552,12.981,12.981,0,0,0-1.959,6.625,11.08,11.08,0,0,0,.725,4.3,7.041,7.041,0,0,0,.67,1.377c.043-.019-.2-.489-.5-1.429a11.6,11.6,0,0,1-.553-4.236,12.838,12.838,0,0,1,2.038-6.4,12.157,12.157,0,0,1,7.292-5.229,14.573,14.573,0,0,1,10.91,1.51,15.523,15.523,0,0,1,4.377,4.279,48.106,48.106,0,0,0,4.109,5.266,10.486,10.486,0,0,0,6.5,3.206,30.894,30.894,0,0,0,7.6-.39,24.682,24.682,0,0,1,7.616-.183,10.251,10.251,0,0,1,6.319,3.881,19.392,19.392,0,0,1,3.242,6.734,63.059,63.059,0,0,1,1.375,7.218,37.852,37.852,0,0,0,1.661,7.013,15.471,15.471,0,0,0,3.755,5.964c3.42,3.209,7.707,4.923,10.2,8.023a10.455,10.455,0,0,1,2.163,5.106c.322,1.789.452,3.563.866,5.233a8.122,8.122,0,0,0,2.4,4.325,11.876,11.876,0,0,0,4.024,2.1A32.811,32.811,0,0,1,374.594,276a5.547,5.547,0,0,1,2.334,2.021,4.019,4.019,0,0,1,.6,4A3.6,3.6,0,0,1,376.457,283.071Z" transform="translate(-77.428 84.058)"/>
        <path id="Path_1044" data-name="Path 1044" class="cls-11" d="M361.231,377.331l-40.239-3.493S296.228,312.076,265.7,297.1l-19.773,32.708,42.327,75.314H370.9Z" transform="translate(-6.537 137.688)"/>
        <path id="Path_1045" data-name="Path 1045" class="cls-9" d="M361.231,377.331l-40.239-3.493S296.228,312.076,265.7,297.1l-19.773,32.708,42.327,75.314H370.9Z" transform="translate(-6.537 137.688)"/>
        <path id="Path_1046" data-name="Path 1046" class="cls-15" d="M268.813,363.373c.2-.117-1.313-2.879-3.39-6.172s-3.93-5.866-4.137-5.749,1.313,2.878,3.392,6.172S268.608,363.49,268.813,363.373Z" transform="translate(69.982 169.088)"/>
        <path id="Path_1047" data-name="Path 1047" class="cls-15" d="M272.9,362.484c.187.142,2.389-2.158,4.917-5.136s4.427-5.509,4.24-5.651-2.387,2.157-4.917,5.137S272.711,362.342,272.9,362.484Z" transform="translate(37.388 169.229)"/>
        <path id="Path_1048" data-name="Path 1048" class="cls-15" d="M281.533,353.214c.24,0,.433-2.237.433-5s-.193-5-.433-5-.433,2.236-.433,5S281.293,353.214,281.533,353.214Z" transform="translate(23.802 164.336)"/>
        <path id="Path_1049" data-name="Path 1049" class="cls-15" d="M268.53,365.2c.132.189,1.854-.656,3.847-1.892s3.5-2.389,3.372-2.578-1.853.656-3.847,1.892S268.4,365.012,268.53,365.2Z" transform="translate(50.967 174.436)"/>
        <path id="Path_1050" data-name="Path 1050" class="cls-15" d="M282.925,327.571c-.218.093,1.026,3.174,2.779,6.88s3.354,6.639,3.572,6.546-1.026-3.173-2.781-6.882S283.143,327.478,282.925,327.571Z" transform="translate(13.469 155.292)"/>
        <path id="Path_1051" data-name="Path 1051" class="cls-15" d="M292.349,311.715c-.145.181,1.294,1.444,3.212,2.821s3.592,2.348,3.737,2.166-1.293-1.444-3.212-2.821S292.494,311.535,292.349,311.715Z" transform="translate(-12.264 146.12)"/>
        <path id="Path_1052" data-name="Path 1052" class="cls-10" d="M409.583,399.046l-20.751-79.371c-3.614-13.819-17.937-22.609-32.734-20.083h0c-15.23,2.6-25.49,16.229-23.117,30.709l12.706,77.574c3.122,16.254,16.768,28.855,34,31.4l16.5,2.438Z" transform="translate(-189.686 138.879)"/>
        <path id="Path_1053" data-name="Path 1053" class="cls-14" d="M347.128,297.892a19.065,19.065,0,0,1,7.4-3.523,20.812,20.812,0,0,1,8.932.058,24.735,24.735,0,0,1,9.71,4.795c6.083,4.828,9.392,11.1,11.641,15.495,1.111,2.233,1.958,4.067,2.562,5.328a10.76,10.76,0,0,0,1.013,1.93,10.254,10.254,0,0,0-.7-2.051c-.508-1.3-1.27-3.171-2.316-5.448a57.9,57.9,0,0,0-4.267-7.745,35.04,35.04,0,0,0-7.377-8.141,24.947,24.947,0,0,0-10.083-4.9,20.823,20.823,0,0,0-9.26.115,16.134,16.134,0,0,0-5.623,2.572,10.433,10.433,0,0,0-1.26,1.079C347.234,297.723,347.106,297.872,347.128,297.892Z" transform="translate(-192.631 135.45)"/>
        <path id="Path_1054" data-name="Path 1054" class="cls-14" d="M284.948,307.5a3.817,3.817,0,0,0,.58.737l1.776,2.013c1.534,1.75,3.727,4.309,6.226,7.614,4.96,6.571,11.211,16.386,14.168,28.483,2.894,12.1,3.037,23.437,3.529,31.555.207,4.071.408,7.365.593,9.638.1,1.063.18,1.928.245,2.616a3.714,3.714,0,0,0,.145.909,3.59,3.59,0,0,0,.028-.918c-.02-.689-.048-1.559-.082-2.624-.078-2.389-.187-5.656-.317-9.645-.337-8.117-.375-19.493-3.3-31.716-3-12.257-9.405-22.123-14.518-28.641-2.576-3.279-4.848-5.79-6.466-7.482-.8-.852-1.463-1.481-1.9-1.915A4.031,4.031,0,0,0,284.948,307.5Z" transform="translate(-12.882 143.699)"/>
        <path id="Path_1055" data-name="Path 1055" class="cls-10" d="M284.572,325.505c2.276-14.192,10.555-17.6,19.127-22.019,2.8-1.444,16.316-4.728,27.029-7.2,1.023-6.148,2.857-17.15,3.26-19.474.565-3.263,54.574,4.9,55.257,6.12.455.811,1.7,13.556,2.484,22.051l12.93,4.28,16.878,20.32,8.784,11.813A62.115,62.115,0,0,1,441.2,364.07c2.128,9.048,2.421,17.874,2.421,27.484l2.609,52.107-113,30.26-8.749-52.783-29.153-37.58C292.836,368.358,281.771,342.957,284.572,325.505Z" transform="translate(-145.494 125.525)"/>
        <path id="Path_1056" data-name="Path 1056" class="cls-14" d="M321.63,304.429a15.8,15.8,0,0,0,.751-3.615c.353-2.247.783-5.355,1.2-8.794q.292-2.553.56-4.853a32.316,32.316,0,0,0,.3-4.012,4.634,4.634,0,0,0-.8-2.666c-.436-.536-.81-.682-.833-.647-.048.054.242.287.546.817a4.9,4.9,0,0,1,.478,2.5c-.03,1.093-.29,2.428-.48,3.921-.2,1.527-.408,3.146-.628,4.845-.42,3.439-.753,6.559-.951,8.821A15.588,15.588,0,0,0,321.63,304.429Z" transform="translate(-86.108 127.715)"/>
        <path id="Path_1057" data-name="Path 1057" class="cls-14" d="M330.161,302a11.961,11.961,0,0,0,1.2-3.309A50.258,50.258,0,0,0,333,281.93a11.857,11.857,0,0,0-.541-3.462c-.268.02.222,5.326-.431,11.827C331.409,296.8,329.9,301.929,330.161,302Z" transform="translate(-109.047 126.924)"/>
        <path id="Path_1058" data-name="Path 1058" class="cls-14" d="M346.489,299.445c.287-.028-.911-5.331.308-11.768,1.14-6.453,4.152-11.065,3.892-11.181a10.615,10.615,0,0,0-1.979,2.969,28.711,28.711,0,0,0-2.769,8.072,28.335,28.335,0,0,0-.262,8.48A10.17,10.17,0,0,0,346.489,299.445Z" transform="translate(-152.191 125.784)"/>
        <path id="Path_1059" data-name="Path 1059" class="cls-15" d="M311.861,325.039c.2-.12-1.674-3.163-4.425-6.63s-5.306-6.025-5.485-5.88,2.064,2.925,4.79,6.373S311.656,325.167,311.861,325.039Z" transform="translate(-40.828 146.6)"/>
        <path id="Path_1060" data-name="Path 1060" class="cls-15" d="M312.252,311.8c.192.139,2.2-2.051,4.493-4.889s3.994-5.252,3.8-5.39-2.2,2.051-4.493,4.891S312.062,311.659,312.252,311.8Z" transform="translate(-66.672 140.237)"/>
        <path id="Path_1061" data-name="Path 1061" class="cls-15" d="M326.694,300.226c-.157.18,2.339,2.34,5.315,5.091s5.326,5.054,5.515,4.9-1.894-2.714-4.908-5.489S326.839,300.054,326.694,300.226Z" transform="translate(-107.716 139.489)"/>
        <path id="Path_1062" data-name="Path 1062" class="cls-15" d="M324.076,293.137c.162.167,2.021-1.18,4.154-3.009s3.734-3.449,3.572-3.618-2.021,1.179-4.154,3.009S323.916,292.968,324.076,293.137Z" transform="translate(-97.628 131.563)"/>
        <path id="Path_1063" data-name="Path 1063" class="cls-15" d="M335.857,283.268c-.05.221,2.461.918,5.608,1.557s5.74.975,5.79.754-2.461-.92-5.608-1.559S335.907,283.046,335.857,283.268Z" transform="translate(-132.715 129.658)"/>
        <path id="Path_1064" data-name="Path 1064" class="cls-15" d="M345.234,309.434c.24.011.566-2.452.728-5.5s.1-5.532-.138-5.543-.565,2.45-.728,5.5S345,309.423,345.234,309.434Z" transform="translate(-146.755 138.435)"/>
        <path id="Path_1065" data-name="Path 1065" class="cls-15" d="M337.4,320.819c.225.077,1.531-2.78,2.917-6.38s2.329-6.585,2.1-6.664-1.531,2.78-2.917,6.382S337.169,320.742,337.4,320.819Z" transform="translate(-130.417 143.855)"/>
        <path id="Path_1066" data-name="Path 1066" class="cls-15" d="M323.189,328.551c.223.082,1.658-2.909,3.206-6.679s2.621-6.895,2.4-6.977-1.659,2.908-3.207,6.679S322.966,328.469,323.189,328.551Z" transform="translate(-93.127 147.969)"/>
        <path id="Path_1067" data-name="Path 1067" class="cls-15" d="M311.784,336.963c.235.046,1.073-2.914,1.873-6.611s1.256-6.731,1.021-6.776-1.073,2.914-1.871,6.611S311.549,336.918,311.784,336.963Z" transform="translate(-59.99 152.985)"/>
        <path id="Path_1068" data-name="Path 1068" class="cls-15" d="M294.289,336.816c.215.1,1.778-2.52,3.49-5.847s2.926-6.107,2.711-6.207-1.779,2.518-3.49,5.847S294.074,336.717,294.289,336.816Z" transform="translate(-16.678 153.669)"/>
        <path id="Path_1069" data-name="Path 1069" class="cls-15" d="M289.315,342.343c-.107.2,2.924,1.825,6.766,3.624s7.046,3.089,7.151,2.886-2.922-1.825-6.766-3.622S289.422,342.139,289.315,342.343Z" transform="translate(-11.148 163.815)"/>
        <path id="Path_1070" data-name="Path 1070" class="cls-15" d="M295.853,362.388c.217.079,1.428-2.447,2.353-5.743s1.21-6.057.98-6.09-.9,2.627-1.819,5.879S295.622,362.306,295.853,362.388Z" transform="translate(-18.008 168.572)"/>
        <path id="Path_1071" data-name="Path 1071" class="cls-15" d="M288.479,372.367c.163.167,2.6-1.693,5.44-4.156s5.017-4.6,4.855-4.765-2.6,1.695-5.44,4.157S288.318,372.2,288.479,372.367Z" transform="translate(-5.294 176.014)"/>
        <path id="Path_1072" data-name="Path 1072" class="cls-15" d="M305.322,361.576c-.063.235,3.762,1.27,8.227,3.135,4.477,1.844,7.874,3.807,8.014,3.6.13-.17-3.107-2.475-7.666-4.355C309.351,362.06,305.366,361.369,305.322,361.576Z" transform="translate(-56.154 174.919)"/>
        <path id="Path_1073" data-name="Path 1073" class="cls-15" d="M306.672,360.143c.225.076,1.321-2.343,2.446-5.4s1.853-5.6,1.628-5.674-1.323,2.344-2.447,5.4S306.445,360.069,306.672,360.143Z" transform="translate(-47.554 167.712)"/>
        <path id="Path_1074" data-name="Path 1074" class="cls-15" d="M315.3,342.569c-.2.121,1.839,3.534,4.562,7.624s5.093,7.307,5.295,7.185-1.839-3.534-4.562-7.624S315.507,342.448,315.3,342.569Z" transform="translate(-76.368 163.956)"/>
        <path id="Path_1075" data-name="Path 1075" class="cls-15" d="M328.461,349.418c.182.133,2.871-2.946,5.536-7.165s4.277-7.911,4.069-8c-.227-.1-2.163,3.4-4.813,7.576S328.26,349.276,328.461,349.418Z" transform="translate(-111.203 159.154)"/>
        <path id="Path_1076" data-name="Path 1076" class="cls-15" d="M334.359,331.053c-.047.213,2.772.906,6.343,1.067s6.446-.249,6.423-.467c-.02-.235-2.876-.181-6.381-.353S334.4,330.821,334.359,331.053Z" transform="translate(-130.09 157.258)"/>
        <path id="Path_1077" data-name="Path 1077" class="cls-15" d="M350.5,316.4c-.1.205,3.554,2.059,8.167,4.14s8.435,3.6,8.539,3.4-3.552-2.059-8.165-4.14S350.606,316.2,350.5,316.4Z" transform="translate(-177.069 148.828)"/>
        <path id="Path_1078" data-name="Path 1078" class="cls-15" d="M368.388,311.718c.215-.1-1.093-3.013-2.921-6.5s-3.484-6.24-3.7-6.139,1.093,3.012,2.922,6.5S368.173,311.819,368.388,311.718Z" transform="translate(-197.006 138.829)"/>
        <path id="Path_1079" data-name="Path 1079" class="cls-15" d="M370.689,319.678c.24.052,1.213-3.2,2.531-7.177s2.469-7.179,2.241-7.266-1.748,3.006-3.069,7.019S370.461,319.631,370.689,319.678Z" transform="translate(-218.905 142.388)"/>
        <path id="Path_1080" data-name="Path 1080" class="cls-15" d="M366.359,324.082c-.082.2,3.134,1.523,7.311,2.531s7.662,1.327,7.7,1.111c.038-.232-3.354-.9-7.481-1.907S366.444,323.861,366.359,324.082Z" transform="translate(-217.644 153.259)"/>
        <path id="Path_1081" data-name="Path 1081" class="cls-15" d="M356.755,342.248c.252-.047-.463-3.887-.665-8.668-.227-4.779.14-8.662-.115-8.69-.218-.036-.981,3.862-.751,8.725C355.43,338.478,356.54,342.3,356.755,342.248Z" transform="translate(-174.465 153.744)"/>
        <path id="Path_1082" data-name="Path 1082" class="cls-15" d="M344.693,352.582c.153.159,3.084-2.2,6.095-5.644s4.928-6.6,4.735-6.715c-.212-.131-2.416,2.794-5.4,6.19C347.147,349.818,344.518,352.41,344.693,352.582Z" transform="translate(-155.706 162.601)"/>
        <path id="Path_1083" data-name="Path 1083" class="cls-15" d="M362.864,345.5c-.093.208,3.019,1.638,6.948,3.192s7.191,2.644,7.282,2.436-3.017-1.639-6.948-3.193S362.955,345.295,362.864,345.5Z" transform="translate(-207.55 165.639)"/>
        <path id="Path_1084" data-name="Path 1084" class="cls-15" d="M364.486,374.743c.24,0,.393-3.889.343-8.682s-.287-8.676-.527-8.673-.393,3.888-.342,8.682S364.248,374.746,364.486,374.743Z" transform="translate(-197.107 172.52)"/>
        <path id="Path_1085" data-name="Path 1085" class="cls-15" d="M353.26,373.462c.227-.028-.19-4.072-1.479-8.919s-2.926-8.6-3.141-8.524c-.235.079,1.033,3.919,2.3,8.725S353.012,373.5,353.26,373.462Z" transform="translate(-160.03 171.728)"/>
        <path id="Path_1086" data-name="Path 1086" class="cls-15" d="M338.319,373.125c-.013.237,4.14.614,9.2,1.412s9.127,1.693,9.2,1.464c.065-.207-3.932-1.482-9.053-2.275S338.327,372.909,338.319,373.125Z" transform="translate(-146.28 181.542)"/>
        <path id="Path_1087" data-name="Path 1087" class="cls-15" d="M342.709,373c.172-.158-2.039-2.591-4.94-5.434s-5.392-5.022-5.565-4.864,2.039,2.591,4.94,5.435S342.538,373.161,342.709,373Z" transform="translate(-122.08 175.587)"/>
        <path id="Path_1088" data-name="Path 1088" class="cls-15" d="M318.385,384.556c.247.044.986-2.794,2.251-6.174s2.551-6.038,2.329-6.148c-.2-.107-1.871,2.42-3.147,5.875S318.16,384.522,318.385,384.556Z" transform="translate(-79.238 181.095)"/>
        <path id="Path_1089" data-name="Path 1089" class="cls-15" d="M329.206,388.749c.1.207,3.84-1.164,8.359-3.064s8.1-3.607,8.006-3.815-3.839,1.164-8.359,3.064S329.109,388.542,329.206,388.749Z" transform="translate(-119.949 186.652)"/>
        <path id="Path_1090" data-name="Path 1090" class="cls-15" d="M311.732,388.542c.227-.071-.475-2.655-1.568-5.771s-2.163-5.585-2.391-5.514.475,2.657,1.568,5.773S311.505,388.613,311.732,388.542Z" transform="translate(-50.374 183.998)"/>
        <path id="Path_1091" data-name="Path 1091" class="cls-15" d="M315.526,388.511c.048.24,4.787-.488,10.678-.773,5.891-.308,10.683-.062,10.7-.3.027-.208-4.787-.827-10.75-.516C320.195,387.208,315.478,388.306,315.526,388.511Z" transform="translate(-88.495 189.531)"/>
        <path id="Path_1092" data-name="Path 1092" class="cls-14" d="M354.091,381.852a1.769,1.769,0,0,0,.045-.622,5.561,5.561,0,0,0-.268-1.791,3.976,3.976,0,0,0-1.811-2.348,6.1,6.1,0,0,0-4.067-.636l.34.188c-1.824-6.051-4.737-14.891-7.652-24.8-2.731-9.274-4.572-17.816-5.865-24.008l-1.526-7.337a16.95,16.95,0,0,0-.658-2.674,16.491,16.491,0,0,0,.327,2.729c.262,1.75.686,4.274,1.255,7.389a235.772,235.772,0,0,0,5.631,24.119c2.922,9.932,5.94,18.737,7.934,24.739l.078.234.263-.046a5.673,5.673,0,0,1,3.7.469,3.73,3.73,0,0,1,1.748,2.075A20.861,20.861,0,0,1,354.091,381.852Z" transform="translate(-134.193 149.665)"/>
        <path id="Path_1093" data-name="Path 1093" class="cls-14" d="M335.991,382.341c.142.062,1.166-2.075,3.286-5.259a56.215,56.215,0,0,1,9.93-11.215,58.756,58.756,0,0,1,12.736-8.293c3.549-1.695,5.893-2.457,5.84-2.6a7.078,7.078,0,0,0-1.688.42,38.826,38.826,0,0,0-4.42,1.654,52.475,52.475,0,0,0-13.052,8.209,49.906,49.906,0,0,0-9.87,11.519,35.148,35.148,0,0,0-2.161,4.009A6.152,6.152,0,0,0,335.991,382.341Z" transform="translate(-153.452 171.121)"/>
        <path id="Path_1094" data-name="Path 1094" d="M368,354.238c-6.371.434-11.589.888-17.571,3.012s-11.509,6.186-13.709,11.865c-.528,1.362-.778,3.08.312,4.1a3.221,3.221,0,0,0,3.157.481,8.383,8.383,0,0,0,2.759-1.8c3.674-3.217,7.479-6.059,11.271-9.149s9.3-6.342,14.247-7.059" transform="translate(-154.602 170.7)"/>
        <path id="Path_1095" data-name="Path 1095" class="cls-14" d="M302.338,351.912a7.812,7.812,0,0,0,1.738.951,31.335,31.335,0,0,0,5.125,1.83,36.617,36.617,0,0,0,17.957.194,35.236,35.236,0,0,0,15.591-8.444,29.2,29.2,0,0,0,3.537-3.962,7.2,7.2,0,0,0,1.03-1.631c-.14-.1-1.656,2.217-4.992,5.173a36.766,36.766,0,0,1-15.385,8.069,38.16,38.16,0,0,1-17.582.039C304.924,353.086,302.408,351.762,302.338,351.912Z" transform="translate(-76.934 162.963)"/>
        <path id="Path_1096" data-name="Path 1096" d="M339.407,341.621c-2.8,5.778-6.1,11.59-11.419,15.47-3.067,2.236-6.653,4.116-10.523,4.176-5.561.087-10.338-3.506-14.582-6.91,13.747,2.038,29.241-3.867,36.524-12.736" transform="translate(-69.93 163.411)"/>
        <path id="Path_1097" data-name="Path 1097" class="cls-14" d="M338.911,301.387c.265-.014-.055-5.418.631-12.029.651-6.615,2.048-11.863,1.791-11.925a12.515,12.515,0,0,0-1.156,3.384,57.687,57.687,0,0,0-1.723,17.038A12.37,12.37,0,0,0,338.911,301.387Z" transform="translate(-131.033 126.327)"/>
        <path id="Path_1098" data-name="Path 1098" class="cls-9" d="M186.012,426.44s18.109,3.706,34.275,1.41c15.156-2.152,49.093.074,49.081,18.991-.015,21.1-45.268,15.885-62.925,12.54s-35.238-6.374-35.238-6.374Z" transform="translate(219.493 212.414)"/>
        <path id="Path_1099" data-name="Path 1099" class="cls-14" d="M194.746,449.015c.233.05,1.213-3.237,2.188-7.343s1.574-7.472,1.341-7.523-1.213,3.238-2.188,7.343S194.513,448.966,194.746,449.015Z" transform="translate(251.4 216.868)"/>
        <path id="Path_1100" data-name="Path 1100" class="cls-14" d="M199.264,449.3c.238.032.921-3.34,1.528-7.527s.906-7.611.67-7.641-.921,3.338-1.528,7.529S199.028,449.272,199.264,449.3Z" transform="translate(240.706 216.859)"/>
        <path id="Path_1101" data-name="Path 1101" class="cls-14" d="M203.158,447.2c.238.028.81-2.917,1.276-6.578s.651-6.65.413-6.677-.81,2.917-1.276,6.579S202.921,447.176,203.158,447.2Z" transform="translate(230.849 216.752)"/>
        <path id="Path_1102" data-name="Path 1102" class="cls-14" d="M207.922,445.224c.21.085,1.5-2.375,2.329-5.648s.893-6.018.665-6.032c-.248-.022-.68,2.633-1.508,5.838S207.691,445.136,207.922,445.224Z" transform="translate(216.717 216.518)"/>
        <path id="Path_1103" data-name="Path 1103" class="cls-14" d="M222.85,440.905a8.209,8.209,0,0,0-2.366-.15,21.074,21.074,0,0,0-6.358,1.179,7.213,7.213,0,0,0-1.958,1,2.783,2.783,0,0,0-1.226,2.091c-.02,1.866,2.144,3.212,4.1,2.821a8.437,8.437,0,0,0,4.727-3.187,13.324,13.324,0,0,0,2.674-5.274,12.812,12.812,0,0,0-1.993-10.924,2.324,2.324,0,0,0-1.345-.767,1.894,1.894,0,0,0-1.506.445,3.75,3.75,0,0,0-1.133,2.3,11.1,11.1,0,0,0,.238,4.291,11.754,11.754,0,0,0,3.056,5.41,9.713,9.713,0,0,0,1.321,1.111c.332.219.511.322.53.3.05-.058-.631-.538-1.6-1.622A12.08,12.08,0,0,1,217.3,434.6a10.743,10.743,0,0,1-.127-4.063,3.13,3.13,0,0,1,.925-1.859,1.2,1.2,0,0,1,1.748.276A12.3,12.3,0,0,1,221.6,439.19a12.688,12.688,0,0,1-2.5,4.972,7.73,7.73,0,0,1-4.2,2.938c-1.548.36-3.272-.782-3.239-2.06a2.146,2.146,0,0,1,.931-1.617,6.666,6.666,0,0,1,1.754-.947,23.1,23.1,0,0,1,6.156-1.4C222,440.945,222.848,440.971,222.85,440.905Z" transform="translate(199.782 213.125)"/>
        <path id="Path_1104" data-name="Path 1104" class="cls-14" d="M172.915,450.08a2.036,2.036,0,0,0,.456.137l1.358.32,5.25,1.133c4.568.951,11.193,2.286,19.423,3.791s18.065,3.2,29.088,4.626a82.9,82.9,0,0,0,17.477.825,39.424,39.424,0,0,0,9.153-1.657,25.858,25.858,0,0,0,4.393-1.849,13.459,13.459,0,0,0,3.859-2.942l-.067.069a8.829,8.829,0,0,0,1.574-1.789,10.636,10.636,0,0,0,.921-9.233,14.888,14.888,0,0,0-5.8-7.187,30.2,30.2,0,0,0-8.252-3.872c-1.445-.388-2.851-.857-4.282-1.164-1.438-.271-2.842-.633-4.26-.819-11.349-1.7-21.672-.835-30.248-.832-4.3.076-8.184-.035-11.588-.232a81.693,81.693,0,0,1-8.67-1.038l-3.122-.622-2.249-.607-1.39-.361a2.317,2.317,0,0,0-.483-.1,2.072,2.072,0,0,0,.455.177l1.366.44q.935.289,2.236.686l3.121.7a76.261,76.261,0,0,0,8.7,1.183c3.417.243,7.321.394,11.628.357,8.6.068,18.912-.724,30.111,1,1.4.188,2.782.551,4.2.82,1.41.308,2.789.775,4.209,1.158a29.393,29.393,0,0,1,8.012,3.777,14.1,14.1,0,0,1,5.49,6.789,9.882,9.882,0,0,1-.833,8.545,8.04,8.04,0,0,1-1.42,1.614l-.028.027-.038.046a12.894,12.894,0,0,1-3.579,2.7,25.1,25.1,0,0,1-4.235,1.786,38.747,38.747,0,0,1-8.95,1.631,82.8,82.8,0,0,1-17.3-.772c-11-1.376-20.838-3.026-29.08-4.444s-14.88-2.681-19.467-3.537l-5.282-.983-1.376-.241A2.211,2.211,0,0,0,172.915,450.08Z" transform="translate(219.575 212.551)"/>
        <path id="Path_1105" data-name="Path 1105" class="cls-14" d="M186.959,458.821a26.918,26.918,0,0,0,.438-4.381c.2-2.706.545-6.434,1.123-10.53s1.29-7.78,1.843-10.44a26.77,26.77,0,0,0,.795-4.337,19.259,19.259,0,0,0-1.393,4.209,91.817,91.817,0,0,0-2.981,21.071A18.9,18.9,0,0,0,186.959,458.821Z" transform="translate(271.747 213.969)"/>
        <path id="Path_1106" data-name="Path 1106" class="cls-21" d="M238.271,427.353,226.8,454.569l-8.9-1.562,17.054-26.568Z" transform="translate(172.808 212.414)"/>
        <path id="Path_1107" data-name="Path 1107" class="cls-14" d="M171.493,396.311c1.846.582,120.428-30.886,168.383-43.655a47.724,47.724,0,0,1,37.085,5.315l.578.353c16.123,9.883,23.968,28.279,19.616,45.994h0a43.321,43.321,0,0,1-20.565,27c-31.624,18.346-98.549,56.944-100.6,56.193-2.681-.984-86.262-3.037-86.262-3.037L290.283,416l-47.835,29.277-70.955-48.964Z" transform="translate(90.04 168.856)"/>
        <path id="Path_1108" data-name="Path 1108" class="cls-18" d="M401.321,362.6,376.114,350.25,351.4,364.925l-92.549,2.864-13.4,42.667L379.4,381.049s24.382,2.043,26.208-3.146S401.321,362.6,401.321,362.6Z" transform="translate(-40.787 168.396)"/>
        <path id="Path_1109" data-name="Path 1109" class="cls-14" d="M384.318,413.106l12.459,38.745-1.549,11.808h0c-22.7,21.67-58.873,23.979-84.437,5.39h0c-15.543-11.3-24.616-28.828-24.53-47.384l.187-40.483Z" transform="translate(-99.605 186.265)"/>
        <path id="Path_1110" data-name="Path 1110" class="cls-20" d="M210.739,418.15c.143.183,14.607-9.8,32.3-22.3s31.929-22.781,31.786-22.962-14.6,9.8-32.3,22.3S210.6,417.969,210.739,418.15Z" transform="translate(148.171 181.473)"/>
        <path id="Path_1111" data-name="Path 1111" class="cls-19" d="M247.379,355.161c-.073.216,5.448,2.084,12.331,4.173s12.521,3.605,12.594,3.389-5.446-2.084-12.331-4.172S247.453,354.944,247.379,355.161Z" transform="translate(89.647 171.221)"/>
        <path id="Path_1112" data-name="Path 1112" class="cls-19" d="M246.091,359.785a27.664,27.664,0,0,0,4.294.764c2.654.41,6.309,1.027,10.3,1.895s7.567,1.827,10.145,2.558a27.321,27.321,0,0,0,4.214,1.087,19.366,19.366,0,0,0-4.022-1.639,94.881,94.881,0,0,0-20.558-4.476A19.886,19.886,0,0,0,246.091,359.785Z" transform="translate(89.051 173.872)"/>
        <path id="Path_1113" data-name="Path 1113" class="cls-19" d="M245.43,364.006c-.047.222,6.171,1.578,13.887,3.026s14.012,2.444,14.058,2.22-6.171-1.576-13.889-3.026S245.477,363.784,245.43,364.006Z" transform="translate(91.823 176.326)"/>
        <path id="Path_1114" data-name="Path 1114" class="cls-20" d="M262.679,322.343l-23.252,72.451a2.2,2.2,0,0,1-1.954,1.483l-63.363,4.5a2.148,2.148,0,0,0-2.049,2.092v3.746a2.162,2.162,0,0,0,2.258,2.1l173.208-3.081a2.218,2.218,0,0,0,2.029-1.35l30.459-75.571a2.107,2.107,0,0,0-1.966-2.845L264.9,320.857A2.21,2.21,0,0,0,262.679,322.343Z" transform="translate(107.276 151.413)"/>
        <path id="Path_1115" data-name="Path 1115" class="cls-3" d="M218.478,341.712a5.286,5.286,0,0,1,3.427,3.686,4.872,4.872,0,0,1-2.239,4.514,5.962,5.962,0,0,1-6.331.224,4.845,4.845,0,0,1-1.728-6.055c.765-2,4.632-3.4,6.871-2.368" transform="translate(200.284 163.262)"/>
        <path id="Path_1116" data-name="Path 1116" class="cls-14" d="M423.862,494.568l18.307-28.521L307.546,366.133a55.757,55.757,0,0,0-29.4-11.412h0c-33.488-2.889-61.614,23.549-58.815,55.281l2.151,24.376,89.359,27.192Z" transform="translate(-33.163 170.854)"/>
        <path id="Path_1117" data-name="Path 1117" class="cls-20" d="M230.124,400.359a1.984,1.984,0,0,0,.357.314l1.1.858c1.03.778,2.464,1.862,4.287,3.241q1.412,1.053,3.114,2.327c1.136.853,2.474,1.644,3.857,2.569l4.472,2.9c.795.51,1.6,1.052,2.451,1.573l2.672,1.524c3.659,2.067,7.606,4.437,12.082,6.578,2.219,1.1,4.483,2.3,6.876,3.419L278.831,429c10.248,4.424,21.727,8.875,34.033,12.837,24.59,8.024,47.324,13.8,63.6,18.475,4.084,1.138,7.762,2.2,10.985,3.167,3.229.945,6.011,1.759,8.262,2.485l5.211,1.6c.562.163,1.01.3,1.363.4a.244.244,0,1,0,.03-.079l-1.335-.475-5.162-1.751c-2.238-.772-5-1.631-8.222-2.618-3.21-1.008-6.881-2.113-10.953-3.285-16.248-4.82-38.953-10.684-63.5-18.7-12.286-3.955-23.743-8.373-33.985-12.748l-7.434-3.3c-2.393-1.106-4.655-2.289-6.876-3.372-4.478-2.109-8.432-4.441-12.1-6.472q-1.372-.767-2.681-1.5c-.853-.51-1.661-1.044-2.461-1.543l-4.5-2.843c-1.393-.9-2.742-1.676-3.89-2.509s-2.2-1.581-3.152-2.264c-1.863-1.325-3.329-2.368-4.382-3.115-.473-.327-.855-.588-1.153-.8A2.077,2.077,0,0,0,230.124,400.359Z" transform="translate(-12.065 197.346)"/>
        <path id="Path_1118" data-name="Path 1118" class="cls-20" d="M313.065,408.816a5.3,5.3,0,0,0,1.358.674c.895.388,2.213.9,3.862,1.477a103.178,103.178,0,0,0,26.809,5.456c1.754.112,3.177.161,4.162.155a5.529,5.529,0,0,0,1.53-.085,53.871,53.871,0,0,0-5.635-.648c-3.477-.368-8.265-1.007-13.482-2.064s-9.853-2.344-13.184-3.362A53.565,53.565,0,0,0,313.065,408.816Z" transform="translate(-98.27 202.224)"/>
        <path id="Path_1119" data-name="Path 1119" class="cls-20" d="M219.136,364.913c-.147.178,28.667,21.62,64.348,47.881s64.739,47.417,64.887,47.239-28.66-21.615-64.354-47.888S219.283,364.734,219.136,364.913Z" transform="translate(60.635 176.867)"/>
        <path id="Path_1120" data-name="Path 1120" class="cls-9" d="M246.027,437.28c6.458-3.261,13.707-1.333,19.885.639,4.113,1.313,8.387,3.392,12.564,2.278,3.021-.806,5.267-3.124,7.574-5.139a49.227,49.227,0,0,1,34.8-11.806,14.535,14.535,0,0,1,9.557,4.091c6.343,6.505,1.559,14.971-4.109,20.441a64.08,64.08,0,0,1-37.842,17.287c-11.811,1.168-28.052-.377-40.031-5.233-7.384-2.995-11.174-11.245-7.3-17.907A11.83,11.83,0,0,1,246.027,437.28Z" transform="translate(41.525 210.525)"/>
        <path id="Path_1121" data-name="Path 1121" d="M245.906,440.58c6.458-3.261,13.707-1.333,19.886.639,4.112,1.313,8.385,3.392,12.562,2.278,3.021-.806,5.268-3.124,7.574-5.139a49.233,49.233,0,0,1,34.8-11.808,14.541,14.541,0,0,1,9.557,4.093,10.289,10.289,0,0,1,2.662,4.56c-.94,3.911-3.719,7.728-6.771,10.675a64.085,64.085,0,0,1-37.843,17.287c-11.811,1.168-28.052-.377-40.029-5.233a14.049,14.049,0,0,1-8.52-9.616A11.3,11.3,0,0,1,241,445.232,11.827,11.827,0,0,1,245.906,440.58Z" transform="translate(41.659 212.431)"/>
        <path id="Path_1122" data-name="Path 1122" class="cls-14" d="M239.582,448.429a10.285,10.285,0,0,1,1.583-3.623,12.224,12.224,0,0,1,3.455-3.2,14.268,14.268,0,0,1,5.936-2.152c4.8-.533,10.35,1.377,16.521,2.96,3.051.764,6.383,1.934,10.03,1.5a13.8,13.8,0,0,0,5.16-1.691,31.991,31.991,0,0,0,4.435-3.162,47.033,47.033,0,0,1,17.659-9.937,48.506,48.506,0,0,1,8.787-1.933,29.18,29.18,0,0,1,7.816-.043,17.663,17.663,0,0,1,6.046,2,15.226,15.226,0,0,1,3.7,2.972,35.458,35.458,0,0,1,2.384,3.26,12.5,12.5,0,0,0-2.124-3.463,14.868,14.868,0,0,0-3.71-3.16,17.88,17.88,0,0,0-6.2-2.18,29.382,29.382,0,0,0-8-.058,48.228,48.228,0,0,0-8.952,1.889,53.328,53.328,0,0,0-9.27,3.875,38.915,38.915,0,0,0-4.512,2.782c-1.436,1.067-2.8,2.237-4.192,3.376a31.708,31.708,0,0,1-4.309,3.083,12.941,12.941,0,0,1-4.827,1.6c-3.379.423-6.619-.671-9.713-1.433-6.143-1.524-11.794-3.428-16.808-2.805a13.956,13.956,0,0,0-9.6,5.754,8.235,8.235,0,0,0-1.195,2.761A3.685,3.685,0,0,0,239.582,448.429Z" transform="translate(41.86 212.318)"/>
        <path id="Path_1123" data-name="Path 1123" class="cls-14" d="M239.582,448.429a10.285,10.285,0,0,1,1.583-3.623,12.224,12.224,0,0,1,3.455-3.2,14.268,14.268,0,0,1,5.936-2.152c4.8-.533,10.35,1.377,16.521,2.96,3.051.764,6.383,1.934,10.03,1.5a13.8,13.8,0,0,0,5.16-1.691,31.991,31.991,0,0,0,4.435-3.162,47.033,47.033,0,0,1,17.659-9.937,48.506,48.506,0,0,1,8.787-1.933,29.18,29.18,0,0,1,7.816-.043,17.663,17.663,0,0,1,6.046,2,15.226,15.226,0,0,1,3.7,2.972,35.458,35.458,0,0,1,2.384,3.26,12.5,12.5,0,0,0-2.124-3.463,14.868,14.868,0,0,0-3.71-3.16,17.88,17.88,0,0,0-6.2-2.18,29.382,29.382,0,0,0-8-.058,48.228,48.228,0,0,0-8.952,1.889,53.328,53.328,0,0,0-9.27,3.875,38.915,38.915,0,0,0-4.512,2.782c-1.436,1.067-2.8,2.237-4.192,3.376a31.708,31.708,0,0,1-4.309,3.083,12.941,12.941,0,0,1-4.827,1.6c-3.379.423-6.619-.671-9.713-1.433-6.143-1.524-11.794-3.428-16.808-2.805a13.956,13.956,0,0,0-9.6,5.754,8.235,8.235,0,0,0-1.195,2.761A3.685,3.685,0,0,0,239.582,448.429Z" transform="translate(41.86 212.318)"/>
        <path id="Path_1124" data-name="Path 1124" class="cls-14" d="M272.342,443.418a16.576,16.576,0,0,0-3.307-2.169,95.25,95.25,0,0,0-8.555-4.325c-3.432-1.526-6.629-2.715-8.977-3.48a17.3,17.3,0,0,0-3.872-1.027,21.508,21.508,0,0,0,3.654,1.571c2.281.9,5.418,2.165,8.827,3.679s6.434,3,8.622,4.088A21.4,21.4,0,0,0,272.342,443.418Z" transform="translate(89.189 215.857)"/>
        <path id="Path_1125" data-name="Path 1125" class="cls-14" d="M274.566,447.556c.1-.205-5.543-2.994-12.611-6.23s-12.887-5.7-12.992-5.491,5.543,2.993,12.614,6.231S274.463,447.76,274.566,447.556Z" transform="translate(84.745 217.835)"/>
        <path id="Path_1126" data-name="Path 1126" class="cls-14" d="M246.85,451.558c.128.191,7.009-3.7,15.368-8.684s15.035-9.187,14.907-9.378-7.008,3.7-15.37,8.684S246.723,451.365,246.85,451.558Z" transform="translate(85.71 216.486)"/>
        <path id="Path_1127" data-name="Path 1127" class="cls-14" d="M253.737,446.373a20.731,20.731,0,0,0,3.369-2.132c2.024-1.382,4.817-3.293,7.942-5.345s6-3.858,8.072-5.169a20.442,20.442,0,0,0,3.291-2.239,17.789,17.789,0,0,0-3.614,1.747c-2.168,1.188-5.1,2.925-8.244,4.986s-5.886,4.055-7.821,5.56A17.029,17.029,0,0,0,253.737,446.373Z" transform="translate(74.951 215.325)"/>
      </g>
    </g>
  </g>
</svg>
