<svg xmlns="http://www.w3.org/2000/svg" xmlns:xlink="http://www.w3.org/1999/xlink" width="1180" height="1080" viewBox="0 0 1180 1080">
  <defs>
    <style>
      .cls-1 {
        clip-path: url(#clip-Doctofiche_-_Illustration_01);
      }

      .cls-2 {
        fill: #e6e6e6;
      }

      .cls-3 {
        fill: #e0e0e0;
      }

      .cls-10, .cls-11, .cls-19, .cls-20, .cls-4 {
        fill: #fff;
      }

      .cls-5 {
        fill: #f0f0f0;
      }

      .cls-6 {
        fill: #ebebeb;
      }

      .cls-7 {
        fill: #f5f5f5;
      }

      .cls-8 {
        fill: #b55b52;
      }

      .cls-18, .cls-9 {
        fill: #407bff;
      }

      .cls-10 {
        opacity: 0.8;
      }

      .cls-11 {
        opacity: 0.6;
      }

      .cls-12 {
        fill: #263238;
      }

      .cls-13, .cls-17, .cls-18, .cls-19 {
        opacity: 0.2;
      }

      .cls-14 {
        fill: #0171bb;
      }

      .cls-15, .cls-17 {
        fill: #0095d9;
      }

      .cls-16 {
        fill: #a02724;
      }

      .cls-20 {
        opacity: 0.4;
      }
    </style>
    <clipPath id="clip-Doctofiche_-_Illustration_01">
      <rect width="1180" height="1080"/>
    </clipPath>
  </defs>
  <g id="Doctofiche_-_Illustration_01" data-name="Doctofiche - Illustration 01" class="cls-1">
    <g id="Group_1835" data-name="Group 1835" transform="translate(-1065.422 -4411.668)">
      <rect id="Rectangle_52" data-name="Rectangle 52" class="cls-2" width="179.818" height="268.03" transform="translate(1098.135 4529.414)"/>
      <rect id="Rectangle_53" data-name="Rectangle 53" class="cls-3" width="2.827" height="268.03" transform="translate(1280.78 4797.445) rotate(180)"/>
      <rect id="Rectangle_54" data-name="Rectangle 54" class="cls-4" width="247.674" height="159.462" transform="translate(1267.774 4539.592) rotate(90)"/>
      <circle id="Ellipse_16" data-name="Ellipse 16" class="cls-5" cx="42.622" cy="42.622" r="42.622" transform="translate(1127.767 4612.962) rotate(-45)"/>
      <rect id="Rectangle_55" data-name="Rectangle 55" class="cls-6" width="105.177" height="10.768" transform="translate(1135.455 4680.252)"/>
      <rect id="Rectangle_56" data-name="Rectangle 56" class="cls-6" width="105.177" height="10.767" transform="translate(1135.455 4708.867)"/>
      <rect id="Rectangle_57" data-name="Rectangle 57" class="cls-6" width="105.177" height="10.768" transform="translate(1135.455 4737.481)"/>
      <rect id="Rectangle_58" data-name="Rectangle 58" class="cls-2" width="179.818" height="268.031" transform="translate(1324.087 4568.007)"/>
      <rect id="Rectangle_59" data-name="Rectangle 59" class="cls-3" width="2.827" height="268.031" transform="translate(1506.732 4836.038) rotate(180)"/>
      <rect id="Rectangle_60" data-name="Rectangle 60" class="cls-4" width="247.674" height="159.462" transform="translate(1493.727 4578.184) rotate(90)"/>
      <circle id="Ellipse_17" data-name="Ellipse 17" class="cls-5" cx="42.622" cy="42.622" r="42.622" transform="matrix(0.23, -0.973, 0.973, 0.23, 1362.722, 4683.245)"/>
      <rect id="Rectangle_61" data-name="Rectangle 61" class="cls-6" width="105.177" height="10.768" transform="translate(1361.407 4718.845)"/>
      <rect id="Rectangle_62" data-name="Rectangle 62" class="cls-6" width="105.177" height="10.767" transform="translate(1361.407 4747.46)"/>
      <rect id="Rectangle_63" data-name="Rectangle 63" class="cls-6" width="105.177" height="10.768" transform="translate(1361.407 4776.075)"/>
      <g id="Group_78" data-name="Group 78" transform="translate(1352.162 4947.698)">
        <rect id="Rectangle_64" data-name="Rectangle 64" class="cls-6" width="785.8" height="8.373"/>
        <rect id="Rectangle_65" data-name="Rectangle 65" class="cls-3" width="63.636" height="8.373" transform="translate(849.436 8.373) rotate(180)"/>
        <rect id="Rectangle_66" data-name="Rectangle 66" class="cls-7" width="775.016" height="390.718" transform="translate(10.785 8.373)"/>
        <rect id="Rectangle_67" data-name="Rectangle 67" class="cls-2" width="4.354" height="390.718" transform="translate(180.256 8.373)"/>
        <rect id="Rectangle_68" data-name="Rectangle 68" class="cls-2" width="4.354" height="311.268" transform="translate(385.23 87.823)"/>
        <rect id="Rectangle_69" data-name="Rectangle 69" class="cls-2" width="4.354" height="171.649" transform="translate(182.433 317.467) rotate(90)"/>
        <rect id="Rectangle_70" data-name="Rectangle 70" class="cls-2" width="4.354" height="171.649" transform="translate(182.433 240.194) rotate(90)"/>
        <rect id="Rectangle_71" data-name="Rectangle 71" class="cls-2" width="4.354" height="171.649" transform="translate(182.433 162.922) rotate(90)"/>
        <rect id="Rectangle_72" data-name="Rectangle 72" class="cls-2" width="4.354" height="775.016" transform="translate(785.8 85.646) rotate(90)"/>
        <rect id="Rectangle_73" data-name="Rectangle 73" class="cls-6" width="55.689" height="390.718" transform="translate(841.489 399.091) rotate(180)"/>
      </g>
      <g id="Group_80" data-name="Group 80" transform="translate(1869.061 4420.667)">
        <rect id="Rectangle_74" data-name="Rectangle 74" class="cls-4" width="274.303" height="390.596" transform="translate(7.704 4.689)"/>
        <path id="Path_284" data-name="Path 284" class="cls-6" d="M607.74,84.536H327.408a4.69,4.69,0,0,1-4.69-4.69h0a4.689,4.689,0,0,1,4.69-4.687H607.74a4.687,4.687,0,0,1,4.687,4.687h0A4.687,4.687,0,0,1,607.74,84.536Z" transform="translate(-322.718 -75.158)"/>
        <path id="Path_285" data-name="Path 285" class="cls-6" d="M607.74,214.116H327.408a4.689,4.689,0,0,1-4.69-4.687h0a4.692,4.692,0,0,1,4.69-4.69H607.74a4.689,4.689,0,0,1,4.687,4.69h0A4.687,4.687,0,0,1,607.74,214.116Z" transform="translate(-322.718 185.858)"/>
        <g id="Group_79" data-name="Group 79" transform="translate(74.644 24.807)">
          <rect id="Rectangle_75" data-name="Rectangle 75" class="cls-5" width="84.401" height="128.109" rx="10.587" transform="translate(28.011 76.34)"/>
          <path id="Path_286" data-name="Path 286" class="cls-5" d="M374.86,309.867h0a18.139,18.139,0,0,1-18.086-18.086V155.133a18.139,18.139,0,0,1,18.086-18.086h0a18.139,18.139,0,0,1,18.086,18.086V291.781A18.139,18.139,0,0,1,374.86,309.867Z" transform="translate(-328.762 24.699)"/>
          <rect id="Rectangle_76" data-name="Rectangle 76" class="cls-5" width="21.603" height="103.212" rx="3.583" transform="translate(0 91.867)"/>
          <path id="Path_287" data-name="Path 287" class="cls-5" d="M397.7,217.075h0a10.831,10.831,0,0,1-10.8-10.8v-81.61a10.831,10.831,0,0,1,10.8-10.8h0a10.831,10.831,0,0,1,10.8,10.8v81.61A10.831,10.831,0,0,1,397.7,217.075Z" transform="translate(-268.079 -21.997)"/>
          <path id="Path_288" data-name="Path 288" class="cls-5" d="M390.86,309.867h0a18.139,18.139,0,0,1-18.086-18.086V155.133a18.139,18.139,0,0,1,18.086-18.086h0a18.139,18.139,0,0,1,18.086,18.086V291.781A18.139,18.139,0,0,1,390.86,309.867Z" transform="translate(-296.533 24.699)"/>
          <circle id="Ellipse_18" data-name="Ellipse 18" class="cls-5" cx="26.627" cy="26.627" r="26.627" transform="translate(32.556 37.656) rotate(-45)"/>
        </g>
      </g>
      <g id="Group_81" data-name="Group 81" transform="translate(1918.96 4871.336)">
        <rect id="Rectangle_77" data-name="Rectangle 77" class="cls-7" width="126.267" height="76.363"/>
        <rect id="Rectangle_78" data-name="Rectangle 78" class="cls-6" width="31.109" height="76.363" transform="translate(157.376 76.363) rotate(180)"/>
        <path id="Path_289" data-name="Path 289" class="cls-4" d="M400.445,246.158H383.621V229.333H369.041v16.824H352.216v14.581h16.825v16.824h14.581V260.739h16.824Z" transform="translate(-313.198 -215.267)"/>
      </g>
      <g id="Group_82" data-name="Group 82" transform="translate(1413.976 4755.025)">
        <path id="Path_290" data-name="Path 290" class="cls-6" d="M379.581,378.754H367.524V243.688a45.548,45.548,0,1,0-91.1,0H264.371a57.605,57.605,0,1,1,115.21,0Z" transform="translate(14.838 -186.081)"/>
        <rect id="Rectangle_79" data-name="Rectangle 79" class="cls-6" width="12.057" height="19.761" transform="translate(404.802 172.911)"/>
        <rect id="Rectangle_80" data-name="Rectangle 80" class="cls-6" width="12.057" height="7.032" transform="translate(21.362 185.64)"/>
        <rect id="Rectangle_81" data-name="Rectangle 81" class="cls-6" width="12.057" height="7.032" transform="translate(0 185.64)"/>
      </g>
      <g id="Group_83" data-name="Group 83" transform="translate(1134.791 5071.098)">
        <rect id="Rectangle_82" data-name="Rectangle 82" class="cls-7" width="156.956" height="220.423" transform="translate(19.931 55.268)"/>
        <rect id="Rectangle_83" data-name="Rectangle 83" class="cls-2" width="144.739" height="5.536" transform="translate(26.04 49.732)"/>
        <path id="Path_291" data-name="Path 291" class="cls-7" d="M135.469,290.938h57.492a49.731,49.731,0,0,1,49.73,49.733H85.736A49.734,49.734,0,0,1,135.469,290.938Z" transform="translate(-65.805 -290.938)"/>
        <path id="Path_292" data-name="Path 292" class="cls-2" d="M119.911,374.377H103.3a24.18,24.18,0,0,0-24.181,24.178h64.968A24.178,24.178,0,0,0,119.911,374.377Z" transform="translate(-79.124 -122.865)"/>
      </g>
      <g id="Shadow" transform="translate(1065.422 5415.368)">
        <ellipse id="_Path_" data-name="&lt;Path&gt;" class="cls-7" cx="584.444" cy="34.132" rx="584.444" ry="34.132"/>
      </g>
      <g id="Character" transform="translate(1410.118 4471.401)">
        <g id="Group_96" data-name="Group 96">
          <path id="Path_293" data-name="Path 293" class="cls-8" d="M213.611,157.344,199.95,140.569l-19.12,12.006s8.748,9.323,19.343,22.4Z" transform="translate(-149.583 6.576)"/>
          <g id="Group_85" data-name="Group 85" transform="translate(27.645 145.161)">
            <path id="Path_294" data-name="Path 294" class="cls-9" d="M386.68,160.008c-.8,1.7-1.329,2.719-1.992,4.021l-1.9,3.623c-1.281,2.372-2.574,4.717-3.91,7.026q-3.992,6.94-8.362,13.646a243.12,243.12,0,0,1-19.358,26.143,156.74,156.74,0,0,1-25.019,23.786,103.844,103.844,0,0,1-16.157,9.83l-4.543,2.041-4.79,1.772c-1.61.567-3.334,1-5,1.48l-1.263.344c-.362.105-1.227.277-1.821.4a35.956,35.956,0,0,1-3.891.594,46.025,46.025,0,0,1-13.8-.7A62.691,62.691,0,0,1,264,250.775a95.775,95.775,0,0,1-16.772-8.889,195.506,195.506,0,0,1-25.715-20.69c-7.729-7.2-14.9-14.634-21.785-22.252-3.445-3.8-6.839-7.623-10.161-11.518-3.364-3.952-6.49-7.7-9.935-12.09l33.351-25.866c2.589,3.289,5.706,7.047,8.678,10.523,3.026,3.524,6.095,7.017,9.242,10.42,6.306,6.782,12.808,13.311,19.463,19.322a147.637,147.637,0,0,0,20.217,15.551,52.99,52.99,0,0,0,9.164,4.618c2.592,1,4.543.949,3.946.811-.06,0-.139.012-.28.012,0-.015-.253.078-.033,0l.491-.178c.66-.25,1.314-.4,1.992-.684l2.044-.856L290,207.944a59.691,59.691,0,0,0,8.579-5.772A103.221,103.221,0,0,0,315.1,184.849a187.97,187.97,0,0,0,14.4-21.679c2.188-3.84,4.274-7.768,6.246-11.735.992-1.98,1.935-3.976,2.858-5.959l1.329-2.951c.389-.9.907-2.086,1.1-2.613Z" transform="translate(-179.635 -139.911)"/>
            <path id="Path_295" data-name="Path 295" class="cls-10" d="M386.68,160.008c-.8,1.7-1.329,2.719-1.992,4.021l-1.9,3.623c-1.281,2.372-2.574,4.717-3.91,7.026q-3.992,6.94-8.362,13.646a243.12,243.12,0,0,1-19.358,26.143,156.74,156.74,0,0,1-25.019,23.786,103.844,103.844,0,0,1-16.157,9.83l-4.543,2.041-4.79,1.772c-1.61.567-3.334,1-5,1.48l-1.263.344c-.362.105-1.227.277-1.821.4a35.956,35.956,0,0,1-3.891.594,46.025,46.025,0,0,1-13.8-.7A62.691,62.691,0,0,1,264,250.775a95.775,95.775,0,0,1-16.772-8.889,195.506,195.506,0,0,1-25.715-20.69c-7.729-7.2-14.9-14.634-21.785-22.252-3.445-3.8-6.839-7.623-10.161-11.518-3.364-3.952-6.49-7.7-9.935-12.09l33.351-25.866c2.589,3.289,5.706,7.047,8.678,10.523,3.026,3.524,6.095,7.017,9.242,10.42,6.306,6.782,12.808,13.311,19.463,19.322a147.637,147.637,0,0,0,20.217,15.551,52.99,52.99,0,0,0,9.164,4.618c2.592,1,4.543.949,3.946.811-.06,0-.139.012-.28.012,0-.015-.253.078-.033,0l.491-.178c.66-.25,1.314-.4,1.992-.684l2.044-.856L290,207.944a59.691,59.691,0,0,0,8.579-5.772A103.221,103.221,0,0,0,315.1,184.849a187.97,187.97,0,0,0,14.4-21.679c2.188-3.84,4.274-7.768,6.246-11.735.992-1.98,1.935-3.976,2.858-5.959l1.329-2.951c.389-.9.907-2.086,1.1-2.613Z" transform="translate(-179.635 -139.911)"/>
          </g>
          <g id="Group_86" data-name="Group 86" transform="translate(228.005 462.591)">
            <path id="Path_296" data-name="Path 296" class="cls-9" d="M246.1,429.647h97.291L306.509,245.218H258.852Z" transform="translate(-246.104 -245.218)"/>
            <path id="Path_297" data-name="Path 297" class="cls-11" d="M246.1,429.647h97.291L306.509,245.218H258.852Z" transform="translate(-246.104 -245.218)"/>
          </g>
          <path id="Path_298" data-name="Path 298" class="cls-8" d="M270.3,445.472H245.5l-1.062-57.419h24.795Z" transform="translate(-21.446 505.086)"/>
          <path id="Path_299" data-name="Path 299" class="cls-8" d="M322.544,445.472H297.749l-11.055-57.419h24.8Z" transform="translate(63.661 505.086)"/>
          <path id="Path_300" data-name="Path 300" class="cls-12" d="M315.964,406.148h27.855a2.1,2.1,0,0,1,2.071,1.694l4.356,22.041a3.746,3.746,0,0,1-3.738,4.41c-9.721-.169-14.43-.738-26.68-.738-7.536,0-23.084.784-33.492.784-10.176,0-11.515-10.291-7.228-11.222,19.2-4.181,26.544-9.944,32.793-15.442A6.158,6.158,0,0,1,315.964,406.148Z" transform="translate(43.754 541.537)"/>
          <path id="Path_301" data-name="Path 301" class="cls-12" d="M277.688,406.148h27.078a2.1,2.1,0,0,1,2.071,1.694l4.359,22.041a3.708,3.708,0,0,1-3.677,4.41c-9.763-.166-23.861-.738-36.139-.738-14.357,0-15.512.784-32.347.784-10.176,0-12.751-10.291-8.467-11.222,19.5-4.244,24.087-4.7,41.1-15.035A11.748,11.748,0,0,1,277.688,406.148Z" transform="translate(-53.398 541.537)"/>
          <path id="Path_302" data-name="Path 302" class="cls-8" d="M196.885,138.82l-16.033-.226-3.1,20.663s15.738,3.379,30.409-3.075l-.3-6.707A11.152,11.152,0,0,0,196.885,138.82Z" transform="translate(-155.775 2.598)"/>
          <path id="Path_303" data-name="Path 303" class="cls-8" d="M170.464,139.539l3.1,13.072,18.883,6.646,3.1-20.663Z" transform="translate(-170.464 2.598)"/>
          <g id="Group_87" data-name="Group 87" transform="translate(223.002 893.154)">
            <path id="Path_304" data-name="Path 304" class="cls-13" d="M244.444,388.057l.543,29.6h24.805l-.543-29.6Z" transform="translate(-244.444 -388.057)"/>
            <path id="Path_305" data-name="Path 305" class="cls-13" d="M311.5,388.057H286.693l5.711,29.6h24.805Z" transform="translate(-159.342 -388.057)"/>
          </g>
          <path id="Path_306" data-name="Path 306" class="cls-4" d="M242.577,157.1c-6.876,26.27-19.18,92.6-5.706,198.068H369.489c1.284-18.484-7.138-102.065,7.762-189.1a26.36,26.36,0,0,0-22.963-30.785c-5.154-.573-10.613-1.052-16.012-1.311-16.925-.817-40.621.44-55.551,1.8a139.361,139.361,0,0,0-23.289,4.28A23.906,23.906,0,0,0,242.577,157.1Z" transform="translate(-48.864 -7.232)"/>
          <path id="Path_307" data-name="Path 307" class="cls-8" d="M300.8,116.308c-4,18.14-6.318,40.621,6.077,52.727,0,0-7.741,18.4-41.447,18.4-30.8,0-14.93-18.4-14.93-18.4,20.347-4.832,19.9-29.845,16.726-43.94Z" transform="translate(-17.47 -42.294)"/>
          <path id="Path_308" data-name="Path 308" class="cls-14" d="M257.45,139.547l-7.295,8.072a2.15,2.15,0,0,0-.461,2.107l2.339,7.117a2.055,2.055,0,0,0,1.866,1.414l7.861.377a2.177,2.177,0,0,0,1.9-.955l4.7-6.909a2.114,2.114,0,0,0-.136-2.586l-7.6-8.657A2.126,2.126,0,0,0,257.45,139.547Z" transform="translate(-11.077 3.067)"/>
          <path id="Path_309" data-name="Path 309" class="cls-14" d="M259.838,145.249s-12.054,88.76-12.332,104.2c-.383,21.233,6.815,43.054,6.815,43.054s8.286-15.693,9.724-43.711c1.417-27.614-.307-87.816.307-103.545Z" transform="translate(-15.304 16.003)"/>
          <path id="Path_310" data-name="Path 310" class="cls-13" d="M253.894,125.109c1.9,8.256,2.821,20.268-.865,29.778,2.43,1.052,12.371-2.77,16.5-5.4,9.179-5.845,12.726-11.557,16.13-23.768.518-3.216,1.136-6.363,1.821-9.408Z" transform="translate(-4.151 -42.289)"/>
          <g id="Group_88" data-name="Group 88" transform="translate(217.464 49.936)">
            <path id="Path_311" data-name="Path 311" class="cls-8" d="M243.435,123.561a22.653,22.653,0,0,0,12.332,12.645c7.509,3.069,12.335-3.554,11.147-11.237-1.07-6.918-6.267-16.85-14.234-16.645C244.831,108.525,240.741,116.5,243.435,123.561Z" transform="translate(-242.607 -108.32)"/>
            <path id="Path_312" data-name="Path 312" class="cls-13" d="M243.435,123.561a22.653,22.653,0,0,0,12.332,12.645c7.509,3.069,12.335-3.554,11.147-11.237-1.07-6.918-6.267-16.85-14.234-16.645C244.831,108.525,240.741,116.5,243.435,123.561Z" transform="translate(-242.607 -108.32)"/>
          </g>
          <path id="Path_313" data-name="Path 313" class="cls-12" d="M269.538,118.379c-1.429,10.638-8.057,18.523-14.806,17.619s-11.06-10.264-9.631-20.9,8.057-18.523,14.806-17.616S270.967,107.744,269.538,118.379Z" transform="translate(-20.672 -80.361)"/>
          <path id="Path_314" data-name="Path 314" class="cls-8" d="M317.487,136.376c-6.05,24.087-8.386,38.469-22.87,48.907-21.788,15.7-49.347-.455-50.511-25.715-1.046-22.74,9.028-58.309,34.366-64.018C303.437,89.925,323.539,112.288,317.487,136.376Z" transform="translate(-22.272 -85.873)"/>
          <path id="Path_315" data-name="Path 315" class="cls-12" d="M269.756,93.012c-14.427,3.12-30.408,14.806-16.642,23.379s44.793,9.938,44.793,9.938-10.246,24.09,3.783,36.558c4.675-2.336-5.311,18.725-5.311,18.725s7.129-1.839,12.063-10.152c8.359-2.131,33.251-42.08,16.624-53.51C321.949,94.573,289.135,88.828,269.756,93.012Z" transform="translate(-14.577 -91.754)"/>
          <path id="Path_316" data-name="Path 316" class="cls-4" d="M281.724,121.016a.773.773,0,0,1-.323-.072L259.671,111a.778.778,0,1,1,.648-1.414l21.727,9.938a.78.78,0,0,1-.323,1.489Z" transform="translate(8.308 -55.972)"/>
          <path id="Path_317" data-name="Path 317" class="cls-8" d="M286.666,129.994a23.784,23.784,0,0,1-16.181,7.822c-8.166.422-10.279-7.373-6.363-14.194,3.527-6.14,12.021-13.757,19.424-10.954C290.838,115.429,291.769,124.255,286.666,129.994Z" transform="translate(14.354 -50.831)"/>
          <path id="Path_318" data-name="Path 318" class="cls-15" d="M237.633,207.181s-7.961,185.387-7.117,261c.877,78.65,33.555,308.088,33.555,308.088h42s-3.78-224.844-.018-302.083c4.1-84.205,18.749-267,18.749-267Z" transform="translate(-49.626 140.754)"/>
          <path id="Path_319" data-name="Path 319" class="cls-12" d="M289.88,390.954c.193,0,.781,19.4.781,19.4H242.244l-2.773-21.1Z" transform="translate(-31.461 507.52)"/>
          <path id="Path_320" data-name="Path 320" class="cls-14" d="M251.866,223.46c-1.45,92,2.725,147.873,12.992,192.787,2.532-43.879,6.68-101.9,10.3-150.1Z" transform="translate(-7.057 173.545)"/>
          <path id="Path_321" data-name="Path 321" class="cls-15" d="M248.442,207.181s23.493,189.489,37.2,260.477c15.011,77.739,72.395,308.609,72.395,308.609H403.45s-35.831-224.594-43.6-301.562c-8.428-83.536-25.839-267.524-25.839-267.524Z" transform="translate(-13.39 140.754)"/>
          <path id="Path_322" data-name="Path 322" class="cls-12" d="M334.258,391.422c.2,0,3.367,18.369,3.367,18.369H287.708l-5.474-20.25Z" transform="translate(54.678 508.085)"/>
          <path id="Path_323" data-name="Path 323" class="cls-12" d="M259.048,111.394c-.374,1.98-1.712,3.412-2.99,3.2s-2.014-2-1.643-3.979,1.712-3.412,2.99-3.2S259.419,109.414,259.048,111.394Z" transform="translate(-1.552 -60.25)"/>
          <path id="Path_324" data-name="Path 324" class="cls-12" d="M250.979,109.494c-.371,1.98-1.709,3.412-2.99,3.2s-2.014-2-1.64-3.979,1.712-3.412,2.99-3.2S251.353,107.511,250.979,109.494Z" transform="translate(-17.802 -64.077)"/>
          <path id="Path_325" data-name="Path 325" class="cls-16" d="M260.716,108.471s-7.822,9.821-14.273,13.769c2.369,4.169,8.549,4.4,8.549,4.4Z" transform="translate(-17.417 -58.08)"/>
          <path id="Path_326" data-name="Path 326" class="cls-12" d="M251.521,120.128a.576.576,0,0,1-.464-.681.6.6,0,0,1,.684-.482,16,16,0,0,0,13.791-4,.583.583,0,0,1,.826-.033.592.592,0,0,1,.012.832A16.934,16.934,0,0,1,251.521,120.128Z" transform="translate(-8.144 -45.387)"/>
          <path id="Path_327" data-name="Path 327" class="cls-12" d="M265.036,112.409a1.129,1.129,0,0,1-.769-.687,9.023,9.023,0,0,0-6.143-5.7,1.156,1.156,0,0,1-.9-1.375,1.207,1.207,0,0,1,1.39-.943,11.235,11.235,0,0,1,7.843,7.117,1.209,1.209,0,0,1-.672,1.54A1.176,1.176,0,0,1,265.036,112.409Z" transform="translate(4.241 -67.729)"/>
          <path id="Path_328" data-name="Path 328" class="cls-12" d="M246.34,107.988a1.107,1.107,0,0,1-.464-.232,1.177,1.177,0,0,1-.136-1.658,11.811,11.811,0,0,1,9.775-4.549,1.141,1.141,0,0,1,1.013,1.3,1.2,1.2,0,0,1-1.3,1.052h0a9.428,9.428,0,0,0-7.708,3.686A1.182,1.182,0,0,1,246.34,107.988Z" transform="translate(-19.394 -72.068)"/>
          <path id="Path_329" data-name="Path 329" class="cls-4" d="M263.2,131.138a10.427,10.427,0,0,1-1.8-.157,10.809,10.809,0,0,1-6.984-4.594,14.143,14.143,0,0,1-2.116-10.568c1.326-7.234,7.605-12.19,13.9-11.069a10.82,10.82,0,0,1,6.981,4.588,14.136,14.136,0,0,1,2.116,10.571h0C274.1,126.451,268.872,131.138,263.2,131.138Zm1.191-24.992c-4.941,0-9.5,4.163-10.562,9.956a12.591,12.591,0,0,0,1.863,9.4,9.288,9.288,0,0,0,5.977,3.949c5.522.959,10.927-3.427,12.1-9.818a12.577,12.577,0,0,0-1.866-9.4,9.265,9.265,0,0,0-5.971-3.946A8.88,8.88,0,0,0,264.387,106.146Zm10.14,13.622h0Z" transform="translate(-6.134 -65.892)"/>
          <path id="Path_330" data-name="Path 330" class="cls-4" d="M257.241,111.571a.78.78,0,0,1-.648-.35c-2.384-3.563-5.4-2.321-5.537-2.264a.779.779,0,0,1-.627-1.426c.036-.021,4.329-1.86,7.46,2.824a.781.781,0,0,1-.648,1.215Z" transform="translate(-10.316 -60.722)"/>
          <path id="Path_331" data-name="Path 331" class="cls-4" d="M253.919,129.031a10.43,10.43,0,0,1-1.8-.16,10.825,10.825,0,0,1-6.987-4.591,14.149,14.149,0,0,1-2.113-10.571c1.329-7.231,7.59-12.184,13.9-11.069a10.818,10.818,0,0,1,6.987,4.591,14.163,14.163,0,0,1,2.113,10.571h0C264.819,124.341,259.6,129.031,253.919,129.031Zm1.191-24.992c-4.94,0-9.5,4.16-10.562,9.953a12.588,12.588,0,0,0,1.863,9.4,9.27,9.27,0,0,0,5.974,3.946c5.519.986,10.927-3.427,12.1-9.818a12.582,12.582,0,0,0-1.863-9.4,9.271,9.271,0,0,0-5.974-3.946A8.879,8.879,0,0,0,255.11,104.039Zm10.14,13.622h0Z" transform="translate(-24.821 -70.14)"/>
          <path id="Path_332" data-name="Path 332" class="cls-14" d="M290.989,411.782a7.392,7.392,0,0,1-4.745-1.263,3.452,3.452,0,0,1-1.136-3.1,1.915,1.915,0,0,1,1.046-1.661c2.746-1.4,10.653,3.5,11.545,4.069a.582.582,0,0,1,.253.594.61.61,0,0,1-.455.473A29.309,29.309,0,0,1,290.989,411.782Zm-3.56-5.13a1.682,1.682,0,0,0-.766.148.733.733,0,0,0-.386.687,2.343,2.343,0,0,0,.745,2.134c1.326,1.142,4.561,1.293,8.79.443C293.054,408.445,289.328,406.651,287.429,406.651Z" transform="translate(60.425 540.235)"/>
          <path id="Path_333" data-name="Path 333" class="cls-14" d="M293.9,414.8a.588.588,0,0,1-.277-.066c-2.532-1.4-7.361-6.827-6.767-9.595a1.973,1.973,0,0,1,1.908-1.537,3.127,3.127,0,0,1,2.481.754c2.824,2.354,3.24,9.51,3.255,9.812a.585.585,0,0,1-.277.537A.577.577,0,0,1,293.9,414.8Zm-4.757-10.05a2.639,2.639,0,0,0-.265.018c-.766.09-.841.443-.874.591-.35,1.634,2.71,5.739,5.212,7.675-.238-2.092-.925-6.261-2.737-7.771A2.03,2.03,0,0,0,289.142,404.746Z" transform="translate(63.884 536.347)"/>
          <path id="Path_334" data-name="Path 334" class="cls-14" d="M246.118,411.786c-2.463,0-4.726-.38-5.986-1.522a3.217,3.217,0,0,1-1.028-2.858,1.911,1.911,0,0,1,1.007-1.561c3.048-1.691,12.892,3.373,14.008,3.955a.574.574,0,0,1,.3.606.607.607,0,0,1-.479.494A42.38,42.38,0,0,1,246.118,411.786Zm-4.362-5.133a2.365,2.365,0,0,0-1.1.214.73.73,0,0,0-.386.63,2.109,2.109,0,0,0,.663,1.89c1.492,1.353,5.567,1.583,11.063.675C248.608,408.428,244.1,406.653,241.757,406.653Z" transform="translate(-32.245 540.234)"/>
          <path id="Path_335" data-name="Path 335" class="cls-14" d="M249.655,414.8a.672.672,0,0,1-.241-.048c-2.957-1.344-8.757-6.7-8.232-9.513.12-.654.609-1.477,2.224-1.637a4.141,4.141,0,0,1,3.234,1.007c3.09,2.589,3.593,9.266,3.614,9.549a.6.6,0,0,1-.6.642Zm-5.8-10.05c-.115,0-.235.009-.353.018-1.061.108-1.139.521-1.164.66-.314,1.685,3.611,5.9,6.619,7.732-.268-1.95-1.055-5.947-3.084-7.644A3.037,3.037,0,0,0,243.853,404.75Z" transform="translate(-28.081 536.343)"/>
          <g id="Group_89" data-name="Group 89" transform="translate(235.336 125.077)">
            <path id="Path_336" data-name="Path 336" class="cls-9" d="M304.035,133.248l28.636,3.445a19.108,19.108,0,0,1,16.832,19.6c-1.462,44.627-7.37,105.984-2.635,199.813,2.387,47.319,35.439,304.281,35.439,304.281l-65.13,11.43s-46.318-138.532-64.959-302.981c-7.994-70.529-.482-134.454-.482-134.454Z" transform="translate(-248.536 -133.248)"/>
            <path id="Path_337" data-name="Path 337" class="cls-10" d="M304.035,133.248l28.636,3.445a19.108,19.108,0,0,1,16.832,19.6c-1.462,44.627-7.37,105.984-2.635,199.813,2.387,47.319,35.439,304.281,35.439,304.281l-65.13,11.43s-46.318-138.532-64.959-302.981c-7.994-70.529-.482-134.454-.482-134.454Z" transform="translate(-248.536 -133.248)"/>
          </g>
          <path id="Path_338" data-name="Path 338" class="cls-17" d="M274.758,152.146c0,6.7,5.142,40.772,17.827,64.274.347-16.021.938-30.674,1.592-44.139Z" transform="translate(39.618 29.896)"/>
          <path id="Path_339" data-name="Path 339" class="cls-17" d="M247.012,150.171c-3.677,7.011-14.276,36.811-19.668,69.323,2.463-1.715,4.8-3.491,7.075-5.3a170.82,170.82,0,0,0,22.849-23.005c.437-.527.874-1.091,1.311-1.619Z" transform="translate(-55.889 25.917)"/>
          <g id="Group_90" data-name="Group 90" transform="translate(173.782 128.022)">
            <path id="Path_340" data-name="Path 340" class="cls-9" d="M284.816,134.225l-16.9,2.032a34.383,34.383,0,0,0-30.276,32.823c-1.917,50.1-5.854,150.174-7.979,185.058-2.885,47.292-.859,304.281-.859,304.281l40.594,7.123s10.3-141.5,23.952-298.674c5.842-67.234,2.511-140.244,2.511-140.244Z" transform="translate(-228.116 -134.225)"/>
            <path id="Path_341" data-name="Path 341" class="cls-10" d="M284.816,134.225l-16.9,2.032a34.383,34.383,0,0,0-30.276,32.823c-1.917,50.1-5.854,150.174-7.979,185.058-2.885,47.292-.859,304.281-.859,304.281l40.594,7.123s10.3-141.5,23.952-298.674c5.842-67.234,2.511-140.244,2.511-140.244Z" transform="translate(-228.116 -134.225)"/>
          </g>
          <path id="Path_342" data-name="Path 342" class="cls-7" d="M252.734,153.859a89.568,89.568,0,0,1,8.989,19.355s39.605-13.579,38.167-35.4c0,0-5.9-3.56-9.637-6.451C290.253,131.366,288.481,145.117,252.734,153.859Z" transform="translate(-4.745 -11.962)"/>
          <path id="Path_343" data-name="Path 343" class="cls-7" d="M267.891,151.25A76.02,76.02,0,0,0,256.63,168.5s-16.253-10.84-9.98-32.407a72.94,72.94,0,0,1,10.891-3.436S254.688,146.581,267.891,151.25Z" transform="translate(-19.902 -9.353)"/>
          <path id="Path_344" data-name="Path 344" class="cls-18" d="M266.37,211.554l45.368,38.957-30.985-15.149Z" transform="translate(22.723 149.562)"/>
          <g id="Group_91" data-name="Group 91" transform="translate(295.181 139.953)">
            <path id="Path_345" data-name="Path 345" class="cls-9" d="M307.838,138.183c1.947,2.668,3.391,4.79,5.013,7.168l4.612,6.969q4.53,6.99,8.772,14.143c5.691,9.528,11.078,19.307,16,29.516a242.8,242.8,0,0,1,13.007,32.341,138.6,138.6,0,0,1,4.434,18.092,102.149,102.149,0,0,1,1.543,20.078,127.911,127.911,0,0,1-7.246,37.212,216.061,216.061,0,0,1-14.228,31.91,308.922,308.922,0,0,1-17.631,28.727c-3.144,4.6-6.366,9.124-9.715,13.577-1.667,2.23-3.379,4.437-5.118,6.641-1.8,2.261-3.412,4.268-5.579,6.8l-31.879-27.662c1.233-1.441,2.912-3.5,4.362-5.338l4.455-5.794c2.93-3.916,5.791-7.907,8.525-11.961a268.163,268.163,0,0,0,14.867-24.94A164.828,164.828,0,0,0,312.8,290.072c2.674-8.476,4.287-16.844,4.235-24.253-.072-6.972-1.857-14.915-4.856-23.358a178.48,178.48,0,0,0-11.491-25.384c-4.576-8.434-9.649-16.8-15.117-24.968q-4.123-6.113-8.485-12.072l-4.4-5.881c-1.432-1.866-3.069-3.973-4.3-5.459Z" transform="translate(-268.39 -138.183)"/>
            <path id="Path_346" data-name="Path 346" class="cls-10" d="M307.838,138.183c1.947,2.668,3.391,4.79,5.013,7.168l4.612,6.969q4.53,6.99,8.772,14.143c5.691,9.528,11.078,19.307,16,29.516a242.8,242.8,0,0,1,13.007,32.341,138.6,138.6,0,0,1,4.434,18.092,102.149,102.149,0,0,1,1.543,20.078,127.911,127.911,0,0,1-7.246,37.212,216.061,216.061,0,0,1-14.228,31.91,308.922,308.922,0,0,1-17.631,28.727c-3.144,4.6-6.366,9.124-9.715,13.577-1.667,2.23-3.379,4.437-5.118,6.641-1.8,2.261-3.412,4.268-5.579,6.8l-31.879-27.662c1.233-1.441,2.912-3.5,4.362-5.338l4.455-5.794c2.93-3.916,5.791-7.907,8.525-11.961a268.163,268.163,0,0,0,14.867-24.94A164.828,164.828,0,0,0,312.8,290.072c2.674-8.476,4.287-16.844,4.235-24.253-.072-6.972-1.857-14.915-4.856-23.358a178.48,178.48,0,0,0-11.491-25.384c-4.576-8.434-9.649-16.8-15.117-24.968q-4.123-6.113-8.485-12.072l-4.4-5.881c-1.432-1.866-3.069-3.973-4.3-5.459Z" transform="translate(-268.39 -138.183)"/>
          </g>
          <g id="Group_95" data-name="Group 95" transform="translate(178.57 125.051)">
            <g id="Group_92" data-name="Group 92" transform="translate(97.433 56.382)">
              <path id="Path_347" data-name="Path 347" class="cls-12" d="M280,162.732a10.654,10.654,0,0,1-12.057,6.2,7.558,7.558,0,0,1-5.272-10.511,10.653,10.653,0,0,1,12.057-6.2A7.565,7.565,0,0,1,280,162.732Z" transform="translate(-262.027 -151.944)"/>
              <path id="Path_348" data-name="Path 348" class="cls-19" d="M280,162.732a10.654,10.654,0,0,1-12.057,6.2,7.558,7.558,0,0,1-5.272-10.511,10.653,10.653,0,0,1,12.057-6.2A7.565,7.565,0,0,1,280,162.732Z" transform="translate(-262.027 -151.944)"/>
            </g>
            <path id="Path_349" data-name="Path 349" class="cls-12" d="M265.49,195.737a1.143,1.143,0,0,1-.684-.22,1.168,1.168,0,0,1-.265-1.631c22.42-31.186,16.139-58.927,16.075-59.2a1.167,1.167,0,0,1,.862-1.408,1.148,1.148,0,0,1,1.411.862c.066.286,6.625,29.013-16.452,61.115A1.162,1.162,0,0,1,265.49,195.737Z" transform="translate(-159.977 -133.239)"/>
            <path id="Path_350" data-name="Path 350" class="cls-12" d="M239.717,177.919a1.174,1.174,0,0,1-1.167-1.076c-2.451-30.62,13.769-41.917,14.46-42.381a1.17,1.17,0,0,1,1.311,1.938c-.16.106-15.777,11.084-13.438,40.259a1.172,1.172,0,0,1-1.073,1.257Z" transform="translate(-212.393 -131.18)"/>
            <g id="Group_93" data-name="Group 93" transform="translate(94.165 55.57)">
              <path id="Path_351" data-name="Path 351" class="cls-12" d="M278.913,162.461a10.642,10.642,0,0,1-12.054,6.2,7.557,7.557,0,0,1-5.272-10.511,10.651,10.651,0,0,1,12.057-6.2A7.558,7.558,0,0,1,278.913,162.461Z" transform="translate(-260.943 -151.675)"/>
              <path id="Path_352" data-name="Path 352" class="cls-20" d="M278.913,162.461a10.642,10.642,0,0,1-12.054,6.2,7.557,7.557,0,0,1-5.272-10.511,10.651,10.651,0,0,1,12.057-6.2A7.558,7.558,0,0,1,278.913,162.461Z" transform="translate(-260.943 -151.675)"/>
              <path id="Path_353" data-name="Path 353" class="cls-20" d="M271.539,158.5a5.6,5.6,0,0,1-6.339,3.258,3.973,3.973,0,0,1-2.77-5.525,5.6,5.6,0,0,1,6.339-3.258A3.973,3.973,0,0,1,271.539,158.5Z" transform="translate(-258.63 -149.344)"/>
            </g>
            <g id="Group_94" data-name="Group 94" transform="translate(0 44.403)">
              <path id="Path_354" data-name="Path 354" class="cls-12" d="M266.21,221.568a1.17,1.17,0,0,1,0-2.339,8.846,8.846,0,0,0,8.714-8.241l2.246-39.316a20.007,20.007,0,0,0-20.142-21.365A23.073,23.073,0,0,0,234.3,171.8l-2.249,39.316a7.561,7.561,0,0,0,7.647,8.109,1.17,1.17,0,1,1,0,2.339,9.9,9.9,0,0,1-9.98-10.58l2.252-39.316a25.439,25.439,0,0,1,25.055-23.7A22.337,22.337,0,0,1,279.5,171.8l-2.246,39.316A11.211,11.211,0,0,1,266.21,221.568Z" transform="translate(-229.704 -147.97)"/>
              <path id="Path_355" data-name="Path 355" class="cls-12" d="M236.268,174.282c-.109,1.89-1.064,3.421-2.137,3.421s-1.854-1.531-1.748-3.421,1.067-3.418,2.14-3.418S236.376,172.4,236.268,174.282Z" transform="translate(-224.329 -101.854)"/>
              <path id="Path_356" data-name="Path 356" class="cls-12" d="M245.062,174.282c-.109,1.89-1.067,3.421-2.137,3.421s-1.857-1.531-1.748-3.421,1.064-3.418,2.137-3.418S245.171,172.4,245.062,174.282Z" transform="translate(-206.615 -101.854)"/>
            </g>
          </g>
        </g>
      </g>
      <g id="Heart" transform="translate(1372.666 4452.731)">
        <g id="Group_97" data-name="Group 97">
          <path id="Path_357" data-name="Path 357" class="cls-15" d="M163.38,108.116l-2.149-1.549a50.84,50.84,0,0,1,56.7-18.535l-.814,2.523a48.179,48.179,0,0,0-53.736,17.561Z" transform="translate(-151.609 -85.56)"/>
          <path id="Path_358" data-name="Path 358" class="cls-15" d="M160.686,111.472l-2.647-.078a50.91,50.91,0,0,1,2.448-14.152l2.526.811A48.4,48.4,0,0,0,160.686,111.472Z" transform="translate(-158.039 -62.031)"/>
          <path id="Path_359" data-name="Path 359" class="cls-15" d="M295.932,131.006a41.469,41.469,0,0,0-56.693-19.8,41.475,41.475,0,0,0-56.513-17.634c-20.13,10.788-27.093,36.368-16.678,56.687L193.2,203.247a22.034,22.034,0,0,0,29.661,9.558l53.161-27.246C295.9,175.374,305.174,151.338,295.932,131.006Z" transform="translate(-151.577 -79.35)"/>
        </g>
      </g>
    </g>
  </g>
</svg>
