<svg xmlns="http://www.w3.org/2000/svg" xmlns:xlink="http://www.w3.org/1999/xlink" width="1180" height="1080" viewBox="0 0 1180 1080">
  <defs>
    <style>
      .cls-1 {
        clip-path: url(#clip-Doctofiche_-_Illustration_03);
      }

      .cls-2 {
        fill: #ebebeb;
      }

      .cls-3 {
        fill: #f0f0f0;
      }

      .cls-4 {
        fill: #f5f5f5;
      }

      .cls-15, .cls-5 {
        fill: #fff;
      }

      .cls-6, .cls-7 {
        fill: #e6e6e6;
      }

      .cls-6 {
        opacity: 0.7;
        mix-blend-mode: multiply;
        isolation: isolate;
      }

      .cls-8 {
        fill: #fafafa;
      }

      .cls-9 {
        fill: #407bff;
      }

      .cls-10 {
        fill: #0171bb;
      }

      .cls-11, .cls-13 {
        fill: #0095d9;
      }

      .cls-12 {
        opacity: 0.4;
      }

      .cls-13, .cls-21 {
        opacity: 0.3;
      }

      .cls-14 {
        fill: #b7b7b7;
      }

      .cls-15 {
        opacity: 0.5;
      }

      .cls-16, .cls-20 {
        fill: #263238;
      }

      .cls-17 {
        fill: #ffc3bd;
      }

      .cls-18 {
        fill: #ed847e;
      }

      .cls-19 {
        opacity: 0.2;
      }

      .cls-20 {
        opacity: 0.8;
      }
    </style>
    <clipPath id="clip-Doctofiche_-_Illustration_03">
      <rect width="1180" height="1080"/>
    </clipPath>
  </defs>
  <g id="Doctofiche_-_Illustration_03" data-name="Doctofiche - Illustration 03" class="cls-1">
    <g id="Group_129" data-name="Group 129" transform="translate(-2008.668 -5307.346)">
      <g id="Group_106" data-name="Group 106" transform="translate(1889.03 5317.966)">
        <g id="Group_104" data-name="Group 104">
          <rect id="Rectangle_89" data-name="Rectangle 89" class="cls-2" width="1419.941" height="0.71" transform="translate(0 929.906)"/>
          <path id="Path_373" data-name="Path 373" class="cls-2" d="M602.8,858.205H54.417A16.23,16.23,0,0,1,38.207,842V71.16a16.227,16.227,0,0,1,16.21-16.207H602.8A16.227,16.227,0,0,1,619,71.16V842A16.229,16.229,0,0,1,602.8,858.205ZM54.417,55.663a15.515,15.515,0,0,0-15.5,15.5V842a15.516,15.516,0,0,0,15.5,15.5H602.8a15.515,15.515,0,0,0,15.5-15.5V71.16a15.515,15.515,0,0,0-15.5-15.5Z" transform="translate(70.296 -54.953)"/>
          <path id="Path_374" data-name="Path 374" class="cls-2" d="M819.088,858.205H270.712A16.227,16.227,0,0,1,254.5,842V71.16a16.225,16.225,0,0,1,16.207-16.207H819.088A16.228,16.228,0,0,1,835.3,71.16V842A16.23,16.23,0,0,1,819.088,858.205ZM270.712,55.663a15.515,15.515,0,0,0-15.5,15.5V842a15.515,15.515,0,0,0,15.5,15.5H819.088a15.518,15.518,0,0,0,15.5-15.5V71.16a15.518,15.518,0,0,0-15.5-15.5Z" transform="translate(468.259 -54.953)"/>
        </g>
        <g id="Group_105" data-name="Group 105" transform="translate(145.626 949.246)">
          <rect id="Rectangle_90" data-name="Rectangle 90" class="cls-2" width="73.829" height="0.71" transform="translate(0 7.706)"/>
          <rect id="Rectangle_91" data-name="Rectangle 91" class="cls-2" width="127.871" height="0.71" transform="translate(266.592)"/>
          <rect id="Rectangle_92" data-name="Rectangle 92" class="cls-2" width="172.642" height="0.71" transform="translate(76.672 34.078)"/>
          <rect id="Rectangle_93" data-name="Rectangle 93" class="cls-2" width="54.624" height="0.71" transform="translate(1074.065 29.306)"/>
          <rect id="Rectangle_94" data-name="Rectangle 94" class="cls-2" width="157.023" height="0.71" transform="translate(891.758 29.306)"/>
          <rect id="Rectangle_95" data-name="Rectangle 95" class="cls-2" width="211.477" height="0.71" transform="translate(584.356 17.316)"/>
        </g>
      </g>
      <g id="Group_117" data-name="Group 117" transform="translate(2087.906 5365.029)">
        <g id="Group_109" data-name="Group 109" transform="translate(0 570.511)">
          <g id="Group_107" data-name="Group 107" transform="translate(5.343 5.942)">
            <rect id="Rectangle_96" data-name="Rectangle 96" class="cls-3" width="119.415" height="306.391" transform="translate(428.549)"/>
            <rect id="Rectangle_97" data-name="Rectangle 97" class="cls-4" width="427.302" height="306.391" transform="translate(428.549 306.391) rotate(180)"/>
            <rect id="Rectangle_98" data-name="Rectangle 98" class="cls-5" width="71.323" height="62.386" transform="translate(98.755 276.546) rotate(180)"/>
            <rect id="Rectangle_99" data-name="Rectangle 99" class="cls-2" width="71.323" height="62.386" transform="translate(98.755 191.258) rotate(180)"/>
            <rect id="Rectangle_100" data-name="Rectangle 100" class="cls-6" width="547.964" height="12.304" transform="translate(0 39.551)"/>
          </g>
          <g id="Group_108" data-name="Group 108" transform="translate(0 0)">
            <rect id="Rectangle_101" data-name="Rectangle 101" class="cls-3" width="126.006" height="49.626" transform="translate(433.892 0)"/>
            <rect id="Rectangle_102" data-name="Rectangle 102" class="cls-4" width="433.892" height="49.626" transform="translate(433.892 49.626) rotate(180)"/>
          </g>
        </g>
        <g id="Group_112" data-name="Group 112" transform="translate(86.971 472.23)">
          <g id="Group_110" data-name="Group 110" transform="translate(4.152 4.617)">
            <rect id="Rectangle_103" data-name="Rectangle 103" class="cls-3" width="92.799" height="94.433" transform="translate(324.114 0)"/>
            <rect id="Rectangle_104" data-name="Rectangle 104" class="cls-4" width="323.145" height="94.433" transform="translate(324.114 94.433) rotate(180)"/>
            <rect id="Rectangle_105" data-name="Rectangle 105" class="cls-6" width="416.913" height="7.628" transform="translate(0 14.237)"/>
          </g>
          <g id="Group_111" data-name="Group 111" transform="translate(0 0)">
            <rect id="Rectangle_106" data-name="Rectangle 106" class="cls-3" width="97.921" height="22.066" transform="translate(328.266 0)"/>
            <rect id="Rectangle_107" data-name="Rectangle 107" class="cls-4" width="328.266" height="22.066" transform="translate(328.266 22.066) rotate(180)"/>
          </g>
        </g>
        <g id="Group_114" data-name="Group 114" transform="translate(617.33 423.135)">
          <g id="Group_113" data-name="Group 113">
            <rect id="Rectangle_108" data-name="Rectangle 108" class="cls-7" width="90.851" height="459.709" transform="translate(90.851 459.709) rotate(180)"/>
            <path id="Path_375" data-name="Path 375" class="cls-3" d="M306.861,403.518H287.409v-32.6h39.848Z" transform="translate(-287.409 56.191)"/>
            <rect id="Rectangle_109" data-name="Rectangle 109" class="cls-7" width="90.853" height="459.709" transform="translate(393.909 459.709) rotate(180)"/>
            <rect id="Rectangle_110" data-name="Rectangle 110" class="cls-3" width="320.033" height="453.126" transform="translate(320.033 453.126) rotate(180)"/>
            <rect id="Rectangle_111" data-name="Rectangle 111" class="cls-7" width="289.852" height="124.264" transform="translate(304.943 144.348) rotate(180)"/>
            <path id="Path_376" data-name="Path 376" class="cls-8" d="M375.147,260.883a19.05,19.05,0,1,1-19.05-19.05A19.049,19.049,0,0,1,375.147,260.883Z" transform="translate(-196.08 -181.313)"/>
            <path id="Path_377" data-name="Path 377" class="cls-3" d="M406.465,403.518h19.452v-32.6H386.069Z" transform="translate(-105.884 56.191)"/>
            <rect id="Rectangle_112" data-name="Rectangle 112" class="cls-7" width="289.852" height="268.612" transform="translate(15.09 164.431)"/>
            <circle id="Ellipse_19" data-name="Ellipse 19" class="cls-8" cx="19.05" cy="19.05" r="19.05" transform="translate(245.86 185.414)"/>
          </g>
        </g>
        <g id="Group_116" data-name="Group 116" transform="translate(41.81 0)">
          <g id="Group_115" data-name="Group 115" transform="translate(0 0)">
            <rect id="Rectangle_113" data-name="Rectangle 113" class="cls-7" width="371.96" height="934.44" transform="translate(938.568 0) rotate(90)"/>
            <rect id="Rectangle_114" data-name="Rectangle 114" class="cls-3" width="371.96" height="934.44" transform="translate(934.44 0) rotate(90)"/>
            <rect id="Rectangle_115" data-name="Rectangle 115" class="cls-5" width="886.883" height="324.402" transform="translate(23.779 23.779)"/>
          </g>
          <path id="Path_378" data-name="Path 378" class="cls-7" d="M149.762,127.5l-31.207,54.052h62.414Z" transform="translate(-22.558 31.457)"/>
          <rect id="Rectangle_116" data-name="Rectangle 116" class="cls-7" width="50.961" height="50.961" transform="translate(238.139 160.5)"/>
          <path id="Path_379" data-name="Path 379" class="cls-7" d="M247.818,125.537l-34.271,24.9,13.09,40.288H269l13.09-40.288Z" transform="translate(152.216 27.85)"/>
          <path id="Path_380" data-name="Path 380" class="cls-7" d="M315.014,126.025H278.979l-18.017,31.207,18.017,31.207h36.034l18.017-31.207Z" transform="translate(239.453 28.748)"/>
          <path id="Path_381" data-name="Path 381" class="cls-7" d="M344.447,124.953l-28.173,13.567-6.958,30.486,19.5,24.447h31.27l19.5-24.447-6.958-30.486Z" transform="translate(328.418 26.776)"/>
          <path id="Path_382" data-name="Path 382" class="cls-7" d="M405.08,125.291H377.5l-19.5,19.5v27.58l19.5,19.5h27.58l19.5-19.5v-27.58Z" transform="translate(417.989 27.397)"/>
        </g>
      </g>
      <ellipse id="_Path_" data-name="&lt;Path&gt;" class="cls-4" cx="550.622" cy="32.157" rx="550.622" ry="32.157" transform="translate(2048.379 6311.815)"/>
      <g id="Group_118" data-name="Group 118" transform="translate(2511.5 5529.688)">
        <path id="Path_383" data-name="Path 383" class="cls-9" d="M276.609,129.506H744.2a16.893,16.893,0,0,1,17.014,18.138L723.1,762a19.627,19.627,0,0,1-19.266,18.138H236.237A16.894,16.894,0,0,1,219.224,762l38.12-614.355A19.63,19.63,0,0,1,276.609,129.506Z" transform="translate(-219.189 -129.506)"/>
        <path id="Path_384" data-name="Path 384" class="cls-10" d="M276.609,129.506H744.2a16.893,16.893,0,0,1,17.014,18.138L723.1,762a19.627,19.627,0,0,1-19.266,18.138H236.237A16.894,16.894,0,0,1,219.224,762l38.12-614.355A19.63,19.63,0,0,1,276.609,129.506Z" transform="translate(-219.189 -129.506)"/>
      </g>
      <path id="Path_385" data-name="Path 385" class="cls-11" d="M272.827,129.506h467.6a16.894,16.894,0,0,1,17.014,18.138L719.314,762a19.625,19.625,0,0,1-19.263,18.138h-467.6A16.892,16.892,0,0,1,215.442,762l38.12-614.355A19.628,19.628,0,0,1,272.827,129.506Z" transform="translate(2285.353 5400.18)"/>
      <path id="Path_386" data-name="Path 386" class="cls-12" d="M224.343,728.888l455.126,5.458L716.39,139.331H260.926Z" transform="translate(2301.795 5418.258)"/>
      <path id="Path_387" data-name="Path 387" class="cls-5" d="M219.661,727.56H680.568c25.4-232.6,33.2-358.177,36.66-590.781H256.318C252.856,369.382,245.064,494.956,219.661,727.56Z" transform="translate(2293.181 5413.564)"/>
      <g id="Group_119" data-name="Group 119" transform="translate(2595.238 5621.063)">
        <path id="Path_388" data-name="Path 388" class="cls-13" d="M430.7,252.76h-79.36a5.864,5.864,0,0,1-5.85-6.225l4.927-79.358a5.86,5.86,0,0,1,5.847-5.5h79.363a5.859,5.859,0,0,1,5.847,6.222l-4.924,79.358A5.863,5.863,0,0,1,430.7,252.76Zm-73.127-11.72h67.621l4.2-67.637H361.771Z" transform="translate(-70.573 -161.682)"/>
        <path id="Path_389" data-name="Path 389" class="cls-13" d="M428.055,295.328H348.694a5.859,5.859,0,0,1-5.847-6.222l4.922-79.36a5.865,5.865,0,0,1,5.85-5.5h79.361a5.864,5.864,0,0,1,5.85,6.225L433.9,289.833A5.858,5.858,0,0,1,428.055,295.328Zm-73.124-11.72h67.615l4.2-67.64h-67.62Z" transform="translate(-75.43 -83.367)"/>
        <path id="Path_390" data-name="Path 390" class="cls-13" d="M425.416,337.894H346.055a5.868,5.868,0,0,1-5.85-6.225l4.927-79.36a5.858,5.858,0,0,1,5.847-5.5h79.358a5.859,5.859,0,0,1,5.85,6.222L431.266,332.4A5.865,5.865,0,0,1,425.416,337.894Zm-73.127-11.72h67.62l4.194-67.64H356.489Z" transform="translate(-80.291 -5.051)"/>
        <path id="Path_391" data-name="Path 391" class="cls-13" d="M422.77,380.459H343.413a5.859,5.859,0,0,1-5.847-6.222l4.922-79.36a5.863,5.863,0,0,1,5.85-5.5H427.7a5.859,5.859,0,0,1,5.847,6.222l-4.924,79.363A5.86,5.86,0,0,1,422.77,380.459Zm-73.121-11.72h67.615l4.2-67.64h-67.62Z" transform="translate(-85.149 73.264)"/>
        <path id="Path_392" data-name="Path 392" class="cls-13" d="M265.922,186.915H445.655A10.737,10.737,0,0,0,456.191,177h0a9.242,9.242,0,0,0-9.306-9.92H267.154A10.732,10.732,0,0,0,256.619,177h0A9.238,9.238,0,0,0,265.922,186.915Z" transform="translate(-234.096 -151.758)"/>
        <path id="Path_393" data-name="Path 393" class="cls-13" d="M277.072,201.212H422.624a10.733,10.733,0,0,0,10.536-9.92h0a9.236,9.236,0,0,0-9.3-9.92H278.3a10.732,10.732,0,0,0-10.536,9.92h0A9.242,9.242,0,0,0,277.072,201.212Z" transform="translate(-213.587 -125.453)"/>
        <path id="Path_394" data-name="Path 394" class="cls-13" d="M263.625,223.938H443.359a9.239,9.239,0,0,1,9.3,9.92h0a10.732,10.732,0,0,1-10.536,9.92H262.4a9.24,9.24,0,0,1-9.306-9.92h0A10.737,10.737,0,0,1,263.625,223.938Z" transform="translate(-240.589 -47.138)"/>
        <path id="Path_395" data-name="Path 395" class="cls-13" d="M276.547,209.641H422.1a9.24,9.24,0,0,1,9.3,9.922h0a10.732,10.732,0,0,1-10.536,9.92H275.318a9.24,9.24,0,0,1-9.306-9.92h0A10.735,10.735,0,0,1,276.547,209.641Z" transform="translate(-216.814 -73.443)"/>
        <path id="Path_396" data-name="Path 396" class="cls-13" d="M260.642,272.046h179.73a10.734,10.734,0,0,0,10.536-9.92h0a9.239,9.239,0,0,0-9.3-9.92H261.871a10.734,10.734,0,0,0-10.536,9.92h0A9.24,9.24,0,0,0,260.642,272.046Z" transform="translate(-243.816 4.873)"/>
        <path id="Path_397" data-name="Path 397" class="cls-13" d="M297.576,286.343h72.318a10.734,10.734,0,0,0,10.536-9.92h0a9.239,9.239,0,0,0-9.306-9.92H298.808a10.73,10.73,0,0,0-10.536,9.92h0A9.239,9.239,0,0,0,297.576,286.343Z" transform="translate(-175.856 31.178)"/>
        <path id="Path_398" data-name="Path 398" class="cls-13" d="M271.787,286.343h38.139a10.734,10.734,0,0,0,10.536-9.92h0a9.238,9.238,0,0,0-9.3-9.92H273.019a10.732,10.732,0,0,0-10.536,9.92h0A9.239,9.239,0,0,0,271.787,286.343Z" transform="translate(-223.305 31.178)"/>
        <path id="Path_399" data-name="Path 399" class="cls-13" d="M258,314.614H437.731a10.734,10.734,0,0,0,10.536-9.92v0a9.24,9.24,0,0,0-9.306-9.92H259.23a10.734,10.734,0,0,0-10.536,9.92v0A9.239,9.239,0,0,0,258,314.614Z" transform="translate(-248.675 83.188)"/>
        <path id="Path_400" data-name="Path 400" class="cls-13" d="M269.146,328.908H414.7a10.736,10.736,0,0,0,10.536-9.92h0a9.24,9.24,0,0,0-9.306-9.92H270.376a10.732,10.732,0,0,0-10.533,9.92h0A9.238,9.238,0,0,0,269.146,328.908Z" transform="translate(-228.165 109.493)"/>
        <path id="Path_401" data-name="Path 401" class="cls-10" d="M383.716,229.536a5.837,5.837,0,0,1-3.3-1.022l-30.577-20.887a5.859,5.859,0,0,1,6.611-9.675L382.574,215.8c9.533-11.5,36.748-42.7,59.382-52.793a5.859,5.859,0,1,1,4.771,10.7c-24.71,11.013-58.067,53.165-58.4,53.589A5.842,5.842,0,0,1,383.716,229.536Z" transform="translate(-67.246 -160.181)"/>
        <path id="Path_402" data-name="Path 402" class="cls-10" d="M376.139,264.978a5.856,5.856,0,0,1-4.067-1.642l-26.618-25.661a5.858,5.858,0,1,1,8.131-8.434l22.662,21.842c11.2-10.019,42.644-36.731,66.331-43.212a5.86,5.86,0,0,1,3.09,11.306c-25.905,7.083-65.118,43.834-65.51,44.206A5.858,5.858,0,0,1,376.139,264.978Z" transform="translate(-73.914 -77.085)"/>
      </g>
      <path id="Path_403" data-name="Path 403" class="cls-12" d="M338.69,164.235l8.645.082A17.4,17.4,0,0,0,364.866,147.1l.108-15.835a1.72,1.72,0,0,0-1.744-1.755H339.153a2,2,0,0,0-1.977,1.96l-.216,31.014A1.726,1.726,0,0,0,338.69,164.235Z" transform="translate(2508.999 5400.18)"/>
      <g id="Group_121" data-name="Group 121" transform="translate(2693.923 5500.953)">
        <g id="Group_120" data-name="Group 120">
          <path id="Path_404" data-name="Path 404" class="cls-9" d="M306.5,119.388H451.512c8.994,0,15.361,7.361,14.148,16.355L461.3,168.055c-1.213,9-9.568,16.355-18.564,16.355H297.721c-9,0-15.361-7.358-14.148-16.355l4.362-32.312C289.15,126.749,297.506,119.388,306.5,119.388Z" transform="translate(-283.425 -119.388)"/>
          <path id="Path_405" data-name="Path 405" class="cls-14" d="M306.5,119.388H451.512c8.994,0,15.361,7.361,14.148,16.355L461.3,168.055c-1.213,9-9.568,16.355-18.564,16.355H297.721c-9,0-15.361-7.358-14.148-16.355l4.362-32.312C289.15,126.749,297.506,119.388,306.5,119.388Z" transform="translate(-283.425 -119.388)"/>
        </g>
        <path id="Path_406" data-name="Path 406" class="cls-15" d="M386.362,130.583H321.181a4.393,4.393,0,0,1,0-8.787h65.181a4.393,4.393,0,1,1,0,8.787Z" transform="translate(-222.04 -114.958)"/>
        <path id="Path_407" data-name="Path 407" class="cls-15" d="M317.944,130.583h-6.878a4.393,4.393,0,1,1,0-8.787h6.878a4.393,4.393,0,0,1,0,8.787Z" transform="translate(-240.651 -114.958)"/>
      </g>
      <g id="Group_123" data-name="Group 123" transform="translate(2370.281 5599.597)">
        <path id="Path_408" data-name="Path 408" class="cls-10" d="M169.462,550.151,197.49,555.5l66.258-311.6L222.6,236.051Z" transform="translate(-169.462 -3.386)"/>
        <path id="Path_409" data-name="Path 409" class="cls-16" d="M204.152,178.3l33.558-11.023,2.326-12.19-31.271-.963Z" transform="translate(-105.636 -154.123)"/>
        <path id="Path_410" data-name="Path 410" class="cls-10" d="M231.2,168.194l38.222-12.432L230.143,379.436l-41.152-7.852Z" transform="translate(-133.53 -151.109)"/>
        <rect id="Rectangle_117" data-name="Rectangle 117" class="cls-16" width="38.49" height="12.41" transform="translate(92.615 240.198) rotate(-169.197)"/>
        <path id="Path_411" data-name="Path 411" class="cls-9" d="M171.292,361.536c-.355,1.846.418,3.544,1.724,3.794s2.65-1.045,3-2.894-.42-3.544-1.727-3.794S171.644,359.69,171.292,361.536Z" transform="translate(-166.253 222.111)"/>
        <path id="Path_412" data-name="Path 412" class="cls-16" d="M172.58,383.768l8.344,1.592L197.49,352l-28.028-5.348Z" transform="translate(-169.462 200.112)"/>
        <path id="Path_413" data-name="Path 413" class="cls-16" d="M190.627,313.64a3.539,3.539,0,0,1-3.2-5.029c17.6-37.725,31.886-116.557,33.806-135.306a15.372,15.372,0,0,1,9.21-12.538l9.286-4a3.534,3.534,0,1,1,2.8,6.489l-9.289,4a8.292,8.292,0,0,0-4.973,6.767c-2.016,19.689-16.207,98.5-34.434,137.575A3.536,3.536,0,0,1,190.627,313.64Z" transform="translate(-137.018 -149.796)"/>
      </g>
      <path id="Path_414" data-name="Path 414" class="cls-17" d="M187.143,170.032c-7.077,12.115-14.228,24.974-20.936,37.589q-5,9.538-9.67,19.13c-2.99,6.418-5.975,12.831-8.531,19.252l-.483,1.167c0,.017-.043-.051-.06.028a1.658,1.658,0,0,0-.207.6,13.113,13.113,0,0,0-.19,2.777,41.814,41.814,0,0,0,1.2,8.338A142.091,142.091,0,0,0,154.5,278.1c2.53,6.554,5.43,13.12,8.437,19.689,2.939,6.574,6.231,13.194,9.349,19.6L158.8,326.6a247.927,247.927,0,0,1-26.746-37.682,139.668,139.668,0,0,1-10.346-22.052,70.678,70.678,0,0,1-3.411-13.393,40.618,40.618,0,0,1-.338-8.327,32.282,32.282,0,0,1,.676-4.89c.156-.835.446-1.772.7-2.647l.457-1.451a316.651,316.651,0,0,1,17.2-43.2A406.728,406.728,0,0,1,159.1,152.683Z" transform="translate(2105.926 5442.824)"/>
      <path id="Path_415" data-name="Path 415" class="cls-17" d="M145.629,209.251l12.686,9.877-19.382,16.008s-8.846-8.551-7.48-19Z" transform="translate(2130.622 5546.904)"/>
      <path id="Path_416" data-name="Path 416" class="cls-17" d="M158.544,227.156l-12.91,16.615-11.641-15.035,19.381-16.007Z" transform="translate(2135.562 5553.303)"/>
      <path id="Path_417" data-name="Path 417" class="cls-16" d="M168.1,119.411c.349,1.718,1.545,2.928,2.669,2.7s1.752-1.809,1.4-3.527-1.545-2.928-2.669-2.7S167.755,117.693,168.1,119.411Z" transform="translate(2198.145 5375.068)"/>
      <path id="Path_418" data-name="Path 418" class="cls-18" d="M168.53,118.15s5.927,9.125,11.2,13.038c-2.465,3.456-7.9,3.209-7.9,3.209Z" transform="translate(2199.105 5379.288)"/>
      <path id="Path_419" data-name="Path 419" class="cls-16" d="M165.81,117.574a1.032,1.032,0,0,1-.755-1.732,10.216,10.216,0,0,1,8.767-3.408,1.029,1.029,0,0,1-.341,2.031h0a8.186,8.186,0,0,0-6.915,2.777A1.026,1.026,0,0,1,165.81,117.574Z" transform="translate(2192.204 5368.638)"/>
      <path id="Path_420" data-name="Path 420" class="cls-17" d="M153.971,125.624c3.121,15.915,6.234,45.075-4.9,55.693,0,0,4.351,16.145,33.922,16.145,32.514,0,15.54-16.142,15.54-16.142-17.746-4.24-17.289-17.406-14.2-29.77Z" transform="translate(2163.299 5393.039)"/>
      <path id="Path_421" data-name="Path 421" class="cls-16" d="M147.24,161.969c-2.363-5.617,2.7-22.654,8.094-24.321,5.93-1.832,28.481-.809,39.673,3.874,7.957,8.065,10.255,24.815,10.255,24.815Z" transform="translate(2158.838 5413.585)"/>
      <path id="Path_422" data-name="Path 422" class="cls-11" d="M117.844,410.508c2.181.471,4.365.6,5.413-.3a2.1,2.1,0,0,0,.5-2.394,2.386,2.386,0,0,0-1.326-1.517c-2.936-1.4-9.687,1.349-9.974,1.468a.516.516,0,0,0-.028.94A27.528,27.528,0,0,0,117.844,410.508Zm3.538-3.479a2.8,2.8,0,0,1,.6.2,1.386,1.386,0,0,1,.784.88c.275.926-.068,1.218-.182,1.315-1.17.994-5.512.077-8.574-1.147C116.092,407.546,119.449,406.612,121.383,407.029Z" transform="translate(2095.353 5908.72)"/>
      <path id="Path_423" data-name="Path 423" class="cls-11" d="M112.545,412.581a.543.543,0,0,0,.253-.008c2.459-.719,7.722-4.456,7.784-6.924a1.681,1.681,0,0,0-1.318-1.667,2.817,2.817,0,0,0-2.283.182c-2.908,1.485-4.745,7.509-4.819,7.764a.514.514,0,0,0,.383.653Zm6.157-7.69a2.183,2.183,0,0,1,.224.062c.636.224.63.534.625.67-.037,1.457-3.507,4.391-6.055,5.578.636-1.738,2.087-5.169,3.953-6.12A1.828,1.828,0,0,1,118.7,404.89Z" transform="translate(2095.353 5904.888)"/>
      <path id="Path_424" data-name="Path 424" class="cls-11" d="M174.034,412.206c2.792,0,5.49-.383,6.393-1.639a1.952,1.952,0,0,0-.043-2.252,2.566,2.566,0,0,0-1.633-1.207c-3.621-.983-11.223,3.348-11.544,3.536a.514.514,0,0,0,.156.951A38.211,38.211,0,0,0,174.034,412.206Zm3.45-4.22a3.763,3.763,0,0,1,1,.119,1.55,1.55,0,0,1,1.008.721c.366.639.233.957.1,1.139-1.011,1.406-6.509,1.437-10.553.866C171.052,409.8,174.943,407.986,177.484,407.986Z" transform="translate(2196.194 5910.67)"/>
      <path id="Path_425" data-name="Path 425" class="cls-11" d="M167.462,414.978a.505.505,0,0,0,.213-.046c2.624-1.179,7.824-5.881,7.426-8.341-.094-.579-.5-1.3-1.917-1.44a3.754,3.754,0,0,0-2.857.883c-2.769,2.272-3.354,8.131-3.377,8.381a.507.507,0,0,0,.21.466A.514.514,0,0,0,167.462,414.978Zm5.308-8.818c.1,0,.207.006.31.014.929.1.985.46,1.005.58.238,1.477-3.294,5.174-5.975,6.784.281-1.712,1.056-5.217,2.874-6.708A2.734,2.734,0,0,1,172.77,406.16Z" transform="translate(2196.194 5907.299)"/>
      <path id="Path_426" data-name="Path 426" class="cls-17" d="M158.706,441.054H180.46l2.167-50.376H160.873Z" transform="translate(2181.031 5880.708)"/>
      <path id="Path_427" data-name="Path 427" class="cls-17" d="M103.426,435.27l21.843,4.6,15.413-46.922-21.843-4.6Z" transform="translate(2079.322 5876.419)"/>
      <path id="Path_428" data-name="Path 428" class="cls-16" d="M134.359,409.118l-23.883-5.171a1.9,1.9,0,0,0-2.127,1.059L100.059,423a3.2,3.2,0,0,0,2.295,4.453c8.369,1.661,12.527,2.05,23.031,4.325,6.461,1.4,21.049,4.953,29.972,6.884,8.73,1.891,12-6.64,8.52-8.23-15.605-7.128-22.125-13.407-26.348-19.257A5.281,5.281,0,0,0,134.359,409.118Z" transform="translate(2072.593 5905.042)"/>
      <path id="Path_429" data-name="Path 429" class="cls-16" d="M185.742,407.53H161.984a1.9,1.9,0,0,0-1.852,1.485l-4.3,19.337a3.163,3.163,0,0,0,3.129,3.868c8.571-.145,20.953-.648,31.724-.648,12.595,0,7.7.688,22.472.688,8.931,0,11.411-9.028,7.671-9.846-17.017-3.723-15.145-4.124-29.85-13.188A10.069,10.069,0,0,0,185.742,407.53Z" transform="translate(2175.605 5911.713)"/>
      <g id="Group_124" data-name="Group 124" transform="translate(2236.219 5578.688)">
        <path id="Path_430" data-name="Path 430" class="cls-16" d="M159.455,147.347c-20.387,4.674-37.2,56.724-37.2,56.724l40.943,31.2s15.029-14.168,21.717-40.2C191.923,167.794,180.3,142.567,159.455,147.347Z" transform="translate(-122.255 -146.761)"/>
      </g>
      <path id="Path_431" data-name="Path 431" class="cls-19" d="M151.579,160.445C140.5,171.4,136.891,191.36,136.033,208.712l1.806,1.392s15.043-14.182,21.734-40.213c.415-1.627.77-3.257,1.068-4.856Z" transform="translate(2139.315 5457.105)"/>
      <g id="Group_125" data-name="Group 125" transform="translate(2273.419 5573.632)">
        <path id="Path_432" data-name="Path 432" class="cls-16" d="M257.225,151.745s23.154,26.152,1.286,188.023H142.161c-.8-17.86,10.419-104.988-6.807-189.145A303.728,303.728,0,0,1,174.3,145.7c14.867-.716,36.39-1.19,49.462,0A218.1,218.1,0,0,1,257.225,151.745Z" transform="translate(-135.354 -144.98)"/>
      </g>
      <g id="Group_126" data-name="Group 126" transform="translate(2190.197 6264.78)">
        <path id="Path_433" data-name="Path 433" class="cls-19" d="M181.948,390.683l-1.113,25.967H159.072l1.113-25.967Z" transform="translate(-8.492 -384.064)"/>
        <path id="Path_434" data-name="Path 434" class="cls-19" d="M114,388.352l21.852,4.6L127.9,417.141l-21.852-4.6Z" transform="translate(-106.049 -388.352)"/>
      </g>
      <path id="Path_435" data-name="Path 435" class="cls-17" d="M148.268,144.171c5.589,20.853,7.8,33.343,20.669,42.016,19.357,13.041,43.456-1.928,44.211-24.031.679-19.893-8.574-50.655-30.952-54.858C160.148,103.157,142.679,123.318,148.268,144.171Z" transform="translate(2159.892 5358.32)"/>
      <g id="Group_127" data-name="Group 127" transform="translate(2294.685 5477.912)">
        <path id="Path_436" data-name="Path 436" class="cls-17" d="M177.105,175.451h-.278A21.142,21.142,0,0,1,159.6,166.69c-6.543-9.1-15.707-24.92-16.758-43.18,8.281-8.755,39.452-14.517,53.325-11.36,11.567,2.635,9.886,35.558-1.054,53.344A21.193,21.193,0,0,1,177.105,175.451Z" transform="translate(-142.842 -111.275)"/>
        <path id="Path_437" data-name="Path 437" class="cls-20" d="M177.105,175.451h-.278A21.142,21.142,0,0,1,159.6,166.69c-6.543-9.1-15.707-24.92-16.758-43.18,8.281-8.755,39.452-14.517,53.325-11.36,11.567,2.635,9.886,35.558-1.054,53.344A21.193,21.193,0,0,1,177.105,175.451Z" transform="translate(-142.842 -111.275)"/>
      </g>
      <path id="Path_438" data-name="Path 438" class="cls-16" d="M158.907,151.26c-9.8-.7-15.344-6.864-17.119-12.146-2.476-7.375.159-22.958,14.989-23.429s16.409-8.914,11.834-10.65c9.7.71,6.625,7.494,6.625,7.494,2.6.156,5.049-6.943,19.8-6.39s22.089-2.6,20.194-5.918c7.023,1.42,5.049,9.94-.866,12.229,0,0,14.04,10.65,17.355,4.811,2.366,4.26-2.289,9.355-20.038,7.046,7.083,9.9-9.676,7.676-16.818,12.172S168.707,151.965,158.907,151.26Z" transform="translate(2148.398 5346.302)"/>
      <path id="Path_439" data-name="Path 439" class="cls-17" d="M160.327,126.249A24.4,24.4,0,0,0,169.1,139.23c5.66,4.212,9.889.065,9.488-6.339-.363-5.768-3.746-14.907-9.991-16.616C162.451,114.591,158.7,119.989,160.327,126.249Z" transform="translate(2183.314 5375.265)"/>
      <path id="Path_440" data-name="Path 440" class="cls-16" d="M275.368,213.57S250.678,379.817,237.127,442.1C222.285,510.3,142.7,735.949,142.7,735.949L103.76,727.52s55.65-183.891,68.106-279.24c9.568-73.243,28.424-234.71,28.424-234.71Z" transform="translate(2079.936 5554.85)"/>
      <path id="Path_441" data-name="Path 441" class="cls-11" d="M153.843,398.493c.168.034-7.259,14.083-7.259,14.083l-43.811-9.488,3.692-13.171Z" transform="translate(2078.12 5879.308)"/>
      <path id="Path_442" data-name="Path 442" class="cls-21" d="M174.4,234.572c-28.546,5.595-25.528,112.047-22.091,166.8,8.233-38.7,20.282-113.175,28.515-166.031A9.738,9.738,0,0,0,174.4,234.572Z" transform="translate(2165.303 5593.081)"/>
      <path id="Path_443" data-name="Path 443" class="cls-16" d="M228.271,213.57s3,162.649.631,228.985c-2.459,69-26.561,294.933-26.561,294.933H165.49s-1.355-221.9-2.993-289.665C160.71,373.944,151.79,213.57,151.79,213.57Z" transform="translate(2168.306 5554.85)"/>
      <path id="Path_444" data-name="Path 444" class="cls-11" d="M203.262,392.887c.17,0-2.079,15.3-2.079,15.3H156.356l-1.213-13.654Z" transform="translate(2174.475 5884.772)"/>
      <path id="Path_445" data-name="Path 445" class="cls-11" d="M261.8,150.408c5.711,2.38,11.189,6.611,12.833,20.655,1.582,13.5-1.482,131.722-5.189,169.473-.258,2.616-2.164,5.063-4.788,5.177-23.27,1.011-95.318-8.727-119.63-4.447-2.789.491-5.285-2.61-5.137-5.453,1.911-36.788-.841-96.122-5.339-133.83-2.936-24.61-2.956-50.365,17.712-54.744C167.536,144,239.59,141.155,261.8,150.408Z" transform="translate(2134.023 5427.103)"/>
      <path id="Path_446" data-name="Path 446" class="cls-17" d="M202.668,157.854c1.3,6.236,2.712,13.038,4.263,19.51,1.593,6.526,3.178,13.035,4.987,19.413,1.772,6.381,3.689,12.666,5.873,18.658a103.761,103.761,0,0,0,7.245,16.449,33.357,33.357,0,0,0,3.8,5.563c.528.6.954.98,1.056,1.11.014.034-.037.244.565.432a15.461,15.461,0,0,0,5.754.724,65.552,65.552,0,0,0,8.412-.9c11.956-2.178,25.161-6.594,37.657-11.084l8.267,14.086c-11.817,9.164-24.06,16.767-38.98,22.268a69.97,69.97,0,0,1-12.1,3.266,43.857,43.857,0,0,1-15.088.236,31.194,31.194,0,0,1-9.23-3.135,36.934,36.934,0,0,1-7.233-5.24,59.776,59.776,0,0,1-9.1-10.871c-9.144-14.319-13.969-28.186-18.49-42.226-2.138-7.014-4.1-14.018-5.725-21.078-1.658-7.117-3.192-13.969-4.4-21.469Z" transform="translate(2202.167 5452.338)"/>
      <g id="Group_128" data-name="Group 128" transform="translate(2352.642 5580.305)">
        <path id="Path_447" data-name="Path 447" class="cls-16" d="M167.591,168.692c-17.67,35.533,24.312,75.686,24.312,75.686l46.8-24.437s-4.947-30.333-15.989-54.869C209.076,134.761,177.755,148.253,167.591,168.692Z" transform="translate(-163.25 -147.33)"/>
      </g>
      <path id="Path_448" data-name="Path 448" class="cls-17" d="M208.139,189.954l15.875-10.431,6.6,23.747s-7.125,8.307-20.121-.753Z" transform="translate(2271.981 5492.207)"/>
      <path id="Path_449" data-name="Path 449" class="cls-17" d="M227.556,189.662l-.505,4.981a9.4,9.4,0,0,1-3.243,6.2l-3.476,2.97-6.6-23.747,2.03-.525A9.472,9.472,0,0,1,227.556,189.662Z" transform="translate(2282.266 5491.667)"/>
    </g>
  </g>
</svg>
